<svg width="48" height="48" viewBox="0 0 48 48" fill="none" xmlns="http://www.w3.org/2000/svg">
<path d="M38.5444 30.2651C38.5444 36.3976 31.6921 36.9837 26.8443 37.0113H22.4848V31.4904H31.1549V27.2775H22.4848V21.5505H32.0828V17.0977H17.4013V37.0219H11.7933V11.9781H26.8528C31.3311 11.9781 38.5529 12.6172 38.5529 18.5437C38.5529 21.4741 36.0409 23.6294 33.1148 24.3705C36.7395 25.4895 38.5444 27.286 38.5444 30.2651ZM24.5 2C12.0736 2 2 12.0736 2 24.5C2 36.9264 12.0736 47 24.5 47C36.9264 47 47 36.9264 47 24.5C47 12.0757 36.9306 2.00425 24.5064 2H24.5Z" fill="#0071BB"/>
</svg>
