<svg width="48" height="48" viewBox="0 0 48 48" fill="none" xmlns="http://www.w3.org/2000/svg">
<path d="M1 40V7H9.28109C12.6685 7 15.2271 7.72527 16.9568 9.17582C18.7009 10.6113 19.573 12.704 19.573 15.454C19.573 17.4485 19.0901 19.103 18.1243 20.4176C17.1586 21.7321 15.7964 22.5707 14.0378 22.9334C16.0271 23.2054 17.6847 24.1119 19.0109 25.6531C20.337 27.1792 21 28.932 21 30.9114C21 33.7218 20.1279 35.943 18.3838 37.5748C16.654 39.1916 14.2396 40 11.1405 40H1ZM2.16757 23.7039V38.7761H11.2703C13.937 38.7761 16.027 38.0885 17.5406 36.7136C19.0685 35.3235 19.8325 33.4045 19.8325 30.9568C19.8325 28.8715 19.0973 27.1566 17.627 25.8118C16.1568 24.4519 14.1892 23.7493 11.7243 23.7039H2.16757ZM2.16757 22.4801H9.71352C12.582 22.4801 14.7441 21.9059 16.2 20.7576C17.6558 19.5941 18.3838 17.796 18.3838 15.3634C18.3838 10.6793 15.4361 8.29944 9.54054 8.2239H2.16757V22.4801Z" fill="black"/>
<path d="M22.9643 40C22.3231 40 21.8358 39.8028 21.5015 39.4085C21.1672 38.9859 21 38.5071 21 37.9718C21 37.4085 21.1672 36.9014 21.5015 36.4508L32.0341 22.2536L33.9143 20.5634L43.528 7.6338C43.9181 7.21127 44.4337 7 45.074 7C45.6595 7 46.1194 7.1831 46.4537 7.5493C46.788 7.9155 46.9693 8.3662 46.9967 8.90141C47.025 9.43662 46.8711 9.95775 46.5368 10.4648L36.381 24.155L34.5839 25.7606L24.4687 39.3663C24.0513 39.7888 23.5489 40 22.9643 40ZM44.8237 40C44.4611 40 44.1409 39.9437 43.8623 39.831C43.6111 39.6901 43.3741 39.4789 43.1512 39.1972L33.4128 25.5493L31.8669 24.2395L22.0445 10.4648C21.7102 10.0141 21.5713 9.52113 21.6271 8.98591C21.6828 8.45071 21.8773 7.98591 22.2116 7.59155C22.5743 7.19718 23.0474 7 23.6329 7C24.3572 7 24.8729 7.21127 25.1798 7.6338L34.4583 20.6479L36.0467 21.9577L46.3696 36.4508C46.7039 36.9014 46.8579 37.4085 46.8296 37.9718C46.8022 38.5352 46.6067 39.0141 46.244 39.4085C45.9097 39.8028 45.4366 40 44.8237 40Z" fill="black"/>
</svg>
