<svg width="48" height="48" viewBox="0 0 48 48" fill="none" xmlns="http://www.w3.org/2000/svg">
<path d="M41.4532 11.1819C41.3157 11.3102 41.1703 11.4298 41.0178 11.5399C38.4155 13.1956 38.4149 13.1945 36.2291 11.0751C33.4561 8.43698 29.9333 6.72345 26.146 6.1705C22.3587 5.61755 18.4931 6.2524 15.0816 7.9876C11.6495 9.72878 8.84526 12.4963 7.05908 15.9053C5.2729 19.3143 4.59355 23.1951 5.11551 27.0082C5.63748 30.8212 7.33481 34.3767 9.97142 37.1802C12.608 39.9838 16.0528 41.8959 19.8267 42.6506C22.9276 43.3104 26.1474 43.1455 29.1648 42.1725C32.1822 41.1995 34.8917 39.4523 37.0231 37.1053C37.6784 36.6892 38.4642 36.5297 39.2299 36.6572C39.9955 36.7846 40.6873 37.1902 41.1724 37.7961C41.4657 38.428 40.8759 38.7479 40.5715 39.0984C36.9083 43.5035 31.6608 46.2927 25.9603 46.8647C20.2595 47.4926 14.5342 45.9196 9.95455 42.4671C5.37489 39.0147 2.28669 33.9435 1.32117 28.2902C0.355649 22.6368 1.58572 16.8282 4.75995 12.0515C7.93419 7.27475 12.8129 3.8907 18.3989 2.59098C22.6605 1.58689 27.1241 1.8669 31.2268 3.39573C35.3295 4.92456 38.8878 7.63378 41.4532 11.1819Z" fill="#5D176A"/>
<path d="M34.9888 34.2567C30.6434 40.5059 20.6301 41.5803 14.1029 36.4976C12.4873 35.2371 11.1431 33.6631 10.1511 31.8702C9.15906 30.0772 8.53963 28.1022 8.33002 26.0638C8.1204 24.0254 8.32492 21.9657 8.9313 20.0083C9.53767 18.0509 10.5334 16.2363 11.8586 14.6734C13.1839 13.1105 14.8114 11.8316 16.6433 10.9134C18.4752 9.99529 20.4738 9.45685 22.5191 9.33047C24.5643 9.20408 26.614 9.49236 28.545 10.178C30.476 10.8636 32.2486 11.9324 33.7562 13.3203C34.2514 13.7838 35.7129 14.3887 34.6826 15.1225C33.7264 15.8034 32.7478 17.6171 30.9188 16.0953C28.7959 14.1818 26.0188 13.1575 23.1619 13.2341C20.305 13.3108 17.5868 14.4826 15.5696 16.5071C13.5963 18.4553 12.4115 21.0633 12.2426 23.8312C12.0737 26.599 12.9325 29.3318 14.6543 31.5055C16.3761 33.6792 18.8397 35.1408 21.5728 35.6099C24.3058 36.0791 27.1158 35.5229 29.464 34.0479C32.254 32.2896 32.254 32.2896 34.9888 34.2567Z" fill="#5D176A"/>
<path d="M45.8754 11.6055C46.0737 11.9477 46.2125 12.3211 46.2859 12.7097C46.31 20.612 46.3099 28.5144 46.2857 36.4168C46.2839 36.9498 46.7462 38.4434 45.2601 37.211C42.9285 34.3107 40.7582 31.2879 38.5167 28.3192C37.9197 27.7261 37.5432 26.947 37.4495 26.1108C38.3762 23.772 39.5633 21.545 40.9885 19.472C42.3718 16.705 44.0077 14.0716 45.8754 11.6055Z" fill="#00FF61"/>
<path d="M45.8709 11.6055C43.878 15.9439 41.1214 19.8541 38.8918 24.06C38.4997 24.7997 38.087 25.5285 37.6837 26.2623C37.5521 26.4086 37.3872 26.5212 37.2031 26.5908C37.0189 26.6603 36.8208 26.6847 36.6253 26.6619C32.3492 26.4749 28.1071 25.8128 23.9774 24.688C23.6169 24.3199 24.0519 24.2966 24.21 24.2045C31.4277 20.0003 38.648 15.8006 45.8709 11.6055Z" fill="#00DE61"/>
<path d="M28.7309 18.6765C27.2259 19.9678 25.3105 20.6812 23.3275 20.689C22.8204 20.6671 22.3145 20.7532 21.8431 20.9414C21.3717 21.1296 20.9457 21.4158 20.5931 21.7809C20.2406 22.146 19.9695 22.5818 19.7979 23.0595C19.6263 23.5371 19.5581 24.0458 19.5976 24.5518C19.5831 25.0577 19.6719 25.5612 19.8586 26.0316C20.0453 26.502 20.3259 26.9293 20.6833 27.2876C21.0407 27.6459 21.4675 27.9275 21.9374 28.1153C22.4073 28.303 22.9106 28.393 23.4165 28.3797C24.5679 28.2682 25.7204 28.5798 26.6586 29.2564C27.2268 29.6483 28.3188 29.8219 28.2574 30.4564C28.1751 31.3077 27.1057 31.5551 26.3372 31.8549C24.6297 32.5212 22.7431 32.5702 21.0034 31.9934C19.2636 31.4166 17.78 30.2502 16.8088 28.6958C15.8237 27.1103 15.4279 25.2288 15.6909 23.3808C15.9538 21.5328 16.8587 19.8363 18.247 18.5885C19.6929 17.2978 21.5677 16.5917 23.5059 16.6079C25.4441 16.6242 27.3068 17.3616 28.7309 18.6765Z" fill="#5D176A"/>
<path d="M23.9846 24.6895C27.857 25.1209 31.7293 25.5531 35.6016 25.9859C36.2997 26.0645 36.9948 26.17 37.6912 26.2634C39.9697 29.3675 42.2477 32.4719 44.5252 35.5766C44.8841 36.0667 45.5254 36.4378 45.2621 37.212C38.1119 33.1371 30.9318 29.1114 23.9846 24.6895Z" fill="#00964C"/>
</svg>
