<svg width="48" height="48" viewBox="0 0 48 48" fill="none" xmlns="http://www.w3.org/2000/svg">
<g clip-path="url(#clip0_3719_33951)">
<path d="M22.186 23.3034C22.2651 22.7448 22.5473 22.2329 22.9808 21.8615C23.4143 21.4902 23.97 21.2844 24.546 21.2819C24.9321 21.2636 25.3161 21.348 25.6572 21.5261L26.1377 18.8695C25.616 18.7134 25.076 18.6237 24.5309 18.6025C23.3366 18.611 22.184 19.0341 21.2783 19.7966C20.3726 20.559 19.7725 21.6114 19.5848 22.7664L18.4109 29.2705H21.1061L22.186 23.3034Z" fill="#9E44EC"/>
<path d="M19.8309 15.7532C19.0884 15.4829 18.3084 15.324 17.5174 15.2819C17.0688 15.2692 16.6213 15.3307 16.1938 15.464C15.2379 15.7548 14.3836 16.3004 13.7264 17.0396C13.0692 17.7789 12.6351 18.6826 12.4727 19.6497L10.9359 28.1379C10.8438 28.7818 10.5172 29.3715 10.0163 29.7983C9.51533 30.2251 8.87378 30.4603 8.20975 30.4607C7.80272 30.4625 7.40008 30.3782 7.02938 30.2136C6.65868 30.049 6.32867 29.808 6.0619 29.507C5.79512 29.206 5.59788 28.8521 5.48367 28.4695C5.36946 28.087 5.34097 27.6848 5.40015 27.2905L5.41155 27.2224C5.52054 26.5743 5.8617 25.9854 6.37387 25.5613C6.88604 25.1372 7.53573 24.9056 8.20649 24.908H10.5213L10.979 22.3793H8.41888C7.6266 22.395 6.84638 22.5723 6.12806 22.9C5.40973 23.2276 4.76909 23.6983 4.24703 24.2821C3.60761 24.9658 3.16762 25.8051 2.97307 26.7124C2.82636 27.5489 2.85402 28.4058 3.05442 29.2316C3.18757 29.8248 3.44065 30.3859 3.79872 30.8818C4.15679 31.3778 4.61262 31.7985 5.13934 32.1193C5.50954 32.3414 5.90433 32.5215 6.31608 32.6563C7.77031 33.1223 9.34748 33.0582 10.7573 32.4759C11.5413 32.0895 12.2184 31.5235 12.7311 30.8259C13.2438 30.1284 13.577 29.32 13.7023 28.4694L13.9152 27.2905L14.3469 24.908H16.8415L17.2993 22.3793H14.8058L15.1964 20.2179C15.2483 19.9119 15.3546 19.6173 15.5106 19.3473C15.7714 18.9035 16.1632 18.5473 16.6346 18.3256C17.106 18.1039 17.6349 18.027 18.1517 18.1051C18.5112 18.1586 18.8546 18.2878 19.1583 18.4836C19.2127 18.5185 19.2653 18.5561 19.3158 18.5963L19.8309 15.7532Z" fill="#9E44EC"/>
</g>
<g clip-path="url(#clip1_3719_33951)">
<path d="M34.3627 26.4458L34.1857 26.4933C28.2451 27.9797 28.5063 25.3841 28.5975 24.906H34.8282C34.8717 24.7343 35.089 23.5036 35.089 23.5036C35.2165 22.8514 35.2711 22.1876 35.2518 21.5238C35.2167 20.9587 34.9962 20.4198 34.6231 19.9872C34.5383 19.8827 34.4464 19.784 34.3481 19.6915C34.1303 19.4824 33.8856 19.302 33.6201 19.1549C32.9295 18.7817 32.1515 18.5911 31.3627 18.6019C30.6763 18.5765 29.9926 18.7004 29.3609 18.9646C28.7291 19.2289 28.1651 19.627 27.7093 20.1302C27.1262 20.8142 26.7219 21.6268 26.5313 22.498C26.5179 22.5522 26.5057 22.6063 26.4931 22.6613C26.4292 22.951 26.2143 23.9566 26.1199 24.8056C25.5124 30.0563 31.6504 29.5304 33.9286 28.8451L34.3627 26.4458ZM28.9946 22.9C28.9966 22.8426 29.0052 22.7857 29.0202 22.7302C29.2387 21.9533 29.7067 20.9226 31.2614 20.9226C31.5215 20.9039 31.7827 20.9402 32.0272 21.029C32.2717 21.1178 32.4939 21.2571 32.6786 21.4374C32.8053 21.6386 32.8864 21.8642 32.9163 22.0988C32.9462 22.3334 32.9242 22.5716 32.8519 22.7972L32.8287 22.8996L28.9946 22.9Z" fill="#9E44EC"/>
<path d="M22.186 23.3034C22.2651 22.7448 22.5473 22.2329 22.9808 21.8615C23.4143 21.4902 23.97 21.2844 24.546 21.2819C24.9321 21.2636 25.3161 21.348 25.6572 21.5261L26.1377 18.8695C25.616 18.7134 25.076 18.6237 24.5309 18.6025C23.3366 18.611 22.184 19.0341 21.2783 19.7966C20.3726 20.559 19.7725 21.6114 19.5848 22.7664L18.4109 29.2705H21.1061L22.186 23.3034Z" fill="#9E44EC"/>
<path d="M44.4376 19.8264C44.0151 19.4116 43.5066 19.0905 42.9463 18.885C42.3633 18.6705 41.7427 18.571 41.1202 18.5922C38.6459 18.669 36.9524 20.1368 36.4666 22.6221C36.3256 23.3671 36.2305 24.1198 36.1818 24.8759C36.1339 25.4525 36.211 26.0325 36.4081 26.5778C36.6052 27.1231 36.9179 27.6214 37.3255 28.0401C37.7654 28.4602 38.2889 28.787 38.8634 29.0003C39.4379 29.2136 40.0512 29.3088 40.6649 29.28C43.1253 29.2039 44.8151 27.7341 45.3034 25.25C45.4402 24.5069 45.5353 23.7571 45.5882 23.0038C45.6365 22.4249 45.5591 21.8425 45.3613 21.2949C45.1635 20.7473 44.8497 20.2469 44.4404 19.8264M43.0846 23.0361V23.0448C43.0619 23.3883 42.9715 24.2508 42.8772 24.7389C42.478 26.8106 41.1072 26.8537 40.6563 26.868C40.3865 26.8803 40.1169 26.8389 39.8639 26.7461C39.6109 26.6533 39.3798 26.5111 39.1846 26.3281C38.9991 26.1294 38.8591 25.894 38.7741 25.6379C38.6891 25.3818 38.6611 25.1109 38.6919 24.8433C38.7069 24.511 38.8086 23.6229 38.8953 23.1353C39.1692 21.7261 39.8779 21.0528 41.1275 21.0137C41.4039 20.9997 41.6804 21.0418 41.9394 21.1373C42.1985 21.2328 42.4346 21.3797 42.633 21.5687C42.8128 21.7663 42.9464 22.0001 43.0242 22.2535C43.102 22.507 43.1222 22.7741 43.0834 23.0361" fill="#9E44EC"/>
</g>
<defs>
<clipPath id="clip0_3719_33951">
<rect width="24" height="47" fill="white" transform="translate(0 1)"/>
</clipPath>
<clipPath id="clip1_3719_33951">
<rect width="24" height="47" fill="white" transform="translate(24 1)"/>
</clipPath>
</defs>
</svg>
