<svg width="48" height="48" viewBox="0 0 48 48" fill="none" xmlns="http://www.w3.org/2000/svg">
<g clip-path="url(#clip0_3719_33914)">
<path d="M23.9664 12.0021C29.3782 12.0019 34.79 12.0021 40.2018 12.0027C40.7056 11.972 41.2105 12.0445 41.6832 12.2153C42.1559 12.3861 42.5857 12.6514 42.9443 12.9938C43.3029 13.3362 43.5822 13.7478 43.7638 14.2016C43.9455 14.6554 44.0253 15.1412 43.9981 15.6268C44.0007 21.9247 44.0002 28.2226 43.9964 34.5204C43.9961 35.526 43.5597 35.9765 42.5052 35.9852C40.3406 36.0032 38.1759 36.0041 36.0111 35.988C34.8787 35.9789 34.4914 35.5842 34.4904 34.5018C34.486 29.6638 34.476 24.8256 34.5022 19.9877C34.5056 19.3702 34.3453 19.1474 33.6847 19.1503C27.992 19.1748 22.2991 19.1751 16.6063 19.1799C15.849 19.1805 15.0915 19.1746 14.3346 19.1537C13.7941 19.1387 13.5585 19.2801 13.5623 19.8895C13.591 24.6023 13.5749 29.3153 13.5709 34.0283C13.5777 34.2991 13.5686 34.5701 13.5436 34.84C13.543 35.126 13.4277 35.4006 13.2218 35.6066C13.016 35.8127 12.7354 35.934 12.4388 35.9454C12.2672 35.9617 12.0953 35.9882 11.9236 35.9885C9.84544 35.9913 7.7673 35.9953 5.6892 35.9879C4.44761 35.9834 4.00434 35.5515 4.00381 34.3682C4.00109 28.1538 3.99974 21.9394 3.99976 15.7249C4.00033 13.5636 5.31038 12.1534 7.53875 12.0716C9.89494 11.9851 12.2559 12.0114 14.6149 12.0046C17.732 11.9956 20.8492 12.0024 23.9664 12.0021Z" fill="#0197DD"/>
<path d="M20.1926 28.8335C20.1926 26.9565 20.193 25.0795 20.1939 23.2025C20.1955 22.4067 20.2602 22.3431 21.0856 22.3416C22.8391 22.3384 24.5928 22.3335 26.3462 22.3476C28.3608 22.3638 29.6241 23.5836 29.7364 25.5384C29.8343 26.2255 29.7055 26.925 29.3682 27.5378C29.0308 28.1505 28.502 28.6456 27.8565 28.9528C27.3967 29.1911 26.8746 29.2947 26.3544 29.2509C25.8238 29.2068 25.6436 29.3848 25.6563 29.9141C25.6914 31.3731 25.6684 32.8335 25.665 34.2934C25.6627 35.2782 25.3937 35.5617 24.368 35.5867C23.3727 35.6111 22.3764 35.6027 21.3806 35.5972C20.5229 35.5924 20.2017 35.286 20.1991 34.4644C20.1933 32.5875 20.1973 30.7105 20.1973 28.8335L20.1926 28.8335Z" fill="#0197DD"/>
</g>
<defs>
<clipPath id="clip0_3719_33914">
<rect width="40" height="24" fill="white" transform="translate(4 12)"/>
</clipPath>
</defs>
</svg>
