<svg width="48" height="48" viewBox="0 0 48 48" fill="none" xmlns="http://www.w3.org/2000/svg">
<path d="M3.10718 7.93623C6.801 7.93832 10.4957 7.89826 14.1877 7.98431C14.5292 8.00864 14.8621 8.1024 15.1664 8.2599C15.4707 8.4174 15.74 8.63536 15.958 8.90056C24.2852 20.9228 32.5801 32.9674 40.8427 45.0343C41.0956 45.4021 41.3082 45.7972 41.6804 46.4121C38.8632 46.4121 36.2484 46.4569 33.6385 46.3639C33.245 46.3498 32.7966 45.7449 32.505 45.3226C26.2909 36.326 20.0877 27.322 13.8953 18.3104C13.1521 17.1672 12.2899 16.1067 11.3233 15.1468C11.2877 15.5593 11.2214 15.9717 11.2211 16.3841C11.2158 24.6774 11.2161 32.9707 11.2221 41.264C11.2247 43.5921 11.789 44.1265 14.1552 44.1342C14.4741 44.151 14.7936 44.1493 15.1123 44.1292C16.0354 44.0241 16.4241 44.3551 16.4129 45.3419C16.402 46.3039 15.9575 46.4439 15.1398 46.4424C11.129 46.4355 7.11806 46.4762 3.10723 46.5001V44.0386C3.7413 44.0702 4.37533 44.1278 5.00945 44.1288C7.6069 44.1331 8.09657 43.6399 8.09876 41.0138C8.10388 35.509 8.10451 30.0043 8.10064 24.4995C8.10064 20.678 8.10942 16.8566 8.09905 13.0351C8.09291 10.7579 7.46766 10.1564 5.15559 10.1396L3.10718 10.1244V7.93623Z" fill="#E35115"/>
<path d="M44.8927 9.58767C44.3056 9.8907 43.9968 10.1813 43.6745 10.1965C39.4903 10.3942 39.4301 11.3223 38.938 15.1468C38.8914 15.6836 38.814 16.2173 38.7063 16.7455C38.589 17.0407 38.4313 17.3186 38.2377 17.5714C38.0251 17.2868 37.6795 17.025 37.6243 16.7133C37.4444 15.6982 37.398 14.661 37.2506 13.6392C36.8755 11.0375 36.4075 10.6367 33.6997 10.2713C33.0731 10.1868 32.027 10.6002 32.035 9.49028C32.0366 9.25111 33.0909 8.89779 33.6934 8.80502C36.5105 8.37132 36.8146 8.13037 37.3399 5.32851C37.5219 4.35806 37.5769 3.3644 37.7641 2.39523C37.8926 2.06829 38.0766 1.76551 38.3083 1.5C38.5035 1.8048 38.819 2.09068 38.872 2.4178C39.0443 3.48028 39.0955 4.56124 39.2389 5.62893C39.5434 7.89676 40.0083 8.36055 42.2818 8.73339C42.8217 8.82188 43.3746 8.84744 43.9048 8.97177C44.2589 9.13526 44.5908 9.34219 44.8927 9.58767Z" fill="#E35115"/>
</svg>
