<svg width="48" height="48" viewBox="0 0 48 48" fill="none" xmlns="http://www.w3.org/2000/svg">
<path d="M13.8744 17.1132C12.4164 13.072 13.9004 9.8224 14.9702 8.1871C16.4102 5.98578 18.6752 4.58394 20.4905 4.06037C20.495 6.77622 20.491 11.29 20.4894 12.6273C19.3591 12.9592 16.0593 14.1413 13.8744 17.1132ZM21.0302 1.51168C18.3181 2.40015 15.6733 4.35219 13.5896 6.99777C10.9572 10.1896 9.46355 14.0625 9.27083 18.2131L9.26914 18.2777C9.25953 18.4947 9.25388 18.7122 9.25218 18.927L9.25049 19.0964C9.25049 19.3112 9.25501 19.5248 9.26292 19.7384L9.26462 19.8075C9.55227 27.6055 14.6922 34.5427 22.057 37.0699L22.72 37.2971V23.7496L22.2729 23.7008C21.5394 23.621 20.8092 23.4583 20.1034 23.2187C17.9344 22.4798 16.0711 21.0213 14.825 19.0964C16.0756 17.1631 17.9474 15.7029 20.1271 14.9657C20.8239 14.73 21.5451 14.5708 22.2729 14.492L22.72 14.4433V0.895752L22.057 1.12297C21.7117 1.24083 21.3546 1.37625 21.0302 1.51168Z" fill="#AFE137"/>
<path d="M27.803 44.2328C27.7985 41.517 27.803 37.0032 27.8036 35.666C28.9344 35.3339 32.2348 34.1519 34.418 31.1805C35.8782 35.2211 34.3931 38.4702 33.3233 40.1066C31.885 42.3069 29.6188 43.7087 27.803 44.2328ZM39.0317 28.5559L39.0284 28.4851C38.7424 20.6883 33.6024 13.751 26.237 11.2233L25.5747 10.9961V24.5442L26.0217 24.5924C26.7552 24.6722 27.4848 24.8343 28.1901 25.074C30.3591 25.8135 32.2224 27.2714 33.4685 29.1968C32.2179 31.1307 30.3461 32.5909 28.167 33.3275C27.4701 33.5632 26.7491 33.7224 26.0217 33.8018L25.5747 33.85V47.3986L26.237 47.1708C26.5959 47.0467 26.9497 46.9124 27.2639 46.7821C29.9765 45.8925 32.6214 43.9399 34.7039 41.2949C37.3369 38.1036 38.83 34.2307 39.0233 30.0756L39.0238 30.015C39.034 29.7969 39.0402 29.5804 39.0419 29.3373L39.0436 29.1968C39.0436 28.9826 39.039 28.7684 39.0317 28.5559Z" fill="#AFE137"/>
</svg>
