<svg width="80" height="80" viewBox="0 0 80 80" fill="none" xmlns="http://www.w3.org/2000/svg">
<path fill-rule="evenodd" clip-rule="evenodd" d="M46.1422 11.3457C38.9283 11.3457 33.1106 17.1344 33.1106 24.3124C33.1106 31.4904 38.9283 37.2791 46.1422 37.2791C53.3561 37.2791 59.1737 31.4904 59.1737 24.3124C59.1737 17.1344 53.3561 11.3457 46.1422 11.3457Z" fill="#E0881E"/>
<path d="M46.0255 13.7769C40.0915 13.7769 35.5537 18.2921 35.5537 24.3123C35.5537 30.3326 40.0915 34.8478 46.0255 34.8478C51.9595 34.8478 49.6324 34.2689 50.6796 33.8058C51.3777 33.4585 51.6104 32.6481 51.2614 32.0692C50.9123 31.4903 50.3306 31.3745 49.7488 31.6061C48.9343 31.9534 47.6544 32.3007 46.1419 32.3007C41.7204 32.3007 38.2298 28.9433 38.2298 24.3123C38.2298 19.6813 41.6041 16.3239 46.1419 16.3239C50.6796 16.3239 54.1702 19.6813 54.1702 23.965C54.1702 28.2486 53.2394 27.2067 52.4249 27.2067C51.6104 27.2067 50.796 26.6278 50.796 24.7754V20.1444C50.796 19.4498 50.2142 18.8709 49.5161 18.8709C48.818 18.8709 48.2362 19.4498 48.2362 20.1444V20.376C48.0035 19.9129 46.9563 18.8709 45.4437 18.8709C43.0003 18.8709 40.7896 20.8391 40.7896 24.3123C40.7896 27.7855 43.0003 29.7537 45.5601 29.7537C48.1199 29.7537 48.4689 28.596 48.9343 27.9013H49.0507C49.3997 28.596 50.4469 29.7537 52.4249 29.7537C54.4029 29.7537 56.8463 27.9013 56.8463 23.965C56.8463 18.2921 52.3086 13.7769 46.2582 13.7769H46.0255ZM45.6764 27.0909C44.3965 27.0909 43.3494 26.0489 43.3494 24.3123C43.3494 22.5757 44.3965 21.5337 45.6764 21.5337C46.9563 21.5337 48.0035 22.5757 48.0035 24.3123C48.0035 26.0489 46.9563 27.0909 45.6764 27.0909Z" fill="white"/>
<path fill-rule="evenodd" clip-rule="evenodd" d="M61.733 9.60922C63.1293 8.68302 64.9909 9.03035 65.9217 10.3039C68.5979 14.2402 70.2268 18.9869 70.2268 24.081C70.2268 29.1751 68.5979 33.9218 65.9217 37.8581C64.9909 39.2474 63.1293 39.5947 61.733 38.5528C60.3368 37.6266 59.9877 35.7742 61.0349 34.3849C63.1293 31.4906 64.2928 27.9015 64.2928 24.081C64.2928 20.2604 63.1293 16.6714 61.0349 13.7771C60.1041 12.3878 60.4531 10.5354 61.733 9.60922Z" fill="#E0881E"/>
<path d="M49.167 42.1418H46.0255C35.7864 42.1418 27.6417 34.0376 27.6417 24.081C27.6417 14.1245 35.9028 6.13604 46.2582 6.02026C48.7016 6.02026 51.0287 6.48336 53.123 7.40955C54.6356 7.98842 56.3809 7.40955 57.079 5.78871C57.6608 4.28365 57.079 2.54703 55.4501 1.85239C52.6576 0.694646 49.6324 0.115774 46.3745 0H46.2582H12.9812C9.14154 0 6 3.1259 6 6.94645V42.026V73.0535C6 76.8741 9.14154 80 12.9812 80H49.167C59.7552 80 68.2489 71.4327 68.2489 61.013C68.2489 50.5933 59.6388 42.026 49.167 42.026V42.1418Z" fill="#E0881E"/>
</svg>
