<svg width="80" height="80" viewBox="0 0 80 80" fill="none" xmlns="http://www.w3.org/2000/svg">
<path fill-rule="evenodd" clip-rule="evenodd" d="M46.1422 11.3457C38.9283 11.3457 33.1106 17.1344 33.1106 24.3124C33.1106 31.4904 38.9283 37.2791 46.1422 37.2791C53.3561 37.2791 59.1737 31.4904 59.1737 24.3124C59.1737 17.1344 53.3561 11.3457 46.1422 11.3457Z" fill="#94C358"/>
<path fill-rule="evenodd" clip-rule="evenodd" d="M61.7331 9.60922C63.1294 8.68302 64.991 9.03035 65.9219 10.3039C68.598 14.2402 70.2269 18.9869 70.2269 24.081C70.2269 29.1751 68.598 33.9218 65.9219 37.8581C64.991 39.2474 63.1294 39.5947 61.7331 38.5528C60.3369 37.6266 59.9878 35.7742 61.035 34.3849C63.1294 31.4905 64.2929 27.9015 64.2929 24.081C64.2929 20.2604 63.1294 16.6714 61.035 13.7771C60.1042 12.3878 60.4533 10.5354 61.7331 9.60922Z" fill="#94C358"/>
<path d="M49.1671 42.1418H46.0255C35.7864 42.1418 27.6417 34.0376 27.6417 24.081C27.6417 14.1245 35.9028 6.13604 46.2582 6.02026C48.7017 6.02026 51.0287 6.48336 53.1231 7.40955C54.6357 7.98842 56.381 7.40955 57.0791 5.78871C57.6609 4.28365 57.0791 2.54703 55.4502 1.85239C52.6577 0.694646 49.6325 0.115774 46.3746 0H46.2582H12.9812C9.14154 0 6 3.1259 6 6.94645V42.026V73.0535C6 76.8741 9.14154 80 12.9812 80H49.1671C59.7552 80 68.249 71.4327 68.249 61.013C68.249 50.5933 59.6389 42.026 49.1671 42.026V42.1418Z" fill="#94C358"/>
<path fill-rule="evenodd" clip-rule="evenodd" d="M48.1194 34.8483C48.003 34.8483 47.7703 34.8483 47.7703 34.8483L46.7231 33.8063L40.5564 27.6703C40.5564 27.6703 40.44 27.5545 40.44 27.4387C40.44 27.4387 40.44 27.323 40.44 27.2072C40.44 26.9756 40.44 26.8599 40.44 26.8599C40.44 26.8599 40.44 26.6283 40.5564 26.6283C40.5564 26.6283 40.5564 26.6283 40.7891 26.6283H41.0218H43.5816C44.8615 26.6283 46.025 25.7021 46.2577 24.5444H40.9054C40.5564 24.5444 40.091 24.1971 40.091 23.8497C40.091 23.8497 40.091 23.8497 40.091 23.734C40.091 23.734 40.091 23.6182 40.091 23.5024C40.091 23.1551 40.5564 22.8078 40.9054 22.8078H46.2577C45.9086 21.65 44.8615 20.7238 43.5816 20.7238H41.0218C40.5564 20.7238 40.2073 20.3765 40.2073 19.9134C40.2073 19.4503 40.5564 19.103 41.0218 19.103H50.9118C51.3772 19.103 51.7263 19.4503 51.8427 19.9134C51.8427 20.3765 51.4936 20.8396 51.0282 20.8396H47.0722C47.5376 21.4185 47.8866 22.1131 48.003 22.9235H50.9118C51.3772 22.9235 51.7263 23.2709 51.7263 23.734C51.7263 24.1971 51.3772 24.5444 50.9118 24.5444H48.003C47.6539 26.7441 45.7923 28.3649 43.5816 28.3649H43.1162L48.4684 33.6905C52.3081 32.7644 55.1006 29.4069 55.3333 25.3548C55.4496 22.9235 54.6351 20.4923 53.0062 18.6399C51.3772 16.7875 49.0502 15.7455 46.6068 15.514C44.1633 15.3982 41.7199 16.2086 39.8583 17.8295C37.9966 19.4503 36.9494 21.7658 36.7167 24.1971C36.6004 27.0914 37.6476 29.7542 39.8583 31.7224C39.8583 31.7224 39.8583 31.7224 39.9746 31.8382L40.44 31.3751C40.5564 31.1435 40.9055 31.3751 41.0218 31.4908L41.8363 34.0379C41.8363 34.2694 41.7199 34.501 41.4872 34.501L38.9274 33.9221C38.6947 33.9221 38.5784 33.5748 38.8111 33.3432L39.1602 32.9959C36.6004 30.7962 35.2041 27.5545 35.4368 24.1971C35.5532 21.3027 36.9494 18.7557 39.0438 16.7875C41.2545 14.9351 43.9306 13.8932 46.8395 14.1247C49.7483 14.2405 52.3081 15.6298 54.2861 17.7137C56.1477 19.9134 57.0786 22.5762 56.9622 25.4706C56.6131 30.3331 53.0062 34.3852 48.2357 35.3114L48.1194 34.8483Z" fill="white"/>
<path d="M47.6545 35.1957L46.6074 34.038L40.3243 27.7862C40.3243 27.7862 40.3243 27.6704 40.2079 27.5546C40.2079 27.3231 40.2079 27.2073 40.2079 27.0915C40.2079 26.86 40.2079 26.7442 40.2079 26.6284C40.2079 26.5126 40.2079 26.3969 40.4406 26.2811C40.4406 26.2811 40.4406 26.2811 40.557 26.1653C40.557 26.1653 40.6733 26.0496 40.7897 26.0496C40.9061 26.0496 41.0224 25.9338 41.1388 25.9338H43.6985C44.7457 25.9338 45.5602 25.3549 46.0256 24.4287H41.1388C40.557 24.4287 40.0916 24.0814 39.9752 23.5025C39.9752 23.3867 39.9752 23.271 39.9752 23.271C39.9752 23.271 39.9752 23.271 39.9752 23.1552C40.0916 22.4606 40.557 22.1132 41.1388 22.1132H46.0256C45.6765 21.187 44.7457 20.6082 43.6985 20.6082H41.1388C40.4406 20.6082 39.9752 20.1451 39.9752 19.4504C39.9752 18.7558 40.557 18.2927 41.1388 18.2927H51.0288C51.6106 18.2927 52.1923 18.7558 52.1923 19.3346C52.1923 19.682 52.1923 19.9135 51.8433 20.1451C51.6106 20.3766 51.2615 20.4924 51.0288 20.4924H47.6545C48.0036 20.9555 48.12 21.5344 48.2363 21.9975H50.9124C51.6106 21.9975 52.076 22.4606 52.076 23.1552C52.076 23.8498 51.6106 24.3129 50.9124 24.3129H48.2363C47.7709 26.5126 45.9092 28.0177 43.6985 28.1335L48.3527 32.7645C51.9596 31.7225 54.6357 28.5966 54.8684 24.776C54.9848 22.4606 54.2867 20.1451 52.6577 18.2927C51.0288 16.5561 48.9344 15.3983 46.491 15.2825C44.164 15.1668 41.8369 15.9772 39.9752 17.4823C38.2299 19.1031 37.0664 21.187 36.95 23.6183C36.8337 26.3969 37.8809 28.9439 39.8589 30.7963L40.0916 30.5648C40.2079 30.449 40.4406 30.3332 40.6734 30.3332C40.9061 30.3332 41.0224 30.5647 41.1388 30.7963L41.9532 33.3433C41.9532 33.5749 41.9532 33.8064 41.8369 33.9222C41.7205 34.038 41.4878 34.1538 41.2551 34.1538L38.6953 33.5749C38.4626 33.5749 38.3463 33.3433 38.2299 33.1118C38.2299 32.8802 38.2299 32.6487 38.3463 32.5329V32.3014C36.0192 30.1017 34.7393 26.86 34.8557 23.5025C35.0884 20.6082 36.3683 17.9454 38.579 15.9772C40.7897 14.009 43.6985 13.0828 46.6074 13.1986C49.5162 13.4302 52.1923 14.7037 54.1703 16.9034C56.1483 19.1031 57.0792 21.8817 56.9628 24.8918C56.6138 29.8701 53.0068 34.038 48.0036 34.9642C47.8873 34.9642 47.5382 34.9642 47.5382 34.9642H47.4218L47.6545 35.1957ZM40.7897 27.5546L47.7709 34.6168C47.7709 34.6168 47.8873 34.6168 48.0036 34.6168C52.7741 33.6907 56.2647 29.7543 56.4974 25.0076C56.6138 22.229 55.7993 19.5662 53.9376 17.4823C52.076 15.3983 49.5162 14.1248 46.7237 14.009C43.9312 13.7775 41.2551 14.7037 39.1608 16.5561C37.0664 18.4085 35.7865 20.9555 35.6702 23.7341C35.4374 26.9757 36.8337 30.2174 39.2771 32.3014L39.5098 32.5329L38.9281 33.1118L41.4878 33.8064L40.7897 31.2594L40.0916 31.954L39.7425 31.6067C37.5318 29.6386 36.3683 26.86 36.4846 23.8498C36.601 21.3028 37.7645 18.9873 39.7425 17.3665C41.6042 15.6299 44.1639 14.8195 46.6074 14.9352C49.1671 15.051 51.4942 16.2087 53.1232 18.1769C54.8685 20.1451 55.6829 22.5763 55.4502 25.0076C55.2175 29.0597 52.3087 32.5329 48.3527 33.5749H48.2363L42.3023 27.6704H43.4658C45.5602 27.6704 47.3055 26.1653 47.6545 24.0814V23.8498H50.9124C51.2615 23.8498 51.4942 23.6183 51.4942 23.271C51.4942 22.9236 51.2615 22.6921 50.9124 22.6921H47.6545V22.4606C47.5382 21.7659 47.1891 21.0713 46.7237 20.4924L46.3747 20.0293H50.9124C51.0288 20.0293 51.2615 20.0293 51.3779 19.7977C51.3779 19.7977 51.4942 19.5662 51.4942 19.3346C51.4942 19.1031 51.1451 18.7558 50.9124 18.7558H41.0224C40.6734 18.7558 40.4406 18.9873 40.4406 19.3346C40.4406 19.682 40.6734 19.9135 41.0224 19.9135H43.5822C44.9784 19.9135 46.2583 20.8397 46.6074 22.229V22.5763H41.0224C40.7897 22.5763 40.557 22.8079 40.4406 23.0394C40.4406 23.1552 40.4406 23.271 40.4406 23.271C40.4406 23.5025 40.7897 23.7341 41.0224 23.7341H46.7237V24.0814C46.2583 25.4707 44.9784 26.3969 43.5822 26.3969H41.0224C41.0224 26.3969 41.0224 26.3969 40.9061 26.3969V26.5127C40.9061 26.5127 40.9061 26.5126 40.9061 26.6284V26.9757C40.9061 26.9757 40.9061 26.9757 41.0224 27.0915L40.7897 27.5546Z" fill="white"/>
</svg>
