<svg width="68" height="68" viewBox="0 0 68 68" fill="none" xmlns="http://www.w3.org/2000/svg">
<path d="M57.5908 8.5L10.4089 8.5C9.35454 8.5 8.49984 9.35015 8.49984 10.3989L6.375 60.5625C6.375 61.6112 7.2297 62.4614 8.28403 62.4614H54.5C55.5543 62.4614 56.409 61.6112 56.409 60.5625L59.4998 10.3989C59.4998 9.35015 58.6452 8.5 57.5908 8.5Z" fill="black" fill-opacity="0.7"/>
<path d="M57.591 8.5H10.409C9.3547 8.5 8.5 9.35015 8.5 10.3989V57.6011C8.5 58.6499 9.3547 59.5 10.409 59.5H57.591C58.6453 59.5 59.5 58.6499 59.5 57.6011V10.3989C59.5 9.35015 58.6453 8.5 57.591 8.5Z" fill="#FFFAF0"/>
<path d="M58.25 9.75V58.25H9.75V9.75H58.25ZM10.25 57.75H57.75V10.25H10.25V57.75Z" fill="#FFEDCE"/>
<path d="M14.25 10V58H13.75V10H14.25Z" fill="#FFEDCE"/>
<path d="M18.25 10V58H17.75V10H18.25Z" fill="#FFEDCE"/>
<path d="M22.25 10V58H21.75V10H22.25Z" fill="#FFEDCE"/>
<path d="M26.25 10V58H25.75V10H26.25Z" fill="#FFEDCE"/>
<path d="M30.25 10V58H29.75V10H30.25Z" fill="#FFEDCE"/>
<path d="M34.25 10V58H33.75V10H34.25Z" fill="#FFEDCE"/>
<path d="M38.25 10V58H37.75V10H38.25Z" fill="#FFEDCE"/>
<path d="M42.25 10V58H41.75V10H42.25Z" fill="#FFEDCE"/>
<path d="M46.25 10V58H45.75V10H46.25Z" fill="#FFEDCE"/>
<path d="M50.25 10V58H49.75V10H50.25Z" fill="#FFEDCE"/>
<path d="M54.25 10V58H53.75V10H54.25Z" fill="#FFEDCE"/>
<path d="M58 14.25L10 14.25L10 13.75L58 13.75L58 14.25Z" fill="#FFEDCE"/>
<path d="M58 18.25L10 18.25L10 17.75L58 17.75L58 18.25Z" fill="#FFEDCE"/>
<path d="M58 22.25L10 22.25L10 21.75L58 21.75L58 22.25Z" fill="#FFEDCE"/>
<path d="M58 26.25L10 26.25L10 25.75L58 25.75L58 26.25Z" fill="#FFEDCE"/>
<path d="M58 30.25L10 30.25L10 29.75L58 29.75L58 30.25Z" fill="#FFEDCE"/>
<path d="M58 34.25L10 34.25L10 33.75L58 33.75L58 34.25Z" fill="#FFEDCE"/>
<path d="M58 38.25L10 38.25L10 37.75L58 37.75L58 38.25Z" fill="#FFEDCE"/>
<path d="M58 42.25L10 42.25L10 41.75L58 41.75L58 42.25Z" fill="#FFEDCE"/>
<path d="M58 46.25L10 46.25L10 45.75L58 45.75L58 46.25Z" fill="#FFEDCE"/>
<path d="M58 50.25L10 50.25L10 49.75L58 49.75L58 50.25Z" fill="#FFEDCE"/>
<path d="M58 54.25L10 54.25L10 53.75L58 53.75L58 54.25Z" fill="#FFEDCE"/>
<path d="M26.3092 20.1665C26.1973 18.8941 27.2351 18.1778 28.5 18L51.0472 16.1213C52.4695 15.9214 53.7478 17.0068 53.7812 18.4426L55.5001 27.5C55.5284 28.7176 54.6404 29.7634 53.4343 29.9329L29.7011 33.6659C28.3398 33.8572 27.0962 32.8684 26.9758 31.499L26.3092 20.1665Z" fill="black" fill-opacity="0.7"/>
<g clip-path="url(#clip0_678_30139)">
<path d="M28.046 32.5479L26.0415 18.285L41.6868 26.117L54.5673 14.276L56.5718 28.5389L28.046 32.5479Z" fill="#D18A1A"/>
<path d="M56.5718 28.5388L28.046 32.5479L41.5 23L56.5718 28.5388Z" fill="#FCA71F"/>
<path d="M26.0416 18.2851L54.5674 14.2761L44.1245 23.8762C41.5 26 42.0001 26 38.7262 24.6349L26.0416 18.2851Z" fill="#FFC363"/>
<path fill-rule="evenodd" clip-rule="evenodd" d="M40.7381 19.9723C40.1965 20.0908 39.8536 20.6259 39.9721 21.1675C40.0906 21.709 40.6256 22.052 41.1672 21.9335C41.7088 21.815 42.0518 21.2799 41.9333 20.7383C41.8148 20.1968 41.2797 19.8538 40.7381 19.9723ZM39.4818 21.2747C39.304 20.4624 39.8185 19.6597 40.6308 19.482C41.4432 19.3042 42.2458 19.8187 42.4236 20.6311C42.6013 21.4434 42.0869 22.2461 41.2745 22.4238C40.4621 22.6016 39.6595 22.0871 39.4818 21.2747Z" fill="#D18A1A"/>
<path fill-rule="evenodd" clip-rule="evenodd" d="M41.44 18.2358C40.9026 18.1396 40.3487 18.2048 39.8483 18.4233C39.348 18.6418 38.9237 19.0038 38.6291 19.4634C38.3345 19.9231 38.1828 20.4598 38.1932 21.0056C38.2036 21.5515 38.3756 22.082 38.6875 22.5301C38.9995 22.9782 39.4373 23.3238 39.9456 23.523C40.4539 23.7223 41.0098 23.7664 41.5432 23.6497C42.1024 23.5274 42.6653 23.2268 43.0252 22.8546C43.1216 22.755 43.2805 22.7523 43.3801 22.8487C43.4797 22.9451 43.4823 23.1039 43.386 23.2036C42.9493 23.655 42.2944 23.9991 41.6505 24.14C41.0201 24.2779 40.3631 24.2258 39.7624 23.9903C39.1616 23.7548 38.6442 23.3464 38.2756 22.8169C37.907 22.2873 37.7037 21.6603 37.6914 21.0152C37.6791 20.3701 37.8583 19.7358 38.2065 19.1926C38.5547 18.6494 39.0562 18.2216 39.6475 17.9633C40.2388 17.7051 40.8934 17.628 41.5285 17.7418C42.1636 17.8556 42.7507 18.1552 43.2156 18.6027C43.6805 19.0501 44.0022 19.6254 44.1401 20.2557C44.2193 20.6176 44.2332 20.9899 44.1219 21.3035C44.0048 21.6339 43.7534 21.8817 43.3588 21.968C42.9641 22.0544 42.6322 21.9342 42.3879 21.683C42.1558 21.4444 42.0129 21.1003 41.9338 20.7385L41.6656 19.5127C41.6359 19.3773 41.7217 19.2436 41.8571 19.2139C41.9925 19.1843 42.1262 19.27 42.1559 19.4054L42.4241 20.6312C42.493 20.9463 42.6068 21.1882 42.7476 21.333C42.8761 21.4651 43.0333 21.5255 43.2515 21.4777C43.4697 21.43 43.5873 21.3095 43.6489 21.1358C43.7164 20.9454 43.7188 20.6781 43.6498 20.363C43.5331 19.8297 43.2609 19.3429 42.8675 18.9643C42.4742 18.5856 41.9774 18.3321 41.44 18.2358Z" fill="#D18A1A"/>
</g>
<path d="M29 52C29 52.5523 27.2091 53 25 53C22.7909 53 21 52.5523 21 52C21 51.4477 22.7909 51 25 51C27.2091 51 29 51.4477 29 52Z" fill="#4D4B48"/>
<path d="M10.7891 29.8663C10.8629 29.7499 11.0172 29.7154 11.1338 29.7892C13.7886 31.4683 17.6661 34.5867 20.6846 38.4972C23.7001 42.4039 25.888 47.1414 25.081 52.0411C25.0584 52.1771 24.93 52.2696 24.7939 52.2472C24.6577 52.2248 24.5654 52.0953 24.5879 51.9591C25.3618 47.2591 23.2684 42.6627 20.2891 38.8029C17.3127 34.9469 13.4817 31.8653 10.8662 30.2111C10.7497 30.1372 10.7153 29.9829 10.7891 29.8663Z" fill="#4D4B48"/>
<path d="M25.2406 51.3048C25.1359 51.3202 25.0618 51.4319 25.0748 51.555C25.0904 51.703 25.1085 51.8517 25.1293 52L25.5065 51.9263C25.4865 51.7839 25.4692 51.6417 25.4542 51.4997C25.4412 51.3765 25.3454 51.2895 25.2406 51.3048ZM25.2018 49.552C25.0964 49.5483 25.008 49.645 25.0046 49.7688C24.9968 50.0657 24.999 50.3642 25.0106 50.6632C25.0154 50.7872 25.1045 50.8839 25.21 50.8783C25.3155 50.8726 25.397 50.767 25.3922 50.643C25.3811 50.3556 25.3795 50.0686 25.387 49.7828C25.3901 49.6589 25.3072 49.5558 25.2018 49.552ZM25.3832 47.8106C25.2793 47.7892 25.1804 47.8709 25.1622 47.9932C25.1184 48.2864 25.0825 48.5816 25.0561 48.8779C25.0454 49.001 25.1217 49.1115 25.2264 49.1245C25.3314 49.1374 25.4259 49.0478 25.437 48.9244C25.4624 48.6388 25.4963 48.3537 25.5386 48.0704C25.5567 47.9482 25.4872 47.832 25.3832 47.8106ZM25.7589 46.1122C25.6581 46.0757 25.5511 46.1421 25.5199 46.2605C25.4451 46.5449 25.3773 46.8317 25.3175 47.1198C25.2927 47.2402 25.3556 47.3615 25.4579 47.391C25.5605 47.4204 25.6644 47.3466 25.6894 47.226C25.7473 46.947 25.8125 46.669 25.8851 46.393C25.9161 46.2746 25.8597 46.1488 25.7589 46.1122ZM26.2981 44.4761C26.2012 44.4268 26.0884 44.479 26.0464 44.5928C25.946 44.8655 25.8518 45.1408 25.7641 45.4179C25.7273 45.5342 25.7779 45.6634 25.8769 45.7067C25.9758 45.7498 26.0857 45.6912 26.1226 45.575C26.2079 45.3055 26.2996 45.0376 26.3974 44.7719C26.4393 44.658 26.3949 44.5254 26.2981 44.4761ZM26.971 42.9093C26.8784 42.8498 26.7625 42.89 26.7118 42.9989C26.5908 43.2588 26.4745 43.5213 26.3638 43.7862C26.3173 43.8976 26.3564 44.0326 26.4512 44.0872C26.5459 44.1417 26.6601 44.0958 26.7066 43.9846C26.8147 43.7258 26.9287 43.4692 27.0471 43.2148C27.0978 43.1059 27.0636 42.9689 26.971 42.9093ZM27.7536 41.4146C27.6653 41.3466 27.5464 41.3749 27.4885 41.4786C27.3507 41.726 27.217 41.9771 27.0875 42.23C27.0333 42.3362 27.0622 42.4741 27.1524 42.538C27.2429 42.602 27.3608 42.5678 27.4153 42.4617C27.5422 42.2139 27.6736 41.9681 27.8089 41.7253C27.8666 41.6215 27.8418 41.4826 27.7536 41.4146ZM28.6259 39.9891C28.5418 39.9143 28.4216 39.9334 28.3578 40.0321C28.2064 40.2672 28.0577 40.5055 27.9127 40.7466C27.8518 40.8479 27.8728 40.9883 27.959 41.0599C28.0451 41.1313 28.1639 41.1074 28.2249 41.0064C28.3673 40.7694 28.5135 40.5346 28.6625 40.3033C28.7261 40.2045 28.7099 40.064 28.6259 39.9891ZM29.5721 38.6313C29.4919 38.5505 29.3712 38.5616 29.3025 38.6558C29.14 38.8789 28.9794 39.1053 28.8216 39.3352C28.7554 39.4316 28.7681 39.5732 28.85 39.6512C28.9321 39.7291 29.0525 39.7142 29.1188 39.6178C29.2743 39.3914 29.4328 39.1681 29.593 38.9481C29.6617 38.8539 29.6523 38.712 29.5721 38.6313ZM30.5818 37.3375C30.5054 37.2519 30.3843 37.2556 30.3115 37.3454C30.1396 37.5571 29.9689 37.7728 29.7999 37.9923C29.7291 38.0843 29.7351 38.2267 29.8134 38.31C29.8916 38.3929 30.0121 38.3858 30.083 38.2942C30.2497 38.0777 30.4181 37.8642 30.5878 37.6552C30.6607 37.5654 30.6582 37.4231 30.5818 37.3375ZM31.6468 36.106C31.5741 36.0161 31.453 36.012 31.3764 36.0973C31.1964 36.2981 31.0164 36.5036 30.8372 36.7134C30.7626 36.8009 30.7623 36.9432 30.8365 37.0312C30.911 37.119 31.032 37.1194 31.1068 37.032C31.2837 36.8249 31.4616 36.6221 31.6393 36.4238C31.7159 36.3384 31.7193 36.196 31.6468 36.106ZM32.761 34.9351C32.6921 34.8413 32.5714 34.8306 32.4914 34.9114C32.3045 35.1011 32.116 35.2966 31.9276 35.4969C31.8497 35.5801 31.8437 35.7218 31.9142 35.8137C31.9849 35.9057 32.1062 35.9135 32.1845 35.8304C32.3706 35.6325 32.5562 35.4393 32.7409 35.252C32.8208 35.171 32.8299 35.0291 32.761 34.9351ZM33.9186 33.8292C33.8535 33.7316 33.7336 33.715 33.6505 33.7915C33.4581 33.9686 33.2627 34.1522 33.0658 34.3427C32.9842 34.4215 32.9725 34.5637 33.0396 34.6595C33.1067 34.755 33.227 34.7688 33.3085 34.6902C33.503 34.5021 33.6958 34.3201 33.8858 34.1452C33.9689 34.0686 33.9837 33.9269 33.9186 33.8292ZM35.1255 32.79C35.0648 32.6884 34.9453 32.6642 34.8589 32.7355C34.6607 32.8991 34.4572 33.0718 34.2495 33.2534C34.1648 33.3274 34.147 33.4681 34.2099 33.5676C34.2728 33.6671 34.3925 33.688 34.4772 33.6141C34.6822 33.435 34.8831 33.2645 35.0784 33.1033C35.1648 33.032 35.1862 32.8915 35.1255 32.79ZM35.481 32.2379C35.3927 32.306 35.3684 32.4458 35.4264 32.5495C35.4845 32.653 35.6026 32.6816 35.6908 32.6135C35.7961 32.5322 35.8994 32.454 36 32.3792L35.7954 32C35.6929 32.0762 35.5879 32.1553 35.481 32.2379Z" fill="#4D4B48"/>
<defs>
<clipPath id="clip0_678_30139">
<rect x="26.0415" y="18.285" width="28.8062" height="14.4031" rx="2" transform="rotate(-8 26.0415 18.285)" fill="white"/>
</clipPath>
</defs>
</svg>
