<svg width="68" height="68" viewBox="0 0 68 68" fill="none" xmlns="http://www.w3.org/2000/svg">
<path d="M59 10.5H12.409C11.3547 10.5 10.5 11.3502 10.5 12.3989L10.591 59.6011C10.591 60.6499 11.4457 61.5 12.5 61.5H59.591C60.6453 61.5 61.5 60.6499 61.5 59.6011L61 12.5C61 11.4513 60.0543 10.5 59 10.5Z" fill="black" fill-opacity="0.7"/>
<path d="M57.591 8.5H10.409C9.3547 8.5 8.5 9.35015 8.5 10.3989V57.6011C8.5 58.6499 9.3547 59.5 10.409 59.5H57.591C58.6453 59.5 59.5 58.6499 59.5 57.6011V10.3989C59.5 9.35015 58.6453 8.5 57.591 8.5Z" fill="#FFFDFA"/>
<path d="M52.6927 14.7785C52.6662 14.7785 52.6416 14.7747 52.6189 14.7672C52.5469 14.752 52.4958 14.7085 52.4655 14.6365C52.4428 14.5721 52.4485 14.5002 52.4826 14.4207C52.5204 14.3412 52.5697 14.2522 52.6302 14.1537C52.653 14.1196 52.6738 14.0856 52.6927 14.0515C52.7154 14.0136 52.7344 13.9795 52.7495 13.9492C52.7571 13.9379 52.7628 13.9284 52.7666 13.9208C52.7704 13.9095 52.7741 13.9 52.7779 13.8924C52.6643 13.8735 52.5318 13.8697 52.3803 13.8811C52.2326 13.8886 52.066 13.917 51.8805 13.9663C51.7177 14.0079 51.5416 14.0628 51.3522 14.131C51.1667 14.1954 50.9698 14.273 50.7615 14.3639C50.7199 14.379 50.6782 14.379 50.6366 14.3639C50.5949 14.3487 50.5646 14.3203 50.5457 14.2787C50.523 14.237 50.5211 14.1935 50.54 14.148C50.5589 14.0988 50.5892 14.0666 50.6309 14.0515C50.8429 13.9568 51.0455 13.8754 51.2386 13.8072C51.4356 13.7353 51.6211 13.6785 51.7953 13.6368C52.261 13.5194 52.6416 13.5005 52.937 13.58C53.0241 13.6028 53.0846 13.6558 53.1187 13.7391C53.1528 13.8224 53.1452 13.9152 53.096 14.0174C53.0468 14.1196 52.9881 14.2257 52.9199 14.3355C52.9161 14.343 52.9105 14.3525 52.9029 14.3639C52.8953 14.3752 52.8877 14.3885 52.8802 14.4036C52.9673 14.3847 53.096 14.3468 53.2664 14.29C53.4368 14.2332 53.6716 14.1499 53.9707 14.0401C54.0124 14.025 54.054 14.0288 54.0957 14.0515C54.1411 14.0704 54.1714 14.1026 54.1866 14.148C54.2055 14.1897 54.2055 14.2332 54.1866 14.2787C54.1676 14.3203 54.1336 14.3506 54.0843 14.3696C53.9101 14.4301 53.7511 14.485 53.6072 14.5343C53.4633 14.5835 53.3346 14.6252 53.221 14.6592C53.0695 14.7047 52.954 14.7369 52.8745 14.7558C52.795 14.7709 52.7344 14.7785 52.6927 14.7785Z" fill="black"/>
<path d="M49.7862 14.8353C49.7408 14.8353 49.7029 14.822 49.6726 14.7955C49.612 14.7463 49.595 14.6838 49.6215 14.6081C49.6215 14.6043 49.6348 14.5588 49.6613 14.4717C49.6916 14.3846 49.7256 14.2862 49.7635 14.1764C49.7824 14.112 49.7995 14.0571 49.8146 14.0117C49.8298 13.9624 49.843 13.9189 49.8544 13.881C49.7522 13.9189 49.6272 13.9662 49.4795 14.023C49.3318 14.076 49.1766 14.1328 49.0137 14.1934C48.8547 14.254 48.6995 14.3127 48.548 14.3695C48.5063 14.3846 48.4647 14.3828 48.423 14.3638C48.3776 14.3411 48.3454 14.307 48.3265 14.2616C48.3113 14.2199 48.3151 14.1783 48.3378 14.1366C48.3568 14.0912 48.3889 14.059 48.4344 14.0401C48.6048 13.9795 48.7809 13.917 48.9626 13.8526C49.1444 13.7845 49.3129 13.722 49.4681 13.6652C49.6234 13.6046 49.7503 13.5554 49.8487 13.5175C49.9472 13.4796 49.9964 13.4607 49.9964 13.4607C50.0153 13.4569 50.0343 13.455 50.0532 13.455C50.0721 13.4512 50.0892 13.4531 50.1043 13.4607C50.1573 13.4683 50.1952 13.4986 50.2179 13.5516C50.2368 13.5819 50.2444 13.6216 50.2406 13.6709C50.2406 13.7163 50.2312 13.7826 50.2122 13.8697C50.2009 13.9189 50.1857 13.9738 50.1668 14.0344C50.1516 14.0912 50.1308 14.1574 50.1043 14.2332C50.1005 14.2483 50.0967 14.2616 50.093 14.2729C50.0892 14.2843 50.0854 14.2976 50.0816 14.3127C50.2331 14.2294 50.4186 14.1423 50.6382 14.0514C50.6799 14.0325 50.7215 14.0325 50.7632 14.0514C50.8086 14.0666 50.8389 14.095 50.8541 14.1366C50.8768 14.1783 50.8787 14.2218 50.8598 14.2673C50.8408 14.3127 50.8105 14.3449 50.7689 14.3638C50.5985 14.4396 50.4451 14.5115 50.3088 14.5797C50.1763 14.6478 50.0702 14.7027 49.9907 14.7444C49.9112 14.786 49.8714 14.8069 49.8714 14.8069C49.8487 14.8258 49.8203 14.8353 49.7862 14.8353Z" fill="black"/>
<path d="M45.9227 15.159C45.8962 15.159 45.8697 15.1553 45.8432 15.1477C45.8166 15.1439 45.7901 15.1401 45.7636 15.1363C45.6955 15.1174 45.6481 15.0776 45.6216 15.017C45.5875 14.9413 45.5875 14.8504 45.6216 14.7444C45.6595 14.6346 45.7201 14.4945 45.8034 14.3241C45.8185 14.2938 45.8337 14.2597 45.8488 14.2218C45.8678 14.184 45.8848 14.148 45.8999 14.1139C45.8507 14.1329 45.7977 14.165 45.7409 14.2105C45.6879 14.2521 45.633 14.2957 45.5762 14.3411C45.5383 14.3676 45.4967 14.379 45.4512 14.3752C45.402 14.3676 45.3622 14.3468 45.332 14.3127C45.3054 14.2749 45.296 14.2332 45.3035 14.1878C45.3073 14.1423 45.3263 14.1026 45.3603 14.0685C45.4134 14.0306 45.4683 13.989 45.5251 13.9435C45.5857 13.8981 45.6462 13.8602 45.7068 13.8299C45.8621 13.7504 46.0041 13.7296 46.1328 13.7674C46.1934 13.7788 46.2389 13.8167 46.2691 13.881C46.2994 13.9416 46.2975 14.0174 46.2635 14.1082C46.2332 14.1991 46.1802 14.3222 46.1044 14.4774C46.0855 14.5229 46.0647 14.5683 46.0419 14.6138C46.023 14.6592 46.0041 14.7028 45.9851 14.7444C45.9814 14.7596 45.9757 14.7728 45.9681 14.7842C45.9643 14.7955 45.9605 14.8069 45.9567 14.8182C46.0363 14.8069 46.1518 14.7671 46.3032 14.699C46.4585 14.627 46.6667 14.4869 46.928 14.2786C47.0681 14.1688 47.195 14.0628 47.3086 13.9606C47.4222 13.8545 47.5131 13.7674 47.5812 13.6993C47.6494 13.6311 47.6835 13.597 47.6835 13.597C47.7289 13.544 47.7838 13.527 47.8482 13.5459C47.8785 13.5497 47.9031 13.563 47.922 13.5857C47.941 13.6046 47.9561 13.6236 47.9675 13.6425C47.994 13.6955 47.9959 13.758 47.9731 13.8299C47.9542 13.8981 47.9126 14.0098 47.8482 14.165C47.8255 14.2143 47.8027 14.2635 47.78 14.3127C47.7611 14.362 47.7422 14.4074 47.7232 14.449C47.7194 14.4642 47.7157 14.4774 47.7119 14.4888C47.7119 14.4964 47.71 14.504 47.7062 14.5115C47.7781 14.5002 47.8539 14.4699 47.9334 14.4206C48.0167 14.3676 48.0962 14.3089 48.1719 14.2446C48.2515 14.1802 48.3177 14.1253 48.3707 14.0798C48.4086 14.0458 48.4503 14.0306 48.4957 14.0344C48.5411 14.0382 48.5809 14.0571 48.615 14.0912C48.6453 14.1291 48.6585 14.1707 48.6547 14.2162C48.6547 14.2616 48.6358 14.3014 48.5979 14.3354C48.4806 14.4377 48.3594 14.5342 48.2344 14.6251C48.1133 14.716 47.9902 14.7842 47.8652 14.8296C47.7441 14.8713 47.621 14.8769 47.496 14.8466C47.4354 14.8201 47.3919 14.7823 47.3654 14.733C47.3427 14.68 47.3351 14.6213 47.3427 14.557C47.354 14.4926 47.3767 14.4131 47.4108 14.3184C47.3692 14.3563 47.3256 14.3922 47.2802 14.4263C47.2385 14.4604 47.1931 14.4983 47.1439 14.5399C46.6213 14.9527 46.2142 15.159 45.9227 15.159Z" fill="black"/>
<path d="M44.5555 14.8353C44.5101 14.8353 44.4722 14.822 44.4419 14.7955C44.3813 14.7463 44.3643 14.6838 44.3908 14.6081C44.3908 14.6043 44.404 14.5588 44.4306 14.4717C44.4608 14.3846 44.4949 14.2862 44.5328 14.1764C44.5517 14.112 44.5688 14.0571 44.5839 14.0117C44.5991 13.9624 44.6123 13.9189 44.6237 13.881C44.5214 13.9189 44.3965 13.9662 44.2488 14.023C44.1011 14.076 43.9459 14.1328 43.783 14.1934C43.624 14.254 43.4687 14.3127 43.3173 14.3695C43.2756 14.3846 43.234 14.3828 43.1923 14.3638C43.1469 14.3411 43.1147 14.307 43.0958 14.2616C43.0806 14.2199 43.0844 14.1783 43.1071 14.1366C43.1261 14.0912 43.1582 14.059 43.2037 14.0401C43.3741 13.9795 43.5502 13.917 43.7319 13.8526C43.9137 13.7845 44.0822 13.722 44.2374 13.6652C44.3927 13.6046 44.5195 13.5554 44.618 13.5175C44.7165 13.4796 44.7657 13.4607 44.7657 13.4607C44.7846 13.4569 44.8035 13.455 44.8225 13.455C44.8414 13.4512 44.8585 13.4531 44.8736 13.4607C44.9266 13.4683 44.9645 13.4986 44.9872 13.5516C45.0061 13.5819 45.0137 13.6216 45.0099 13.6709C45.0099 13.7163 45.0004 13.7826 44.9815 13.8697C44.9702 13.9189 44.955 13.9738 44.9361 14.0344C44.9209 14.0912 44.9001 14.1574 44.8736 14.2332C44.8698 14.2483 44.866 14.2616 44.8622 14.2729C44.8585 14.2843 44.8547 14.2976 44.8509 14.3127C45.0023 14.2294 45.1879 14.1423 45.4075 14.0514C45.4492 14.0325 45.4908 14.0325 45.5325 14.0514C45.5779 14.0666 45.6082 14.095 45.6234 14.1366C45.6461 14.1783 45.648 14.2218 45.629 14.2673C45.6101 14.3127 45.5798 14.3449 45.5382 14.3638C45.3678 14.4396 45.2144 14.5115 45.0781 14.5797C44.9455 14.6478 44.8395 14.7027 44.76 14.7444C44.6805 14.786 44.6407 14.8069 44.6407 14.8069C44.618 14.8258 44.5896 14.8353 44.5555 14.8353Z" fill="black"/>
<path d="M40.692 15.159C40.6654 15.159 40.6389 15.1553 40.6124 15.1477C40.5859 15.1439 40.5594 15.1401 40.5329 15.1363C40.4648 15.1174 40.4174 15.0776 40.3909 15.017C40.3568 14.9413 40.3568 14.8504 40.3909 14.7444C40.4288 14.6346 40.4894 14.4945 40.5727 14.3241C40.5878 14.2938 40.603 14.2597 40.6181 14.2218C40.6371 14.184 40.6541 14.148 40.6692 14.1139C40.62 14.1329 40.567 14.165 40.5102 14.2105C40.4572 14.2521 40.4023 14.2957 40.3455 14.3411C40.3076 14.3676 40.266 14.379 40.2205 14.3752C40.1713 14.3676 40.1315 14.3468 40.1012 14.3127C40.0747 14.2749 40.0653 14.2332 40.0728 14.1878C40.0766 14.1423 40.0956 14.1026 40.1296 14.0685C40.1827 14.0306 40.2376 13.989 40.2944 13.9435C40.3549 13.8981 40.4155 13.8602 40.4761 13.8299C40.6314 13.7504 40.7734 13.7296 40.9021 13.7674C40.9627 13.7788 41.0081 13.8167 41.0384 13.881C41.0687 13.9416 41.0668 14.0174 41.0328 14.1082C41.0025 14.1991 40.9495 14.3222 40.8737 14.4774C40.8548 14.5229 40.834 14.5683 40.8112 14.6138C40.7923 14.6592 40.7734 14.7028 40.7544 14.7444C40.7507 14.7596 40.745 14.7728 40.7374 14.7842C40.7336 14.7955 40.7298 14.8069 40.726 14.8182C40.8056 14.8069 40.921 14.7671 41.0725 14.699C41.2278 14.627 41.436 14.4869 41.6973 14.2786C41.8374 14.1688 41.9643 14.0628 42.0779 13.9606C42.1915 13.8545 42.2824 13.7674 42.3505 13.6993C42.4187 13.6311 42.4528 13.597 42.4528 13.597C42.4982 13.544 42.5531 13.527 42.6175 13.5459C42.6478 13.5497 42.6724 13.563 42.6913 13.5857C42.7103 13.6046 42.7254 13.6236 42.7368 13.6425C42.7633 13.6955 42.7652 13.758 42.7424 13.8299C42.7235 13.8981 42.6819 14.0098 42.6175 14.165C42.5948 14.2143 42.572 14.2635 42.5493 14.3127C42.5304 14.362 42.5114 14.4074 42.4925 14.449C42.4887 14.4642 42.4849 14.4774 42.4812 14.4888C42.4812 14.4964 42.4793 14.504 42.4755 14.5115C42.5474 14.5002 42.6232 14.4699 42.7027 14.4206C42.786 14.3676 42.8655 14.3089 42.9412 14.2446C43.0208 14.1802 43.087 14.1253 43.14 14.0798C43.1779 14.0458 43.2196 14.0306 43.265 14.0344C43.3104 14.0382 43.3502 14.0571 43.3843 14.0912C43.4146 14.1291 43.4278 14.1707 43.424 14.2162C43.424 14.2616 43.4051 14.3014 43.3672 14.3354C43.2499 14.4377 43.1287 14.5342 43.0037 14.6251C42.8825 14.716 42.7595 14.7842 42.6345 14.8296C42.5133 14.8713 42.3903 14.8769 42.2653 14.8466C42.2047 14.8201 42.1612 14.7823 42.1347 14.733C42.112 14.68 42.1044 14.6213 42.112 14.557C42.1233 14.4926 42.146 14.4131 42.1801 14.3184C42.1385 14.3563 42.0949 14.3922 42.0495 14.4263C42.0078 14.4604 41.9624 14.4983 41.9132 14.5399C41.3906 14.9527 40.9835 15.159 40.692 15.159Z" fill="black"/>
<path d="M38.8866 14.7785C38.8601 14.7785 38.8355 14.7747 38.8127 14.7672C38.7408 14.752 38.6897 14.7085 38.6594 14.6365C38.6367 14.5721 38.6423 14.5002 38.6764 14.4207C38.7143 14.3412 38.7635 14.2522 38.8241 14.1537C38.8468 14.1196 38.8676 14.0856 38.8866 14.0515C38.9093 14.0136 38.9282 13.9795 38.9434 13.9492C38.9509 13.9379 38.9566 13.9284 38.9604 13.9208C38.9642 13.9095 38.968 13.9 38.9718 13.8924C38.8582 13.8735 38.7256 13.8697 38.5742 13.8811C38.4265 13.8886 38.2599 13.917 38.0743 13.9663C37.9115 14.0079 37.7354 14.0628 37.5461 14.131C37.3606 14.1954 37.1636 14.273 36.9554 14.3639C36.9137 14.379 36.8721 14.379 36.8304 14.3639C36.7888 14.3487 36.7585 14.3203 36.7395 14.2787C36.7168 14.237 36.7149 14.1935 36.7339 14.148C36.7528 14.0988 36.7831 14.0666 36.8247 14.0515C37.0368 13.9568 37.2394 13.8754 37.4325 13.8072C37.6294 13.7353 37.8149 13.6785 37.9891 13.6368C38.4549 13.5194 38.8355 13.5005 39.1308 13.58C39.2179 13.6028 39.2785 13.6558 39.3126 13.7391C39.3467 13.8224 39.3391 13.9152 39.2899 14.0174C39.2406 14.1196 39.1819 14.2257 39.1138 14.3355C39.11 14.343 39.1043 14.3525 39.0967 14.3639C39.0892 14.3752 39.0816 14.3885 39.074 14.4036C39.1611 14.3847 39.2899 14.3468 39.4603 14.29C39.6307 14.2332 39.8654 14.1499 40.1646 14.0401C40.2062 14.025 40.2479 14.0288 40.2895 14.0515C40.335 14.0704 40.3653 14.1026 40.3804 14.148C40.3993 14.1897 40.3993 14.2332 40.3804 14.2787C40.3615 14.3203 40.3274 14.3506 40.2782 14.3696C40.104 14.4301 39.9449 14.485 39.8011 14.5343C39.6572 14.5835 39.5284 14.6252 39.4148 14.6592C39.2633 14.7047 39.1479 14.7369 39.0683 14.7558C38.9888 14.7709 38.9282 14.7785 38.8866 14.7785Z" fill="black"/>
<path d="M34.324 15.159C34.2975 15.159 34.271 15.1553 34.2445 15.1477C34.218 15.1439 34.1915 15.1401 34.165 15.1363C34.0968 15.1174 34.0495 15.0776 34.023 15.017C33.9889 14.9413 33.9889 14.8504 34.023 14.7444C34.0609 14.6346 34.1215 14.4945 34.2048 14.3241C34.2199 14.2938 34.2351 14.2597 34.2502 14.2218C34.2691 14.184 34.2862 14.148 34.3013 14.1139C34.2521 14.1329 34.1991 14.165 34.1423 14.2105C34.0893 14.2521 34.0344 14.2957 33.9776 14.3411C33.9397 14.3676 33.898 14.379 33.8526 14.3752C33.8034 14.3676 33.7636 14.3468 33.7333 14.3127C33.7068 14.2749 33.6973 14.2332 33.7049 14.1878C33.7087 14.1423 33.7276 14.1026 33.7617 14.0685C33.8147 14.0306 33.8696 13.989 33.9264 13.9435C33.987 13.8981 34.0476 13.8602 34.1082 13.8299C34.2635 13.7504 34.4055 13.7296 34.5342 13.7674C34.5948 13.7788 34.6402 13.8167 34.6705 13.881C34.7008 13.9416 34.6989 14.0174 34.6648 14.1082C34.6345 14.1991 34.5815 14.3222 34.5058 14.4774C34.4869 14.5229 34.466 14.5683 34.4433 14.6138C34.4244 14.6592 34.4055 14.7028 34.3865 14.7444C34.3827 14.7596 34.3771 14.7728 34.3695 14.7842C34.3657 14.7955 34.3619 14.8069 34.3581 14.8182C34.4376 14.8069 34.5531 14.7671 34.7046 14.699C34.8598 14.627 35.0681 14.4869 35.3294 14.2786C35.4695 14.1688 35.5964 14.0628 35.71 13.9606C35.8236 13.8545 35.9144 13.7674 35.9826 13.6993C36.0508 13.6311 36.0848 13.597 36.0848 13.597C36.1303 13.544 36.1852 13.527 36.2496 13.5459C36.2799 13.5497 36.3045 13.563 36.3234 13.5857C36.3423 13.6046 36.3575 13.6236 36.3688 13.6425C36.3953 13.6955 36.3972 13.758 36.3745 13.8299C36.3556 13.8981 36.3139 14.0098 36.2496 14.165C36.2268 14.2143 36.2041 14.2635 36.1814 14.3127C36.1625 14.362 36.1435 14.4074 36.1246 14.449C36.1208 14.4642 36.117 14.4774 36.1132 14.4888C36.1132 14.4964 36.1113 14.504 36.1076 14.5115C36.1795 14.5002 36.2552 14.4699 36.3348 14.4206C36.4181 14.3676 36.4976 14.3089 36.5733 14.2446C36.6528 14.1802 36.7191 14.1253 36.7721 14.0798C36.81 14.0458 36.8516 14.0306 36.8971 14.0344C36.9425 14.0382 36.9823 14.0571 37.0164 14.0912C37.0467 14.1291 37.0599 14.1707 37.0561 14.2162C37.0561 14.2616 37.0372 14.3014 36.9993 14.3354C36.8819 14.4377 36.7608 14.5342 36.6358 14.6251C36.5146 14.716 36.3916 14.7842 36.2666 14.8296C36.1454 14.8713 36.0224 14.8769 35.8974 14.8466C35.8368 14.8201 35.7933 14.7823 35.7668 14.733C35.744 14.68 35.7365 14.6213 35.744 14.557C35.7554 14.4926 35.7781 14.4131 35.8122 14.3184C35.7705 14.3563 35.727 14.3922 35.6816 14.4263C35.6399 14.4604 35.5945 14.4983 35.5452 14.5399C35.0227 14.9527 34.6156 15.159 34.324 15.159Z" fill="black"/>
<path d="M32.5187 14.7785C32.4922 14.7785 32.4675 14.7747 32.4448 14.7672C32.3729 14.752 32.3217 14.7085 32.2915 14.6365C32.2687 14.5721 32.2744 14.5002 32.3085 14.4207C32.3464 14.3412 32.3956 14.2522 32.4562 14.1537C32.4789 14.1196 32.4997 14.0856 32.5187 14.0515C32.5414 14.0136 32.5603 13.9795 32.5755 13.9492C32.583 13.9379 32.5887 13.9284 32.5925 13.9208C32.5963 13.9095 32.6001 13.9 32.6039 13.8924C32.4903 13.8735 32.3577 13.8697 32.2063 13.8811C32.0586 13.8886 31.892 13.917 31.7064 13.9663C31.5436 14.0079 31.3675 14.0628 31.1782 14.131C30.9926 14.1954 30.7957 14.273 30.5875 14.3639C30.5458 14.379 30.5041 14.379 30.4625 14.3639C30.4208 14.3487 30.3905 14.3203 30.3716 14.2787C30.3489 14.237 30.347 14.1935 30.3659 14.148C30.3849 14.0988 30.4152 14.0666 30.4568 14.0515C30.6689 13.9568 30.8715 13.8754 31.0646 13.8072C31.2615 13.7353 31.447 13.6785 31.6212 13.6368C32.087 13.5194 32.4675 13.5005 32.7629 13.58C32.85 13.6028 32.9106 13.6558 32.9447 13.7391C32.9787 13.8224 32.9712 13.9152 32.9219 14.0174C32.8727 14.1196 32.814 14.2257 32.7459 14.3355C32.7421 14.343 32.7364 14.3525 32.7288 14.3639C32.7212 14.3752 32.7137 14.3885 32.7061 14.4036C32.7932 14.3847 32.9219 14.3468 33.0923 14.29C33.2627 14.2332 33.4975 14.1499 33.7967 14.0401C33.8383 14.025 33.88 14.0288 33.9216 14.0515C33.9671 14.0704 33.9973 14.1026 34.0125 14.148C34.0314 14.1897 34.0314 14.2332 34.0125 14.2787C33.9936 14.3203 33.9595 14.3506 33.9103 14.3696C33.7361 14.4301 33.577 14.485 33.4331 14.5343C33.2892 14.5835 33.1605 14.6252 33.0469 14.6592C32.8954 14.7047 32.7799 14.7369 32.7004 14.7558C32.6209 14.7709 32.5603 14.7785 32.5187 14.7785Z" fill="black"/>
<path d="M29.1739 14.7785C29.1474 14.7785 29.1228 14.7747 29.1001 14.7672C29.0281 14.752 28.977 14.7085 28.9467 14.6365C28.924 14.5721 28.9297 14.5002 28.9638 14.4207C29.0016 14.3412 29.0509 14.2522 29.1114 14.1537C29.1342 14.1196 29.155 14.0856 29.1739 14.0515C29.1967 14.0136 29.2156 13.9795 29.2307 13.9492C29.2383 13.9379 29.244 13.9284 29.2478 13.9208C29.2516 13.9095 29.2553 13.9 29.2591 13.8924C29.1455 13.8735 29.013 13.8697 28.8615 13.8811C28.7139 13.8886 28.5472 13.917 28.3617 13.9663C28.1989 14.0079 28.0228 14.0628 27.8335 14.131C27.6479 14.1954 27.451 14.273 27.2427 14.3639C27.2011 14.379 27.1594 14.379 27.1178 14.3639C27.0761 14.3487 27.0458 14.3203 27.0269 14.2787C27.0042 14.237 27.0023 14.1935 27.0212 14.148C27.0401 14.0988 27.0704 14.0666 27.1121 14.0515C27.3241 13.9568 27.5267 13.8754 27.7199 13.8072C27.9168 13.7353 28.1023 13.6785 28.2765 13.6368C28.7422 13.5194 29.1228 13.5005 29.4182 13.58C29.5053 13.6028 29.5658 13.6558 29.5999 13.7391C29.634 13.8224 29.6264 13.9152 29.5772 14.0174C29.528 14.1196 29.4693 14.2257 29.4011 14.3355C29.3973 14.343 29.3917 14.3525 29.3841 14.3639C29.3765 14.3752 29.3689 14.3885 29.3614 14.4036C29.4485 14.3847 29.5772 14.3468 29.7476 14.29C29.918 14.2332 30.1528 14.1499 30.4519 14.0401C30.4936 14.025 30.5352 14.0288 30.5769 14.0515C30.6223 14.0704 30.6526 14.1026 30.6678 14.148C30.6867 14.1897 30.6867 14.2332 30.6678 14.2787C30.6488 14.3203 30.6148 14.3506 30.5655 14.3696C30.3913 14.4301 30.2323 14.485 30.0884 14.5343C29.9445 14.5835 29.8158 14.6252 29.7022 14.6592C29.5507 14.7047 29.4352 14.7369 29.3557 14.7558C29.2762 14.7709 29.2156 14.7785 29.1739 14.7785Z" fill="black"/>
<path d="M23.5052 14.8353C23.4598 14.8353 23.4219 14.822 23.3916 14.7955C23.331 14.7463 23.314 14.6838 23.3405 14.6081C23.3405 14.6043 23.3538 14.5588 23.3803 14.4717C23.4106 14.3846 23.4446 14.2862 23.4825 14.1764C23.5014 14.112 23.5185 14.0571 23.5336 14.0117C23.5488 13.9624 23.562 13.9189 23.5734 13.881C23.4711 13.9189 23.3462 13.9662 23.1985 14.023C23.0508 14.076 22.8956 14.1328 22.7327 14.1934C22.5737 14.254 22.4185 14.3127 22.267 14.3695C22.2253 14.3846 22.1837 14.3828 22.142 14.3638C22.0966 14.3411 22.0644 14.307 22.0455 14.2616C22.0303 14.2199 22.0341 14.1783 22.0568 14.1366C22.0758 14.0912 22.1079 14.059 22.1534 14.0401C22.3238 13.9795 22.4999 13.917 22.6816 13.8526C22.8634 13.7845 23.0319 13.722 23.1871 13.6652C23.3424 13.6046 23.4693 13.5554 23.5677 13.5175C23.6662 13.4796 23.7154 13.4607 23.7154 13.4607C23.7343 13.4569 23.7533 13.455 23.7722 13.455C23.7911 13.4512 23.8082 13.4531 23.8233 13.4607C23.8763 13.4683 23.9142 13.4986 23.9369 13.5516C23.9558 13.5819 23.9634 13.6216 23.9596 13.6709C23.9596 13.7163 23.9502 13.7826 23.9312 13.8697C23.9199 13.9189 23.9047 13.9738 23.8858 14.0344C23.8706 14.0912 23.8498 14.1574 23.8233 14.2332C23.8195 14.2483 23.8157 14.2616 23.8119 14.2729C23.8082 14.2843 23.8044 14.2976 23.8006 14.3127C23.9521 14.2294 24.1376 14.1423 24.3572 14.0514C24.3989 14.0325 24.4405 14.0325 24.4822 14.0514C24.5276 14.0666 24.5579 14.095 24.5731 14.1366C24.5958 14.1783 24.5977 14.2218 24.5787 14.2673C24.5598 14.3127 24.5295 14.3449 24.4879 14.3638C24.3175 14.4396 24.1641 14.5115 24.0278 14.5797C23.8953 14.6478 23.7892 14.7027 23.7097 14.7444C23.6302 14.786 23.5904 14.8069 23.5904 14.8069C23.5677 14.8258 23.5393 14.8353 23.5052 14.8353Z" fill="black"/>
<path d="M21.2977 14.8353C21.2523 14.8353 21.2144 14.822 21.1841 14.7955C21.1235 14.7463 21.1065 14.6838 21.133 14.6081C21.133 14.6043 21.1462 14.5588 21.1727 14.4717C21.203 14.3846 21.2371 14.2862 21.275 14.1764C21.2939 14.112 21.311 14.0571 21.3261 14.0117C21.3413 13.9624 21.3545 13.9189 21.3659 13.881C21.2636 13.9189 21.1387 13.9662 20.991 14.023C20.8433 14.076 20.6881 14.1328 20.5252 14.1934C20.3662 14.254 20.2109 14.3127 20.0595 14.3695C20.0178 14.3846 19.9762 14.3828 19.9345 14.3638C19.8891 14.3411 19.8569 14.307 19.8379 14.2616C19.8228 14.2199 19.8266 14.1783 19.8493 14.1366C19.8682 14.0912 19.9004 14.059 19.9459 14.0401C20.1163 13.9795 20.2923 13.917 20.4741 13.8526C20.6559 13.7845 20.8244 13.722 20.9796 13.6652C21.1349 13.6046 21.2617 13.5554 21.3602 13.5175C21.4586 13.4796 21.5079 13.4607 21.5079 13.4607C21.5268 13.4569 21.5457 13.455 21.5647 13.455C21.5836 13.4512 21.6006 13.4531 21.6158 13.4607C21.6688 13.4683 21.7067 13.4986 21.7294 13.5516C21.7483 13.5819 21.7559 13.6216 21.7521 13.6709C21.7521 13.7163 21.7426 13.7826 21.7237 13.8697C21.7123 13.9189 21.6972 13.9738 21.6783 14.0344C21.6631 14.0912 21.6423 14.1574 21.6158 14.2332C21.612 14.2483 21.6082 14.2616 21.6044 14.2729C21.6006 14.2843 21.5969 14.2976 21.5931 14.3127C21.7445 14.2294 21.9301 14.1423 22.1497 14.0514C22.1914 14.0325 22.233 14.0325 22.2747 14.0514C22.3201 14.0666 22.3504 14.095 22.3655 14.1366C22.3883 14.1783 22.3902 14.2218 22.3712 14.2673C22.3523 14.3127 22.322 14.3449 22.2803 14.3638C22.1099 14.4396 21.9566 14.5115 21.8203 14.5797C21.6877 14.6478 21.5817 14.7027 21.5022 14.7444C21.4227 14.786 21.3829 14.8069 21.3829 14.8069C21.3602 14.8258 21.3318 14.8353 21.2977 14.8353Z" fill="black"/>
<path d="M17.4339 15.159C17.4074 15.159 17.3809 15.1553 17.3544 15.1477C17.3279 15.1439 17.3014 15.1401 17.2749 15.1363C17.2067 15.1174 17.1594 15.0776 17.1329 15.017C17.0988 14.9413 17.0988 14.8504 17.1329 14.7444C17.1707 14.6346 17.2313 14.4945 17.3146 14.3241C17.3298 14.2938 17.3449 14.2597 17.3601 14.2218C17.379 14.184 17.396 14.148 17.4112 14.1139C17.362 14.1329 17.3089 14.165 17.2521 14.2105C17.1991 14.2521 17.1442 14.2957 17.0874 14.3411C17.0496 14.3676 17.0079 14.379 16.9625 14.3752C16.9132 14.3676 16.8735 14.3468 16.8432 14.3127C16.8167 14.2749 16.8072 14.2332 16.8148 14.1878C16.8186 14.1423 16.8375 14.1026 16.8716 14.0685C16.9246 14.0306 16.9795 13.989 17.0363 13.9435C17.0969 13.8981 17.1575 13.8602 17.2181 13.8299C17.3733 13.7504 17.5153 13.7296 17.6441 13.7674C17.7046 13.7788 17.7501 13.8167 17.7804 13.881C17.8107 13.9416 17.8088 14.0174 17.7747 14.1082C17.7444 14.1991 17.6914 14.3222 17.6157 14.4774C17.5967 14.5229 17.5759 14.5683 17.5532 14.6138C17.5342 14.6592 17.5153 14.7028 17.4964 14.7444C17.4926 14.7596 17.4869 14.7728 17.4793 14.7842C17.4756 14.7955 17.4718 14.8069 17.468 14.8182C17.5475 14.8069 17.663 14.7671 17.8145 14.699C17.9697 14.627 18.178 14.4869 18.4393 14.2786C18.5794 14.1688 18.7062 14.0628 18.8198 13.9606C18.9334 13.8545 19.0243 13.7674 19.0925 13.6993C19.1606 13.6311 19.1947 13.597 19.1947 13.597C19.2401 13.544 19.295 13.527 19.3594 13.5459C19.3897 13.5497 19.4143 13.563 19.4333 13.5857C19.4522 13.6046 19.4673 13.6236 19.4787 13.6425C19.5052 13.6955 19.5071 13.758 19.4844 13.8299C19.4654 13.8981 19.4238 14.0098 19.3594 14.165C19.3367 14.2143 19.314 14.2635 19.2913 14.3127C19.2723 14.362 19.2534 14.4074 19.2345 14.449C19.2307 14.4642 19.2269 14.4774 19.2231 14.4888C19.2231 14.4964 19.2212 14.504 19.2174 14.5115C19.2894 14.5002 19.3651 14.4699 19.4446 14.4206C19.5279 14.3676 19.6074 14.3089 19.6832 14.2446C19.7627 14.1802 19.829 14.1253 19.882 14.0798C19.9198 14.0458 19.9615 14.0306 20.0069 14.0344C20.0524 14.0382 20.0921 14.0571 20.1262 14.0912C20.1565 14.1291 20.1698 14.1707 20.166 14.2162C20.166 14.2616 20.147 14.3014 20.1092 14.3354C19.9918 14.4377 19.8706 14.5342 19.7457 14.6251C19.6245 14.716 19.5014 14.7842 19.3765 14.8296C19.2553 14.8713 19.1322 14.8769 19.0073 14.8466C18.9467 14.8201 18.9031 14.7823 18.8766 14.733C18.8539 14.68 18.8463 14.6213 18.8539 14.557C18.8653 14.4926 18.888 14.4131 18.9221 14.3184C18.8804 14.3563 18.8369 14.3922 18.7914 14.4263C18.7498 14.4604 18.7043 14.4983 18.6551 14.5399C18.1325 14.9527 17.7255 15.159 17.4339 15.159Z" fill="black"/>
<path d="M14.411 15.159C14.3844 15.159 14.3579 15.1553 14.3314 15.1477C14.3049 15.1439 14.2784 15.1401 14.2519 15.1363C14.1838 15.1174 14.1364 15.0776 14.1099 15.017C14.0758 14.9413 14.0758 14.8504 14.1099 14.7444C14.1478 14.6346 14.2084 14.4945 14.2917 14.3241C14.3068 14.2938 14.322 14.2597 14.3371 14.2218C14.356 14.184 14.3731 14.148 14.3882 14.1139C14.339 14.1329 14.286 14.165 14.2292 14.2105C14.1762 14.2521 14.1213 14.2957 14.0645 14.3411C14.0266 14.3676 13.985 14.379 13.9395 14.3752C13.8903 14.3676 13.8505 14.3468 13.8202 14.3127C13.7937 14.2749 13.7843 14.2332 13.7918 14.1878C13.7956 14.1423 13.8146 14.1026 13.8486 14.0685C13.9016 14.0306 13.9566 13.989 14.0134 13.9435C14.0739 13.8981 14.1345 13.8602 14.1951 13.8299C14.3504 13.7504 14.4924 13.7296 14.6211 13.7674C14.6817 13.7788 14.7271 13.8167 14.7574 13.881C14.7877 13.9416 14.7858 14.0174 14.7518 14.1082C14.7215 14.1991 14.6684 14.3222 14.5927 14.4774C14.5738 14.5229 14.553 14.5683 14.5302 14.6138C14.5113 14.6592 14.4924 14.7028 14.4734 14.7444C14.4696 14.7596 14.464 14.7728 14.4564 14.7842C14.4526 14.7955 14.4488 14.8069 14.445 14.8182C14.5246 14.8069 14.64 14.7671 14.7915 14.699C14.9468 14.627 15.155 14.4869 15.4163 14.2786C15.5564 14.1688 15.6833 14.0628 15.7969 13.9606C15.9105 13.8545 16.0014 13.7674 16.0695 13.6993C16.1377 13.6311 16.1718 13.597 16.1718 13.597C16.2172 13.544 16.2721 13.527 16.3365 13.5459C16.3668 13.5497 16.3914 13.563 16.4103 13.5857C16.4292 13.6046 16.4444 13.6236 16.4558 13.6425C16.4823 13.6955 16.4842 13.758 16.4614 13.8299C16.4425 13.8981 16.4008 14.0098 16.3365 14.165C16.3138 14.2143 16.291 14.2635 16.2683 14.3127C16.2494 14.362 16.2304 14.4074 16.2115 14.449C16.2077 14.4642 16.2039 14.4774 16.2002 14.4888C16.2002 14.4964 16.1983 14.504 16.1945 14.5115C16.2664 14.5002 16.3422 14.4699 16.4217 14.4206C16.505 14.3676 16.5845 14.3089 16.6602 14.2446C16.7398 14.1802 16.806 14.1253 16.859 14.0798C16.8969 14.0458 16.9386 14.0306 16.984 14.0344C17.0294 14.0382 17.0692 14.0571 17.1033 14.0912C17.1336 14.1291 17.1468 14.1707 17.143 14.2162C17.143 14.2616 17.1241 14.3014 17.0862 14.3354C16.9688 14.4377 16.8477 14.5342 16.7227 14.6251C16.6015 14.716 16.4785 14.7842 16.3535 14.8296C16.2323 14.8713 16.1093 14.8769 15.9843 14.8466C15.9237 14.8201 15.8802 14.7823 15.8537 14.733C15.831 14.68 15.8234 14.6213 15.831 14.557C15.8423 14.4926 15.865 14.4131 15.8991 14.3184C15.8575 14.3563 15.8139 14.3922 15.7685 14.4263C15.7268 14.4604 15.6814 14.4983 15.6322 14.5399C15.1096 14.9527 14.7025 15.159 14.411 15.159Z" fill="black"/>
<path d="M53.8926 54.159C53.8661 54.159 53.8396 54.1553 53.8131 54.1477C53.7866 54.1439 53.7601 54.1401 53.7336 54.1363C53.6654 54.1174 53.6181 54.0776 53.5916 54.017C53.5575 53.9413 53.5575 53.8504 53.5916 53.7444C53.6295 53.6346 53.6901 53.4945 53.7734 53.3241C53.7885 53.2938 53.8037 53.2597 53.8188 53.2218C53.8377 53.184 53.8548 53.148 53.8699 53.1139C53.8207 53.1329 53.7677 53.165 53.7109 53.2105C53.6579 53.2521 53.603 53.2957 53.5462 53.3411C53.5083 53.3676 53.4666 53.379 53.4212 53.3752C53.372 53.3676 53.3322 53.3468 53.3019 53.3127C53.2754 53.2749 53.2659 53.2332 53.2735 53.1878C53.2773 53.1423 53.2962 53.1026 53.3303 53.0685C53.3833 53.0306 53.4382 52.989 53.495 52.9435C53.5556 52.8981 53.6162 52.8602 53.6768 52.8299C53.8321 52.7504 53.9741 52.7296 54.1028 52.7674C54.1634 52.7788 54.2088 52.8167 54.2391 52.881C54.2694 52.9416 54.2675 53.0174 54.2334 53.1082C54.2031 53.1991 54.1501 53.3222 54.0744 53.4774C54.0555 53.5229 54.0346 53.5683 54.0119 53.6138C53.993 53.6592 53.9741 53.7028 53.9551 53.7444C53.9513 53.7596 53.9457 53.7728 53.9381 53.7842C53.9343 53.7955 53.9305 53.8069 53.9267 53.8182C54.0062 53.8069 54.1217 53.7671 54.2732 53.699C54.4285 53.627 54.6367 53.4869 54.898 53.2786C55.0381 53.1688 55.165 53.0628 55.2786 52.9606C55.3922 52.8545 55.483 52.7674 55.5512 52.6993C55.6194 52.6311 55.6534 52.597 55.6534 52.597C55.6989 52.544 55.7538 52.527 55.8182 52.5459C55.8485 52.5497 55.8731 52.563 55.892 52.5857C55.9109 52.6046 55.9261 52.6236 55.9374 52.6425C55.9639 52.6955 55.9658 52.758 55.9431 52.8299C55.9242 52.8981 55.8825 53.0098 55.8182 53.165C55.7954 53.2143 55.7727 53.2635 55.75 53.3127C55.7311 53.362 55.7121 53.4074 55.6932 53.449C55.6894 53.4642 55.6856 53.4774 55.6818 53.4888C55.6818 53.4964 55.6799 53.504 55.6762 53.5115C55.7481 53.5002 55.8238 53.4699 55.9034 53.4206C55.9867 53.3676 56.0662 53.3089 56.1419 53.2446C56.2214 53.1802 56.2877 53.1253 56.3407 53.0798C56.3786 53.0458 56.4202 53.0306 56.4657 53.0344C56.5111 53.0382 56.5509 53.0571 56.585 53.0912C56.6153 53.1291 56.6285 53.1707 56.6247 53.2162C56.6247 53.2616 56.6058 53.3014 56.5679 53.3354C56.4505 53.4377 56.3294 53.5342 56.2044 53.6251C56.0832 53.716 55.9602 53.7842 55.8352 53.8296C55.714 53.8713 55.591 53.8769 55.466 53.8466C55.4054 53.8201 55.3619 53.7823 55.3354 53.733C55.3126 53.68 55.3051 53.6213 55.3126 53.557C55.324 53.4926 55.3467 53.4131 55.3808 53.3184C55.3391 53.3563 55.2956 53.3922 55.2502 53.4263C55.2085 53.4604 55.1631 53.4983 55.1138 53.5399C54.5913 53.9527 54.1842 54.159 53.8926 54.159Z" fill="black"/>
<path d="M52.5257 53.8354C52.4803 53.8354 52.4424 53.8221 52.4121 53.7956C52.3515 53.7464 52.3345 53.6839 52.361 53.6082C52.361 53.6044 52.3743 53.559 52.4008 53.4719C52.4311 53.3848 52.4651 53.2863 52.503 53.1765C52.5219 53.1121 52.539 53.0572 52.5541 53.0118C52.5693 52.9626 52.5825 52.919 52.5939 52.8811C52.4917 52.919 52.3667 52.9663 52.219 53.0231C52.0713 53.0762 51.9161 53.133 51.7533 53.1935C51.5942 53.2541 51.439 53.3128 51.2875 53.3696C51.2458 53.3848 51.2042 53.3829 51.1625 53.3639C51.1171 53.3412 51.0849 53.3071 51.066 53.2617C51.0508 53.22 51.0546 53.1784 51.0773 53.1367C51.0963 53.0913 51.1285 53.0591 51.1739 53.0402C51.3443 52.9796 51.5204 52.9171 51.7021 52.8527C51.8839 52.7846 52.0524 52.7221 52.2077 52.6653C52.3629 52.6047 52.4898 52.5555 52.5882 52.5176C52.6867 52.4798 52.7359 52.4608 52.7359 52.4608C52.7548 52.457 52.7738 52.4551 52.7927 52.4551C52.8116 52.4514 52.8287 52.4532 52.8438 52.4608C52.8968 52.4684 52.9347 52.4987 52.9574 52.5517C52.9763 52.582 52.9839 52.6218 52.9801 52.671C52.9801 52.7164 52.9707 52.7827 52.9517 52.8698C52.9404 52.919 52.9252 52.9739 52.9063 53.0345C52.8911 53.0913 52.8703 53.1576 52.8438 53.2333C52.84 53.2484 52.8362 53.2617 52.8325 53.2731C52.8287 53.2844 52.8249 53.2977 52.8211 53.3128C52.9726 53.2295 53.1581 53.1424 53.3777 53.0515C53.4194 53.0326 53.461 53.0326 53.5027 53.0515C53.5481 53.0667 53.5784 53.0951 53.5936 53.1367C53.6163 53.1784 53.6182 53.2219 53.5993 53.2674C53.5803 53.3128 53.55 53.345 53.5084 53.3639C53.338 53.4397 53.1846 53.5116 53.0483 53.5798C52.9158 53.6479 52.8097 53.7028 52.7302 53.7445C52.6507 53.7862 52.6109 53.807 52.6109 53.807C52.5882 53.8259 52.5598 53.8354 52.5257 53.8354Z" fill="black"/>
<path d="M48.6619 54.159C48.6354 54.159 48.6089 54.1553 48.5824 54.1477C48.5559 54.1439 48.5294 54.1401 48.5029 54.1363C48.4347 54.1174 48.3874 54.0776 48.3609 54.017C48.3268 53.9413 48.3268 53.8504 48.3609 53.7444C48.3988 53.6346 48.4593 53.4945 48.5426 53.3241C48.5578 53.2938 48.5729 53.2597 48.5881 53.2218C48.607 53.184 48.6241 53.148 48.6392 53.1139C48.59 53.1329 48.537 53.165 48.4802 53.2105C48.4272 53.2521 48.3722 53.2957 48.3154 53.3411C48.2776 53.3676 48.2359 53.379 48.1905 53.3752C48.1413 53.3676 48.1015 53.3468 48.0712 53.3127C48.0447 53.2749 48.0352 53.2332 48.0428 53.1878C48.0466 53.1423 48.0655 53.1026 48.0996 53.0685C48.1526 53.0306 48.2075 52.989 48.2643 52.9435C48.3249 52.8981 48.3855 52.8602 48.4461 52.8299C48.6013 52.7504 48.7433 52.7296 48.8721 52.7674C48.9327 52.7788 48.9781 52.8167 49.0084 52.881C49.0387 52.9416 49.0368 53.0174 49.0027 53.1082C48.9724 53.1991 48.9194 53.3222 48.8437 53.4774C48.8248 53.5229 48.8039 53.5683 48.7812 53.6138C48.7623 53.6592 48.7433 53.7028 48.7244 53.7444C48.7206 53.7596 48.7149 53.7728 48.7074 53.7842C48.7036 53.7955 48.6998 53.8069 48.696 53.8182C48.7755 53.8069 48.891 53.7671 49.0425 53.699C49.1977 53.627 49.406 53.4869 49.6673 53.2786C49.8074 53.1688 49.9342 53.0628 50.0478 52.9606C50.1614 52.8545 50.2523 52.7674 50.3205 52.6993C50.3886 52.6311 50.4227 52.597 50.4227 52.597C50.4682 52.544 50.5231 52.527 50.5874 52.5459C50.6177 52.5497 50.6424 52.563 50.6613 52.5857C50.6802 52.6046 50.6954 52.6236 50.7067 52.6425C50.7332 52.6955 50.7351 52.758 50.7124 52.8299C50.6935 52.8981 50.6518 53.0098 50.5874 53.165C50.5647 53.2143 50.542 53.2635 50.5193 53.3127C50.5004 53.362 50.4814 53.4074 50.4625 53.449C50.4587 53.4642 50.4549 53.4774 50.4511 53.4888C50.4511 53.4964 50.4492 53.504 50.4454 53.5115C50.5174 53.5002 50.5931 53.4699 50.6726 53.4206C50.756 53.3676 50.8355 53.3089 50.9112 53.2446C50.9907 53.1802 51.057 53.1253 51.11 53.0798C51.1479 53.0458 51.1895 53.0306 51.235 53.0344C51.2804 53.0382 51.3202 53.0571 51.3542 53.0912C51.3845 53.1291 51.3978 53.1707 51.394 53.2162C51.394 53.2616 51.3751 53.3014 51.3372 53.3354C51.2198 53.4377 51.0986 53.5342 50.9737 53.6251C50.8525 53.716 50.7294 53.7842 50.6045 53.8296C50.4833 53.8713 50.3602 53.8769 50.2353 53.8466C50.1747 53.8201 50.1312 53.7823 50.1046 53.733C50.0819 53.68 50.0744 53.6213 50.0819 53.557C50.0933 53.4926 50.116 53.4131 50.1501 53.3184C50.1084 53.3563 50.0649 53.3922 50.0194 53.4263C49.9778 53.4604 49.9324 53.4983 49.8831 53.5399C49.3606 53.9527 48.9535 54.159 48.6619 54.159Z" fill="black"/>
<path d="M47.295 53.8354C47.2496 53.8354 47.2117 53.8221 47.1814 53.7956C47.1208 53.7464 47.1038 53.6839 47.1303 53.6082C47.1303 53.6044 47.1436 53.559 47.1701 53.4719C47.2004 53.3848 47.2344 53.2863 47.2723 53.1765C47.2912 53.1121 47.3083 53.0572 47.3234 53.0118C47.3386 52.9626 47.3518 52.919 47.3632 52.8811C47.2609 52.919 47.136 52.9663 46.9883 53.0231C46.8406 53.0762 46.6854 53.133 46.5225 53.1935C46.3635 53.2541 46.2082 53.3128 46.0568 53.3696C46.0151 53.3848 45.9735 53.3829 45.9318 53.3639C45.8864 53.3412 45.8542 53.3071 45.8353 53.2617C45.8201 53.22 45.8239 53.1784 45.8466 53.1367C45.8656 53.0913 45.8977 53.0591 45.9432 53.0402C46.1136 52.9796 46.2897 52.9171 46.4714 52.8527C46.6532 52.7846 46.8217 52.7221 46.9769 52.6653C47.1322 52.6047 47.259 52.5555 47.3575 52.5176C47.456 52.4798 47.5052 52.4608 47.5052 52.4608C47.5241 52.457 47.543 52.4551 47.562 52.4551C47.5809 52.4514 47.598 52.4532 47.6131 52.4608C47.6661 52.4684 47.704 52.4987 47.7267 52.5517C47.7456 52.582 47.7532 52.6218 47.7494 52.671C47.7494 52.7164 47.74 52.7827 47.721 52.8698C47.7097 52.919 47.6945 52.9739 47.6756 53.0345C47.6604 53.0913 47.6396 53.1576 47.6131 53.2333C47.6093 53.2484 47.6055 53.2617 47.6017 53.2731C47.598 53.2844 47.5942 53.2977 47.5904 53.3128C47.7418 53.2295 47.9274 53.1424 48.147 53.0515C48.1887 53.0326 48.2303 53.0326 48.272 53.0515C48.3174 53.0667 48.3477 53.0951 48.3629 53.1367C48.3856 53.1784 48.3875 53.2219 48.3685 53.2674C48.3496 53.3128 48.3193 53.345 48.2777 53.3639C48.1073 53.4397 47.9539 53.5116 47.8176 53.5798C47.685 53.6479 47.579 53.7028 47.4995 53.7445C47.42 53.7862 47.3802 53.807 47.3802 53.807C47.3575 53.8259 47.3291 53.8354 47.295 53.8354Z" fill="black"/>
<path d="M43.6965 41C43.8642 41 44 41.2237 44 41.5C44 41.7763 43.8642 42 43.6965 42H11.3035C11.1358 42 11 41.7763 11 41.5C11 41.2237 11.1358 41 11.3035 41H43.6965Z" fill="#FFDE4F" fill-opacity="0.51"/>
<path d="M43.6965 36C43.8642 36 44 36.2237 44 36.5C44 36.7763 43.8642 37 43.6965 37H11.3035C11.1358 37 11 36.7763 11 36.5C11 36.2237 11.1358 36 11.3035 36H43.6965Z" fill="#FFDE4F" fill-opacity="0.51"/>
<path d="M43.6965 31C43.8642 31 44 31.2237 44 31.5C44 31.7763 43.8642 32 43.6965 32H11.3035C11.1358 32 11 31.7763 11 31.5C11 31.2237 11.1358 31 11.3035 31H43.6965Z" fill="#FFDE4F" fill-opacity="0.51"/>
<path d="M43.6965 26C43.8642 26 44 26.2237 44 26.5C44 26.7763 43.8642 27 43.6965 27H11.3035C11.1358 27 11 26.7763 11 26.5C11 26.2237 11.1358 26 11.3035 26H43.6965Z" fill="#FFDE4F" fill-opacity="0.51"/>
<path d="M55.5861 21C55.8149 21 56 21.2237 56 21.5C56 21.7763 55.8149 22 55.5861 22H11.4138C11.1851 22 11 21.7763 11 21.5C11 21.2237 11.1851 21 11.4138 21H55.5861Z" fill="#FFDE4F" fill-opacity="0.51"/>
<path d="M55.5861 16C55.8149 16 56 16.2237 56 16.5C56 16.7763 55.8149 17 55.5861 17H11.4138C11.1851 17 11 16.7763 11 16.5C11 16.2237 11.1851 16 11.4138 16H55.5861Z" fill="#FFDE4F" fill-opacity="0.51"/>
<path d="M55.5861 11C55.8149 11 56 11.2237 56 11.5C56 11.7763 55.8149 12 55.5861 12H11.4138C11.1851 12 11 11.7763 11 11.5C11 11.2237 11.1851 11 11.4138 11H55.5861Z" fill="#FFDE4F" fill-opacity="0.51"/>
<path d="M27.693 46C27.8626 46 28 46.2237 28 46.5C28 46.7763 27.8626 47 27.693 47H11.307C11.1374 47 11 46.7763 11 46.5C11 46.2237 11.1374 46 11.307 46H27.693Z" fill="#FFDE4F" fill-opacity="0.51"/>
<path d="M43.404 51C43.7334 51 44 51.2237 44 51.5C44 51.7763 43.7334 52 43.404 52H11.596C11.2666 52 11 51.7763 11 51.5C11 51.2237 11.2666 51 11.596 51H43.404Z" fill="#FFDE4F" fill-opacity="0.51"/>
<path d="M43.6965 56C43.8642 56 44 56.2237 44 56.5C44 56.7763 43.8642 57 43.6965 57H11.3035C11.1358 57 11 56.7763 11 56.5C11 56.2237 11.1358 56 11.3035 56H43.6965Z" fill="#FFDE4F" fill-opacity="0.51"/>
<g clip-path="url(#clip0_1315_41005)">
<path d="M48.2262 30.4452L19.5425 30.4452L19.5425 46.7888L48.2262 46.7888L48.2262 30.4452Z" fill="#479324"/>
<path d="M51.5818 46.7888L16.418 46.7888L16.418 47.9895L51.5818 47.9895L51.5818 46.7888Z" fill="#83BB26"/>
<path d="M53.001 47.7987L15.001 47.7987L15.001 48.9994L53.001 48.9994L53.001 47.7987Z" fill="#479324"/>
<path d="M31.0275 30.4456L28.1282 30.4456L28.1282 46.7892L31.0275 46.7892L31.0275 30.4456Z" fill="#94C358"/>
<path d="M28.9142 30.4447L26.8101 30.4447C26.8101 30.4447 26.1607 30.8426 26.5556 31.5413C26.9543 32.2467 28.1713 32.0035 28.3116 31.6936C28.4519 31.3836 28.9142 30.4447 28.9142 30.4447Z" fill="#94C358"/>
<path d="M30.3987 30.4457L32.5028 30.4457C32.5028 30.4457 33.1522 30.8436 32.7574 31.5422C32.3586 32.2477 31.1416 32.0045 31.0013 31.6945C30.8611 31.3846 30.3987 30.4457 30.3987 30.4457Z" fill="#94C358"/>
<path d="M29.683 45.5659C29.681 45.5659 29.6789 45.5655 29.677 45.5648C29.6751 45.564 29.6734 45.5629 29.6719 45.5615C29.6704 45.56 29.6693 45.5583 29.6685 45.5565C29.6677 45.5546 29.6672 45.5526 29.6672 45.5506L29.6672 32.791C29.6673 32.787 29.669 32.7831 29.6719 32.7802C29.6749 32.7774 29.6789 32.7758 29.683 32.7758C29.6872 32.7758 29.6912 32.7774 29.6941 32.7802C29.6971 32.7831 29.6988 32.787 29.6988 32.791L29.6988 45.5506C29.6988 45.5526 29.6984 45.5546 29.6976 45.5565C29.6968 45.5583 29.6956 45.56 29.6942 45.5615C29.6927 45.5629 29.691 45.564 29.689 45.5648C29.6871 45.5655 29.6851 45.5659 29.683 45.5659Z" fill="#002B34"/>
<path d="M28.7265 45.5659C28.7244 45.5659 28.7224 45.5655 28.7205 45.5648C28.7186 45.564 28.7168 45.5629 28.7153 45.5615C28.7139 45.56 28.7127 45.5583 28.7119 45.5565C28.7111 45.5546 28.7107 45.5526 28.7107 45.5506L28.7107 32.791C28.7107 32.787 28.7124 32.7831 28.7154 32.7802C28.7183 32.7774 28.7223 32.7758 28.7265 32.7758C28.7306 32.7758 28.7346 32.7774 28.7376 32.7802C28.7405 32.7831 28.7422 32.787 28.7423 32.791L28.7423 45.5506C28.7423 45.5526 28.7418 45.5546 28.741 45.5565C28.7403 45.5583 28.7391 45.56 28.7376 45.5615C28.7362 45.5629 28.7344 45.564 28.7325 45.5648C28.7306 45.5655 28.7285 45.5659 28.7265 45.5659Z" fill="#002B34"/>
<path d="M30.6391 45.5659C30.637 45.5659 30.635 45.5655 30.6331 45.5648C30.6311 45.564 30.6294 45.5629 30.6279 45.5615C30.6265 45.56 30.6253 45.5583 30.6245 45.5565C30.6237 45.5546 30.6233 45.5526 30.6233 45.5506L30.6233 32.791C30.6233 32.787 30.625 32.7831 30.628 32.7802C30.6309 32.7774 30.6349 32.7758 30.6391 32.7758C30.6432 32.7758 30.6472 32.7774 30.6502 32.7802C30.6531 32.7831 30.6548 32.787 30.6549 32.791L30.6549 45.5506C30.6549 45.5526 30.6544 45.5546 30.6536 45.5565C30.6528 45.5583 30.6517 45.56 30.6502 45.5615C30.6487 45.5629 30.647 45.564 30.6451 45.5648C30.6432 45.5655 30.6411 45.5659 30.6391 45.5659Z" fill="#002B34"/>
<path d="M27.3682 31.5403C27.2978 31.5412 27.228 31.5278 27.1627 31.5007C27.0955 31.4741 27.0387 31.4255 27.001 31.3625C26.9633 31.2994 26.9468 31.2253 26.954 31.1517C26.975 30.7144 27.3115 30.6494 27.5104 30.6494L29.7029 30.6494C29.7072 30.6494 29.7112 30.6511 29.7142 30.6542C29.7172 30.6573 29.7189 30.6615 29.7189 30.6659C29.7189 30.6702 29.7172 30.6744 29.7142 30.6775C29.7112 30.6806 29.7072 30.6823 29.7029 30.6823L27.5104 30.6823C27.2814 30.6823 27.0047 30.7642 26.986 31.1532C26.9788 31.2202 26.9935 31.2877 27.0277 31.3451C27.062 31.4025 27.1139 31.4465 27.1752 31.4702C27.3477 31.5458 27.5962 31.5043 27.7065 31.3824C27.7412 31.3486 27.7652 31.3047 27.7752 31.2566C27.7853 31.2085 27.7809 31.1584 27.7628 31.1129C27.7401 31.0598 27.7033 31.0143 27.6567 30.9817C27.6101 30.949 27.5555 30.9306 27.4992 30.9283C27.494 30.928 27.4889 30.928 27.4839 30.928C27.4588 30.9262 27.4335 30.9298 27.4097 30.9383C27.3859 30.9469 27.364 30.9603 27.3454 30.9777C27.3142 31.0133 27.2972 31.0598 27.2978 31.1078C27.2979 31.1099 27.2976 31.1121 27.2969 31.1141C27.2962 31.1162 27.2951 31.1181 27.2937 31.1197C27.2922 31.1213 27.2905 31.1226 27.2886 31.1235C27.2867 31.1244 27.2847 31.1249 27.2826 31.125L27.2818 31.125C27.2777 31.1251 27.2737 31.1235 27.2707 31.1205C27.2677 31.1176 27.266 31.1136 27.2658 31.1094C27.2645 31.0522 27.2848 30.9967 27.3223 30.9546C27.3461 30.9319 27.3743 30.9149 27.4052 30.9047C27.436 30.8945 27.4686 30.8913 27.5007 30.8954C27.5631 30.898 27.6236 30.9185 27.6752 30.9547C27.7268 30.991 27.7674 31.0414 27.7925 31.1003C27.8126 31.1518 27.8175 31.2082 27.8064 31.2625C27.7952 31.3168 27.7687 31.3664 27.7301 31.4051C27.6516 31.4917 27.5091 31.5403 27.3682 31.5403Z" fill="#002B34"/>
<path d="M27.9673 31.8375L27.9673 32.5558L31.1364 32.5558L31.1364 31.1389L28.4037 31.1389L27.9673 31.8375Z" fill="#94C358"/>
<path d="M31.8697 31.5403C31.7288 31.5403 31.5863 31.4917 31.508 31.4051C31.4694 31.3664 31.4429 31.3168 31.4317 31.2625C31.4206 31.2083 31.4253 31.1518 31.4454 31.1003C31.4705 31.0414 31.5111 30.991 31.5627 30.9547C31.6143 30.9185 31.6748 30.898 31.7372 30.8954C31.7693 30.8913 31.8019 30.8945 31.8328 30.9047C31.8636 30.9149 31.8918 30.9319 31.9156 30.9546C31.9532 30.9967 31.9735 31.0522 31.9723 31.1094C31.9721 31.1136 31.9704 31.1176 31.9674 31.1205C31.9644 31.1235 31.9604 31.1251 31.9563 31.125L31.9555 31.125C31.9513 31.1248 31.9473 31.1228 31.9445 31.1196C31.9416 31.1164 31.9401 31.1121 31.9403 31.1078C31.9408 31.0598 31.9238 31.0134 31.8927 30.9777C31.874 30.9603 31.8521 30.9469 31.8282 30.9383C31.8044 30.9298 31.7791 30.9263 31.754 30.928C31.749 30.928 31.7439 30.928 31.7387 30.9283C31.6824 30.9306 31.6278 30.949 31.5812 30.9817C31.5346 31.0143 31.4978 31.0598 31.4751 31.1129C31.457 31.1584 31.4527 31.2086 31.4628 31.2567C31.4729 31.3048 31.4969 31.3486 31.5316 31.3824C31.6415 31.5039 31.8895 31.5458 32.0629 31.4702C32.1242 31.4465 32.176 31.4025 32.2103 31.3451C32.2445 31.2877 32.2592 31.2202 32.2519 31.1532C32.2334 30.7642 31.9567 30.6823 31.7277 30.6823L29.7032 30.6823C29.699 30.6823 29.6949 30.6806 29.6919 30.6775C29.6889 30.6744 29.6873 30.6702 29.6873 30.6659C29.6873 30.6615 29.6889 30.6573 29.6919 30.6542C29.6949 30.6511 29.699 30.6494 29.7032 30.6494L31.7277 30.6494C31.9266 30.6494 32.2631 30.7144 32.2839 31.1517C32.2911 31.2253 32.2746 31.2994 32.2369 31.3625C32.1992 31.4256 32.1424 31.4742 32.0752 31.5007C32.0099 31.5278 31.9401 31.5412 31.8697 31.5403Z" fill="#002B34"/>
<path d="M27.9681 31.9407C27.9653 31.9408 27.9626 31.94 27.9602 31.9386C27.9577 31.9371 27.9558 31.935 27.9544 31.9325C27.9534 31.9307 27.9526 31.9286 27.9523 31.9265C27.952 31.9244 27.9521 31.9222 27.9526 31.9201C27.9531 31.9181 27.9541 31.9161 27.9553 31.9144C27.9566 31.9127 27.9582 31.9112 27.96 31.9102C27.9643 31.9074 28.3857 31.6469 28.3361 31.225C28.3358 31.2226 28.3361 31.2203 28.3368 31.2181C28.3375 31.2159 28.3386 31.2138 28.3401 31.212C28.3416 31.2103 28.3434 31.2089 28.3455 31.208C28.3476 31.207 28.3498 31.2065 28.3521 31.2065L30.784 31.2065C30.7862 31.2065 30.7883 31.2069 30.7903 31.2078C30.7922 31.2087 30.794 31.21 30.7954 31.2116C30.7969 31.2132 30.7981 31.215 30.7989 31.217C30.7997 31.2191 30.8001 31.2212 30.8 31.2234C30.8 31.2281 30.7971 31.6994 31.1708 31.8318C31.1748 31.8333 31.1781 31.8363 31.18 31.8403C31.1819 31.8442 31.1822 31.8488 31.1809 31.853C31.1793 31.857 31.1764 31.8603 31.1726 31.8621C31.1688 31.864 31.1645 31.8644 31.1605 31.8632C30.8061 31.7374 30.7716 31.3276 30.7684 31.2395L28.3698 31.2395C28.4078 31.672 27.9807 31.936 27.9763 31.9384C27.9738 31.9399 27.971 31.9407 27.9681 31.9407Z" fill="#002B34"/>
<path d="M31.0263 32.5716L28.1271 32.5716C28.1228 32.5716 28.1188 32.5699 28.1158 32.5668C28.1128 32.5637 28.1111 32.5595 28.1111 32.5551C28.1111 32.5508 28.1128 32.5466 28.1158 32.5435C28.1188 32.5404 28.1228 32.5387 28.1271 32.5387L31.0263 32.5387C31.0306 32.5387 31.0346 32.5404 31.0376 32.5435C31.0406 32.5466 31.0423 32.5508 31.0423 32.5551C31.0423 32.5595 31.0406 32.5637 31.0376 32.5668C31.0346 32.5699 31.0306 32.5716 31.0263 32.5716Z" fill="#002B34"/>
<path d="M31.0263 45.5667L28.1271 45.5667C28.1251 45.5667 28.1232 45.5663 28.1214 45.5656C28.1195 45.5648 28.1179 45.5637 28.1165 45.5623C28.1151 45.5609 28.114 45.5592 28.1132 45.5573C28.1125 45.5554 28.1121 45.5534 28.1121 45.5514C28.1121 45.5494 28.1125 45.5474 28.1132 45.5455C28.114 45.5437 28.1151 45.542 28.1165 45.5405C28.1179 45.5391 28.1195 45.538 28.1214 45.5372C28.1232 45.5365 28.1251 45.5361 28.1271 45.5361L31.0263 45.5361C31.0283 45.5361 31.0302 45.5365 31.0321 45.5372C31.0339 45.538 31.0356 45.5391 31.0369 45.5405C31.0383 45.542 31.0395 45.5437 31.0402 45.5455C31.041 45.5474 31.0414 45.5494 31.0414 45.5514C31.0414 45.5534 31.041 45.5554 31.0402 45.5573C31.0395 45.5592 31.0383 45.5609 31.0369 45.5623C31.0356 45.5637 31.0339 45.5648 31.0321 45.5656C31.0302 45.5663 31.0283 45.5667 31.0263 45.5667Z" fill="#002B34"/>
<path d="M23.3094 30.4449L17.616 30.4449C17.616 30.4449 16.9666 30.8429 17.3615 31.5415C17.6456 32.0443 18.3452 32.065 18.7746 31.9234L18.7746 32.555L18.9343 32.555L18.9343 46.7886L21.8336 46.7886L21.8336 32.555L21.9438 32.555L21.9438 31.8298C22.3058 32.0563 23.227 32.1377 23.564 31.5415C23.9588 30.8429 23.3094 30.4449 23.3094 30.4449Z" fill="#94C358"/>
<path d="M18.9348 46.8046C18.9306 46.8046 18.9265 46.8028 18.9236 46.7998C18.9206 46.7967 18.9189 46.7925 18.9188 46.7882L18.9188 32.5712L18.7751 32.5712C18.7709 32.5712 18.7669 32.5694 18.7639 32.5664C18.7609 32.5633 18.7592 32.5591 18.7591 32.5548L18.7591 31.9456C18.3598 32.069 17.6419 32.0694 17.348 31.5495C17.0295 30.9857 17.379 30.5712 17.6084 30.4306C17.6101 30.4294 17.6121 30.4287 17.6142 30.4283C17.6163 30.428 17.6184 30.428 17.6204 30.4286C17.6225 30.4291 17.6244 30.43 17.6261 30.4313C17.6278 30.4326 17.6292 30.4342 17.6302 30.4361C17.6324 30.4398 17.6331 30.4443 17.6321 30.4486C17.631 30.4529 17.6284 30.4565 17.6247 30.4588C17.5988 30.4749 16.9938 30.8568 17.3758 31.533C17.6651 32.0447 18.3844 32.0345 18.7702 31.9076C18.7726 31.9068 18.7752 31.9065 18.7777 31.907C18.7802 31.9074 18.7826 31.9084 18.7847 31.9099C18.7866 31.9115 18.7883 31.9135 18.7894 31.9158C18.7905 31.9181 18.7911 31.9206 18.7911 31.9232L18.7911 32.5383L18.9348 32.5383C18.9391 32.5383 18.9431 32.5401 18.9461 32.5432C18.9491 32.5462 18.9508 32.5504 18.9508 32.5548L18.9508 46.7882C18.9508 46.7925 18.9491 46.7967 18.9461 46.7998C18.9431 46.8028 18.9391 46.8046 18.9348 46.8046Z" fill="#002B34"/>
<path d="M20.4906 45.5663C20.4886 45.5663 20.4865 45.5659 20.4846 45.5651C20.4827 45.5644 20.481 45.5632 20.4795 45.5618C20.478 45.5604 20.4769 45.5587 20.4761 45.5569C20.4753 45.555 20.4749 45.553 20.4749 45.551L20.4749 32.7914C20.4749 32.7873 20.4766 32.7835 20.4795 32.7806C20.4825 32.7777 20.4865 32.7761 20.4906 32.7761C20.4948 32.7761 20.4988 32.7777 20.5017 32.7806C20.5047 32.7835 20.5064 32.7873 20.5064 32.7914L20.5064 45.551C20.5064 45.553 20.506 45.555 20.5052 45.5569C20.5044 45.5587 20.5032 45.5604 20.5018 45.5618C20.5003 45.5632 20.4986 45.5644 20.4967 45.5651C20.4947 45.5659 20.4927 45.5663 20.4906 45.5663Z" fill="#002B34"/>
<path d="M19.5343 45.5662C19.5323 45.5663 19.5302 45.5659 19.5283 45.5651C19.5264 45.5644 19.5247 45.5632 19.5232 45.5618C19.5217 45.5604 19.5206 45.5587 19.5198 45.5568C19.519 45.555 19.5186 45.553 19.5186 45.551L19.5186 32.7914C19.5186 32.7873 19.5203 32.7834 19.5233 32.7806C19.5262 32.7777 19.5302 32.7761 19.5343 32.7761C19.5385 32.7761 19.5425 32.7777 19.5454 32.7806C19.5484 32.7834 19.5501 32.7873 19.5501 32.7914L19.5501 45.551C19.5501 45.553 19.5497 45.555 19.5489 45.5568C19.5481 45.5587 19.5469 45.5604 19.5455 45.5618C19.544 45.5632 19.5423 45.5644 19.5404 45.5651C19.5384 45.5659 19.5364 45.5663 19.5343 45.5662Z" fill="#002B34"/>
<path d="M21.4452 45.5661C21.4432 45.5661 21.4411 45.5658 21.4392 45.565C21.4373 45.5642 21.4356 45.5631 21.4341 45.5617C21.4326 45.5603 21.4315 45.5586 21.4307 45.5567C21.4299 45.5549 21.4295 45.5529 21.4294 45.5508L21.4294 32.7913C21.4295 32.7872 21.4312 32.7833 21.4341 32.7805C21.4371 32.7776 21.4411 32.776 21.4452 32.776C21.4494 32.776 21.4534 32.7776 21.4563 32.7805C21.4593 32.7833 21.461 32.7872 21.461 32.7913L21.461 45.5508C21.461 45.5529 21.4606 45.5549 21.4598 45.5567C21.459 45.5586 21.4578 45.5603 21.4564 45.5617C21.4549 45.5631 21.4532 45.5642 21.4513 45.565C21.4493 45.5658 21.4473 45.5661 21.4452 45.5661Z" fill="#002B34"/>
<path d="M18.1758 31.5407C18.1055 31.5416 18.0356 31.5281 17.9703 31.5011C17.9031 31.4745 17.8463 31.4259 17.8087 31.3628C17.771 31.2998 17.7545 31.2257 17.7617 31.152C17.7824 30.7148 18.1191 30.6498 18.318 30.6498L20.5103 30.6498C20.5146 30.6498 20.5187 30.6515 20.5216 30.6546C20.5246 30.6577 20.5263 30.6619 20.5263 30.6662C20.5263 30.6706 20.5246 30.6748 20.5216 30.6779C20.5187 30.681 20.5146 30.6827 20.5103 30.6827L18.318 30.6827C18.089 30.6827 17.8121 30.7646 17.7936 31.1536C17.7864 31.2206 17.8011 31.2881 17.8353 31.3455C17.8696 31.4029 17.9215 31.4469 17.9828 31.4705C18.1557 31.5461 18.4041 31.5046 18.5141 31.3828C18.5488 31.349 18.5728 31.3051 18.5828 31.257C18.5929 31.2089 18.5886 31.1588 18.5704 31.1132C18.5477 31.0601 18.511 31.0147 18.4643 30.982C18.4177 30.9494 18.3631 30.9309 18.3068 30.9287C18.3017 30.9283 18.2965 30.9283 18.2916 30.9283C18.2664 30.9266 18.2412 30.9301 18.2174 30.9387C18.1935 30.9472 18.1717 30.9606 18.153 30.9781C18.1218 31.0137 18.1048 31.0602 18.1054 31.1081C18.1055 31.1103 18.1052 31.1125 18.1045 31.1145C18.1038 31.1165 18.1027 31.1184 18.1013 31.12C18.0999 31.1216 18.0982 31.1229 18.0963 31.1238C18.0944 31.1248 18.0923 31.1253 18.0902 31.1254L18.0894 31.1254C18.0853 31.1254 18.0813 31.1238 18.0783 31.1209C18.0753 31.118 18.0736 31.114 18.0734 31.1097C18.0721 31.0526 18.0924 30.9971 18.13 30.955C18.1537 30.9323 18.182 30.9153 18.2128 30.9051C18.2436 30.8949 18.2762 30.8917 18.3083 30.8958C18.3707 30.8983 18.4312 30.9189 18.4828 30.9551C18.5344 30.9913 18.5751 31.0418 18.6001 31.1007C18.6203 31.1522 18.6251 31.2086 18.614 31.2629C18.6029 31.3172 18.5763 31.3668 18.5377 31.4055C18.4593 31.4921 18.3167 31.5407 18.1758 31.5407Z" fill="#002B34"/>
<path d="M22.6768 31.5407C22.5359 31.5407 22.3933 31.4921 22.3151 31.4055C22.2765 31.3668 22.2499 31.3172 22.2388 31.2629C22.2276 31.2086 22.2324 31.1522 22.2525 31.1007C22.2776 31.0418 22.3182 30.9913 22.3699 30.9551C22.4215 30.9188 22.482 30.8983 22.5445 30.8958C22.5766 30.8919 22.6091 30.8952 22.6398 30.9054C22.6706 30.9156 22.6988 30.9325 22.7226 30.955C22.7602 30.9971 22.7805 31.0526 22.7792 31.1097C22.779 31.114 22.7773 31.118 22.7743 31.1209C22.7713 31.1238 22.7673 31.1254 22.7632 31.1254L22.7624 31.1254C22.7603 31.1253 22.7583 31.1248 22.7563 31.1238C22.7544 31.1229 22.7527 31.1216 22.7513 31.12C22.7499 31.1184 22.7488 31.1165 22.7481 31.1145C22.7474 31.1125 22.7471 31.1103 22.7472 31.1081C22.7478 31.0602 22.7308 31.0137 22.6996 30.9781C22.6789 30.9589 22.6545 30.9446 22.6279 30.9361C22.6014 30.9276 22.5734 30.9251 22.5458 30.9287C22.4895 30.9309 22.4349 30.9494 22.3883 30.982C22.3416 31.0147 22.3049 31.0601 22.2822 31.1132C22.2641 31.1588 22.2598 31.2089 22.2699 31.257C22.28 31.3051 22.304 31.349 22.3387 31.3828C22.4485 31.5042 22.6964 31.5461 22.8698 31.4705C22.9311 31.4469 22.9829 31.4029 23.0172 31.3455C23.0515 31.2881 23.0662 31.2205 23.059 31.1536C23.0405 30.7646 22.7636 30.6827 22.5346 30.6827L20.5101 30.6827C20.5059 30.6827 20.5018 30.681 20.4988 30.6779C20.4958 30.6748 20.4941 30.6706 20.4941 30.6662C20.4941 30.6619 20.4958 30.6577 20.4988 30.6546C20.5018 30.6515 20.5059 30.6498 20.5101 30.6498L22.5346 30.6498C22.7335 30.6498 23.0702 30.7148 23.0909 31.152C23.0981 31.2257 23.0816 31.2998 23.0439 31.3629C23.0062 31.426 22.9493 31.4745 22.8821 31.5011C22.8169 31.5281 22.7471 31.5416 22.6768 31.5407Z" fill="#002B34"/>
<path d="M18.776 31.9399C18.7732 31.9399 18.7704 31.9392 18.768 31.9377C18.7656 31.9363 18.7636 31.9342 18.7623 31.9316C18.7612 31.9298 18.7605 31.9278 18.7602 31.9257C18.7599 31.9235 18.76 31.9214 18.7605 31.9193C18.761 31.9172 18.7619 31.9153 18.7632 31.9135C18.7644 31.9118 18.766 31.9104 18.7678 31.9093C18.7722 31.9066 19.1936 31.646 19.1439 31.2241C19.1437 31.2218 19.1439 31.2194 19.1446 31.2172C19.1453 31.215 19.1464 31.2129 19.1479 31.2112C19.1494 31.2094 19.1513 31.2081 19.1533 31.2071C19.1554 31.2062 19.1577 31.2057 19.1599 31.2057L21.5919 31.2057C21.594 31.2056 21.5962 31.2061 21.5981 31.2069C21.6001 31.2078 21.6019 31.2091 21.6033 31.2108C21.6048 31.2123 21.606 31.2142 21.6068 31.2162C21.6075 31.2182 21.6079 31.2204 21.6079 31.2225C21.6079 31.2272 21.605 31.6985 21.9785 31.831C21.9825 31.8324 21.9858 31.8355 21.9877 31.8394C21.9896 31.8434 21.9899 31.8479 21.9885 31.8521C21.987 31.8561 21.984 31.8593 21.9803 31.8612C21.9765 31.8631 21.9722 31.8635 21.9682 31.8623C21.614 31.7365 21.5795 31.3268 21.5763 31.2386L19.1776 31.2386C19.2157 31.6711 18.7886 31.9352 18.7842 31.9375C18.7817 31.939 18.7789 31.9399 18.776 31.9399Z" fill="#002B34"/>
<path d="M21.8342 32.5721L18.9349 32.5721C18.9307 32.5721 18.9266 32.5704 18.9236 32.5673C18.9206 32.5642 18.9189 32.56 18.9189 32.5556C18.9189 32.5513 18.9206 32.5471 18.9236 32.544C18.9266 32.5409 18.9307 32.5392 18.9349 32.5392L21.8342 32.5392C21.8384 32.5392 21.8425 32.5409 21.8455 32.544C21.8485 32.5471 21.8502 32.5513 21.8502 32.5556C21.8502 32.56 21.8485 32.5642 21.8455 32.5673C21.8425 32.5704 21.8384 32.5721 21.8342 32.5721Z" fill="#002B34"/>
<path d="M21.8342 45.5671L18.9349 45.5671C18.933 45.5671 18.931 45.5667 18.9292 45.5659C18.9274 45.5652 18.9257 45.5641 18.9243 45.5626C18.9229 45.5612 18.9218 45.5595 18.9211 45.5577C18.9203 45.5558 18.9199 45.5538 18.9199 45.5518C18.9199 45.5498 18.9203 45.5478 18.9211 45.5459C18.9218 45.544 18.9229 45.5423 18.9243 45.5409C18.9257 45.5395 18.9274 45.5384 18.9292 45.5376C18.931 45.5369 18.933 45.5365 18.9349 45.5365L21.8342 45.5365C21.8362 45.5365 21.8381 45.5369 21.8399 45.5376C21.8417 45.5384 21.8434 45.5395 21.8448 45.5409C21.8462 45.5423 21.8473 45.544 21.8481 45.5459C21.8488 45.5478 21.8492 45.5498 21.8492 45.5518C21.8492 45.5538 21.8488 45.5558 21.8481 45.5577C21.8473 45.5595 21.8462 45.5612 21.8448 45.5626C21.8434 45.5641 21.8417 45.5652 21.8399 45.5659C21.8381 45.5667 21.8362 45.5671 21.8342 45.5671Z" fill="#002B34"/>
<path d="M45.1446 30.4451L50.8379 30.4451C50.8379 30.4451 51.4874 30.843 51.0925 31.5416C50.8084 32.0444 50.1088 32.0652 49.6794 31.9235L49.6794 32.5551L49.5197 32.5551L49.5197 46.7887L46.6204 46.7887L46.6204 32.5551L46.5102 32.5551L46.5102 31.8299C46.1482 32.0564 45.227 32.1378 44.89 31.5416C44.4952 30.843 45.1446 30.4451 45.1446 30.4451Z" fill="#94C358"/>
<path d="M49.5194 46.8046C49.5152 46.8046 49.5111 46.8028 49.5081 46.7997C49.5051 46.7967 49.5034 46.7925 49.5034 46.7881L49.5034 32.5547C49.5034 32.5504 49.5051 32.5462 49.5081 32.5431C49.5111 32.54 49.5152 32.5383 49.5194 32.5383L49.6633 32.5383L49.6633 31.9232C49.6633 31.9206 49.6639 31.9181 49.6651 31.9158C49.6662 31.9135 49.6678 31.9114 49.6698 31.9099C49.6718 31.9083 49.6742 31.9073 49.6767 31.9069C49.6792 31.9065 49.6818 31.9067 49.6842 31.9075C50.0695 32.0349 50.7892 32.045 51.0785 31.533C51.4609 30.8564 50.8358 30.4627 50.8295 30.4588C50.8258 30.4565 50.8232 30.4528 50.8222 30.4486C50.8211 30.4443 50.8218 30.4398 50.824 30.436C50.825 30.4341 50.8264 30.4325 50.8281 30.4312C50.8298 30.4299 50.8317 30.4289 50.8338 30.4284C50.8358 30.4279 50.838 30.4278 50.84 30.4282C50.8421 30.4286 50.8441 30.4294 50.8459 30.4306C51.0752 30.5712 51.4247 30.9857 51.1063 31.5494C50.8124 32.0693 50.0952 32.0685 49.6953 31.9455L49.6953 32.5547C49.6953 32.5591 49.6936 32.5633 49.6906 32.5663C49.6876 32.5694 49.6835 32.5712 49.6793 32.5712L49.5354 32.5712L49.5354 46.7881C49.5354 46.7925 49.5337 46.7967 49.5307 46.7997C49.5277 46.8028 49.5236 46.8046 49.5194 46.8046Z" fill="#002B34"/>
<path d="M47.966 45.566C47.9639 45.566 47.9619 45.5656 47.96 45.5649C47.9581 45.5641 47.9563 45.563 47.9548 45.5616C47.9534 45.5602 47.9522 45.5585 47.9514 45.5566C47.9506 45.5547 47.9502 45.5527 47.9502 45.5507L47.9502 32.7912C47.9502 32.7871 47.9519 32.7832 47.9549 32.7803C47.9578 32.7775 47.9618 32.7759 47.966 32.7759C47.9701 32.7759 47.9741 32.7775 47.9771 32.7803C47.98 32.7832 47.9817 32.7871 47.9818 32.7912L47.9818 45.5507C47.9818 45.5527 47.9813 45.5547 47.9806 45.5566C47.9798 45.5585 47.9786 45.5602 47.9771 45.5616C47.9756 45.563 47.9739 45.5641 47.972 45.5649C47.9701 45.5656 47.968 45.566 47.966 45.566Z" fill="#002B34"/>
<path d="M48.9223 45.566C48.9202 45.566 48.9182 45.5656 48.9163 45.5649C48.9144 45.5641 48.9126 45.563 48.9111 45.5616C48.9097 45.5602 48.9085 45.5585 48.9077 45.5566C48.9069 45.5547 48.9065 45.5527 48.9065 45.5507L48.9065 32.7912C48.9065 32.7871 48.9082 32.7832 48.9112 32.7803C48.9141 32.7775 48.9181 32.7759 48.9223 32.7759C48.9264 32.7759 48.9304 32.7775 48.9334 32.7803C48.9363 32.7832 48.938 32.7871 48.9381 32.7912L48.9381 45.5507C48.9381 45.5527 48.9376 45.5547 48.9368 45.5566C48.936 45.5585 48.9349 45.5602 48.9334 45.5616C48.9319 45.563 48.9302 45.5641 48.9283 45.5649C48.9264 45.5656 48.9243 45.566 48.9223 45.566Z" fill="#002B34"/>
<path d="M47.0111 45.5661C47.0091 45.5661 47.007 45.5658 47.0051 45.565C47.0032 45.5642 47.0015 45.5631 47 45.5617C46.9985 45.5603 46.9974 45.5586 46.9966 45.5567C46.9958 45.5549 46.9954 45.5529 46.9954 45.5508L46.9954 32.7913C46.9954 32.7872 46.9971 32.7833 47.0001 32.7805C47.003 32.7776 47.007 32.776 47.0112 32.776C47.0153 32.776 47.0193 32.7776 47.0223 32.7805C47.0252 32.7833 47.0269 32.7872 47.0269 32.7913L47.0269 45.5508C47.0269 45.5529 47.0265 45.5549 47.0257 45.5567C47.0249 45.5586 47.0238 45.5603 47.0223 45.5617C47.0208 45.5631 47.0191 45.5642 47.0172 45.565C47.0153 45.5658 47.0132 45.5661 47.0111 45.5661Z" fill="#002B34"/>
<path d="M50.279 31.5412C50.1381 31.5412 49.9955 31.4926 49.9173 31.406C49.8787 31.3673 49.8521 31.3177 49.841 31.2634C49.8298 31.2091 49.8346 31.1527 49.8547 31.1012C49.8797 31.0423 49.9204 30.9918 49.972 30.9556C50.0236 30.9194 50.0841 30.8988 50.1465 30.8963C50.1786 30.8922 50.2112 30.8953 50.242 30.9056C50.2728 30.9158 50.3011 30.9328 50.3248 30.9555C50.3624 30.9976 50.3828 31.053 50.3816 31.1102C50.3814 31.1144 50.3796 31.1185 50.3767 31.1214C50.3737 31.1243 50.3697 31.1259 50.3656 31.1259L50.3648 31.1259C50.3606 31.1256 50.3566 31.1237 50.3538 31.1205C50.3509 31.1172 50.3494 31.113 50.3496 31.1086C50.3501 31.0607 50.3331 31.0143 50.302 30.9786C50.2833 30.9611 50.2614 30.9477 50.2375 30.9392C50.2137 30.9306 50.1884 30.9271 50.1632 30.9288C50.1583 30.9288 50.1531 30.9288 50.148 30.9292C50.0917 30.9314 50.0371 30.9499 49.9905 30.9825C49.9438 31.0152 49.9071 31.0606 49.8844 31.1137C49.8663 31.1593 49.862 31.2094 49.8721 31.2575C49.8822 31.3056 49.9062 31.3495 49.9409 31.3833C50.0509 31.5047 50.2984 31.5466 50.472 31.471C50.5333 31.4474 50.5851 31.4034 50.6194 31.346C50.6537 31.2886 50.6684 31.221 50.6612 31.1541C50.6427 30.7651 50.3659 30.6832 50.137 30.6832L47.9445 30.6832C47.9402 30.6832 47.9361 30.6814 47.9331 30.6784C47.9301 30.6753 47.9285 30.6711 47.9285 30.6667C47.9285 30.6624 47.9301 30.6582 47.9331 30.6551C47.9361 30.652 47.9402 30.6503 47.9445 30.6503L50.137 30.6503C50.3359 30.6503 50.6724 30.7153 50.6931 31.1525C50.7004 31.2262 50.6838 31.3003 50.6461 31.3634C50.6084 31.4265 50.5515 31.475 50.4843 31.5016C50.4191 31.5286 50.3493 31.5421 50.279 31.5412Z" fill="#002B34"/>
<path d="M45.7779 31.5408C45.7075 31.5417 45.6376 31.5282 45.5723 31.5012C45.5052 31.4746 45.4484 31.426 45.4107 31.363C45.373 31.2999 45.3565 31.2258 45.3637 31.1522C45.3845 30.7149 45.7212 30.6499 45.9201 30.6499L47.9445 30.6499C47.9488 30.6499 47.9528 30.6516 47.9558 30.6547C47.9588 30.6578 47.9605 30.662 47.9605 30.6664C47.9605 30.6707 47.9588 30.6749 47.9558 30.678C47.9528 30.6811 47.9488 30.6828 47.9445 30.6828L45.9201 30.6828C45.6911 30.6828 45.4142 30.7647 45.3957 31.1537C45.3885 31.2207 45.4031 31.2882 45.4374 31.3456C45.4717 31.403 45.5236 31.447 45.5849 31.4707C45.7575 31.5463 46.0059 31.5047 46.1161 31.3829C46.1509 31.3491 46.1748 31.3052 46.1849 31.2571C46.1949 31.209 46.1906 31.1589 46.1725 31.1134C46.1498 31.0603 46.113 31.0148 46.0664 30.9822C46.0198 30.9495 45.9652 30.9311 45.9088 30.9288C45.9037 30.9284 45.8986 30.9284 45.8936 30.9284C45.8685 30.9267 45.8432 30.9302 45.8194 30.9388C45.7956 30.9473 45.7737 30.9607 45.755 30.9782C45.7238 31.0138 45.7068 31.0603 45.7075 31.1083C45.7076 31.1104 45.7073 31.1126 45.7066 31.1146C45.7058 31.1167 45.7047 31.1185 45.7033 31.1201C45.7019 31.1217 45.7002 31.123 45.6983 31.124C45.6964 31.1249 45.6943 31.1254 45.6922 31.1255L45.6915 31.1255C45.6874 31.1256 45.6834 31.124 45.6804 31.121C45.6774 31.1181 45.6756 31.1141 45.6755 31.1098C45.6742 31.0527 45.6944 30.9972 45.732 30.9551C45.7557 30.9324 45.784 30.9154 45.8148 30.9052C45.8456 30.8949 45.8782 30.8918 45.9104 30.8959C45.9728 30.8984 46.0333 30.919 46.0849 30.9552C46.1365 30.9915 46.1771 31.0419 46.2022 31.1008C46.2223 31.1523 46.2271 31.2087 46.216 31.263C46.2049 31.3173 46.1783 31.3669 46.1397 31.4056C46.0613 31.4922 45.9187 31.5408 45.7779 31.5408Z" fill="#002B34"/>
<path d="M49.6801 31.9406C49.6772 31.9406 49.6744 31.9398 49.6719 31.9383C49.6675 31.9359 49.2402 31.6719 49.2783 31.2393L46.8798 31.2393C46.8766 31.3275 46.8421 31.7373 46.4877 31.863C46.4837 31.8642 46.4794 31.8639 46.4756 31.862C46.4719 31.8601 46.4689 31.8569 46.4674 31.8529C46.466 31.8487 46.4663 31.8441 46.4682 31.8402C46.4701 31.8362 46.4734 31.8332 46.4775 31.8317C46.8511 31.6993 46.8482 31.228 46.8482 31.2233C46.8482 31.2211 46.8486 31.2189 46.8493 31.2169C46.8501 31.2149 46.8513 31.2131 46.8528 31.2115C46.8542 31.2099 46.856 31.2086 46.858 31.2077C46.8599 31.2068 46.8621 31.2064 46.8642 31.2064L49.296 31.2064C49.2983 31.2064 49.3005 31.2069 49.3026 31.2078C49.3046 31.2088 49.3065 31.2102 49.308 31.2119C49.3095 31.2137 49.3106 31.2157 49.3113 31.218C49.312 31.2202 49.3122 31.2225 49.312 31.2248C49.2623 31.6472 49.6839 31.9073 49.6883 31.91C49.6913 31.9119 49.6936 31.9147 49.695 31.918C49.6963 31.9214 49.6965 31.9251 49.6955 31.9285C49.6946 31.932 49.6926 31.9351 49.6898 31.9373C49.687 31.9394 49.6836 31.9406 49.6801 31.9406Z" fill="#002B34"/>
<path d="M49.5202 32.572L46.621 32.572C46.6167 32.572 46.6127 32.5702 46.6097 32.5672C46.6067 32.5641 46.605 32.5599 46.605 32.5555C46.605 32.5512 46.6067 32.547 46.6097 32.5439C46.6127 32.5408 46.6167 32.5391 46.621 32.5391L49.5202 32.5391C49.5245 32.5391 49.5285 32.5408 49.5315 32.5439C49.5345 32.547 49.5362 32.5512 49.5362 32.5555C49.5362 32.5599 49.5345 32.5641 49.5315 32.5672C49.5285 32.5702 49.5245 32.572 49.5202 32.572Z" fill="#002B34"/>
<path d="M49.5205 45.5658L46.6212 45.5658C46.6193 45.5659 46.6173 45.5655 46.6155 45.5647C46.6137 45.564 46.612 45.5628 46.6106 45.5614C46.6092 45.56 46.6081 45.5583 46.6073 45.5564C46.6066 45.5546 46.6062 45.5526 46.6062 45.5506C46.6062 45.5485 46.6066 45.5465 46.6073 45.5447C46.6081 45.5428 46.6092 45.5411 46.6106 45.5397C46.612 45.5383 46.6137 45.5371 46.6155 45.5364C46.6173 45.5356 46.6193 45.5353 46.6212 45.5353L49.5205 45.5353C49.5224 45.5353 49.5244 45.5356 49.5262 45.5364C49.528 45.5371 49.5297 45.5383 49.5311 45.5397C49.5325 45.5411 49.5336 45.5428 49.5344 45.5447C49.5351 45.5465 49.5355 45.5485 49.5355 45.5506C49.5355 45.5526 49.5351 45.5546 49.5344 45.5564C49.5336 45.5583 49.5325 45.56 49.5311 45.5614C49.5297 45.5628 49.528 45.564 49.5262 45.5647C49.5244 45.5655 49.5224 45.5659 49.5205 45.5658Z" fill="#002B34"/>
<path d="M40.2206 30.4452L37.3213 30.4452L37.3213 46.7888L40.2206 46.7888L40.2206 30.4452Z" fill="#94C358"/>
<path d="M38.1071 30.4456L36.003 30.4456C36.003 30.4456 35.3536 30.8435 35.7484 31.5421C36.1472 32.2476 37.3642 32.0044 37.5045 31.6944C37.6447 31.3845 38.1071 30.4456 38.1071 30.4456Z" fill="#94C358"/>
<path d="M39.5911 30.4453L41.6952 30.4453C41.6952 30.4453 42.3446 30.8432 41.9497 31.5419C41.551 32.2473 40.334 32.0041 40.1937 31.6942C40.0534 31.3842 39.5911 30.4453 39.5911 30.4453Z" fill="#94C358"/>
<path d="M38.8769 45.5656C38.8748 45.5657 38.8728 45.5653 38.8709 45.5645C38.8689 45.5638 38.8672 45.5626 38.8657 45.5612C38.8643 45.5598 38.8631 45.5581 38.8623 45.5562C38.8615 45.5544 38.8611 45.5524 38.8611 45.5504L38.8611 32.7908C38.8611 32.7867 38.8628 32.7828 38.8658 32.78C38.8687 32.7771 38.8727 32.7755 38.8769 32.7755C38.881 32.7755 38.885 32.7771 38.888 32.78C38.8909 32.7828 38.8926 32.7867 38.8927 32.7908L38.8927 45.5504C38.8927 45.5524 38.8922 45.5544 38.8914 45.5562C38.8906 45.5581 38.8895 45.5598 38.888 45.5612C38.8865 45.5626 38.8848 45.5638 38.8829 45.5645C38.881 45.5653 38.8789 45.5657 38.8769 45.5656Z" fill="#002B34"/>
<path d="M37.9203 45.5656C37.9183 45.5657 37.9162 45.5653 37.9143 45.5645C37.9124 45.5638 37.9107 45.5626 37.9092 45.5612C37.9077 45.5598 37.9066 45.5581 37.9058 45.5562C37.905 45.5544 37.9045 45.5524 37.9045 45.5504L37.9045 32.7908C37.9046 32.7867 37.9063 32.7828 37.9092 32.78C37.9122 32.7771 37.9162 32.7755 37.9203 32.7755C37.9245 32.7755 37.9285 32.7771 37.9314 32.78C37.9344 32.7828 37.9361 32.7867 37.9361 32.7908L37.9361 45.5504C37.9361 45.5524 37.9357 45.5544 37.9349 45.5562C37.9341 45.5581 37.9329 45.5598 37.9315 45.5612C37.93 45.5626 37.9283 45.5638 37.9263 45.5645C37.9244 45.5653 37.9224 45.5657 37.9203 45.5656Z" fill="#002B34"/>
<path d="M39.8315 45.5655C39.8294 45.5655 39.8274 45.5652 39.8254 45.5644C39.8235 45.5636 39.8218 45.5625 39.8203 45.5611C39.8189 45.5597 39.8177 45.558 39.8169 45.5561C39.8161 45.5543 39.8157 45.5523 39.8157 45.5502L39.8157 32.7907C39.8157 32.7866 39.8174 32.7827 39.8204 32.7799C39.8233 32.777 39.8273 32.7754 39.8315 32.7754C39.8356 32.7754 39.8396 32.777 39.8426 32.7799C39.8455 32.7827 39.8472 32.7866 39.8473 32.7907L39.8473 45.5502C39.8472 45.5523 39.8468 45.5543 39.846 45.5561C39.8452 45.558 39.8441 45.5597 39.8426 45.5611C39.8411 45.5625 39.8394 45.5636 39.8375 45.5644C39.8356 45.5652 39.8335 45.5655 39.8315 45.5655Z" fill="#002B34"/>
<path d="M36.5621 31.5401C36.4916 31.541 36.4217 31.5275 36.3563 31.5005C36.2892 31.4739 36.2325 31.4253 36.1948 31.3622C36.1571 31.2991 36.1407 31.2251 36.1479 31.1514C36.1687 30.7142 36.5052 30.6492 36.7041 30.6492L38.8966 30.6492C38.9008 30.6492 38.9049 30.6509 38.9079 30.654C38.9109 30.6571 38.9126 30.6613 38.9126 30.6656C38.9126 30.67 38.9109 30.6742 38.9079 30.6773C38.9049 30.6803 38.9008 30.6821 38.8966 30.6821L36.7041 30.6821C36.4751 30.6821 36.1984 30.764 36.1799 31.153C36.1726 31.2199 36.1873 31.2875 36.2215 31.3449C36.2557 31.4023 36.3076 31.4463 36.3689 31.4699C36.5415 31.5455 36.7901 31.504 36.9001 31.3822C36.9349 31.3484 36.9589 31.3045 36.9689 31.2564C36.979 31.2083 36.9748 31.1582 36.9567 31.1126C36.934 31.0595 36.8972 31.0141 36.8506 30.9814C36.804 30.9488 36.7494 30.9303 36.693 30.9281C36.6879 30.9277 36.6828 30.9277 36.6778 30.9277C36.6526 30.926 36.6273 30.9295 36.6034 30.9381C36.5796 30.9466 36.5576 30.96 36.5389 30.9775C36.5077 31.0131 36.4908 31.0596 36.4915 31.1075C36.4916 31.1097 36.4913 31.1119 36.4906 31.1139C36.4898 31.1159 36.4888 31.1178 36.4873 31.1194C36.4859 31.121 36.4842 31.1223 36.4823 31.1232C36.4804 31.1242 36.4783 31.1247 36.4762 31.1248L36.4755 31.1248C36.4714 31.1248 36.4674 31.1232 36.4644 31.1203C36.4614 31.1174 36.4596 31.1134 36.4595 31.1091C36.4583 31.0519 36.4786 30.9965 36.5162 30.9544C36.5399 30.9317 36.5682 30.9146 36.599 30.9044C36.6298 30.8942 36.6624 30.8911 36.6946 30.8952C36.757 30.8977 36.8175 30.9183 36.8691 30.9545C36.9207 30.9907 36.9613 31.0412 36.9864 31.1001C37.0064 31.1516 37.0112 31.208 37.0001 31.2623C36.9889 31.3166 36.9623 31.3662 36.9237 31.4049C36.8453 31.4915 36.7028 31.5401 36.5621 31.5401Z" fill="#002B34"/>
<path d="M37.1611 31.8373L37.1611 32.5556L40.3303 32.5556L40.3303 31.1387L37.5976 31.1387L37.1611 31.8373Z" fill="#94C358"/>
<path d="M41.0637 31.5401C40.9229 31.5401 40.7803 31.4915 40.7019 31.4049C40.6633 31.3662 40.6367 31.3166 40.6255 31.2623C40.6144 31.208 40.6192 31.1516 40.6393 31.1001C40.6643 31.0412 40.705 30.9908 40.7566 30.9545C40.8082 30.9183 40.8686 30.8977 40.931 30.8952C40.9632 30.8911 40.9958 30.8942 41.0266 30.9045C41.0574 30.9147 41.0857 30.9317 41.1094 30.9544C41.147 30.9965 41.1673 31.0519 41.1661 31.1091C41.166 31.1134 41.1642 31.1174 41.1612 31.1203C41.1582 31.1232 41.1543 31.1248 41.1501 31.1248L41.1494 31.1248C41.1451 31.1245 41.1412 31.1226 41.1383 31.1194C41.1355 31.1161 41.134 31.1119 41.1341 31.1075C41.1347 31.0596 41.1177 31.0132 41.0866 30.9775C41.0678 30.96 41.0459 30.9466 41.0221 30.9381C40.9982 30.9295 40.973 30.926 40.9478 30.9277C40.9429 30.9277 40.9377 30.9277 40.9326 30.9281C40.8762 30.9303 40.8216 30.9488 40.775 30.9814C40.7284 31.0141 40.6917 31.0595 40.669 31.1126C40.6509 31.1582 40.6466 31.2083 40.6567 31.2564C40.6668 31.3045 40.6908 31.3483 40.7255 31.3822C40.8357 31.504 41.0843 31.5455 41.2567 31.4699C41.318 31.4463 41.3699 31.4023 41.4042 31.3449C41.4385 31.2875 41.4532 31.2199 41.4459 31.153C41.4273 30.764 41.1505 30.6821 40.9215 30.6821L38.8971 30.6821C38.8929 30.6821 38.8888 30.6803 38.8858 30.6773C38.8828 30.6742 38.8811 30.67 38.8811 30.6656C38.8811 30.6613 38.8828 30.6571 38.8858 30.654C38.8888 30.6509 38.8929 30.6492 38.8971 30.6492L40.9215 30.6492C41.1204 30.6492 41.457 30.7142 41.4779 31.1514C41.4851 31.2251 41.4686 31.2992 41.4309 31.3622C41.3932 31.4253 41.3364 31.4739 41.2693 31.5005C41.204 31.5275 41.1341 31.5409 41.0637 31.5401Z" fill="#002B34"/>
<path d="M37.1606 31.9404C37.1571 31.9404 37.1536 31.9392 37.1508 31.937C37.1481 31.9348 37.146 31.9318 37.1451 31.9283C37.1442 31.9248 37.1444 31.9211 37.1457 31.9178C37.147 31.9144 37.1494 31.9116 37.1524 31.9098C37.1567 31.9071 37.5783 31.6465 37.5285 31.2246C37.5283 31.2223 37.5285 31.2199 37.5292 31.2177C37.5299 31.2155 37.531 31.2134 37.5325 31.2117C37.534 31.2099 37.5358 31.2086 37.5379 31.2076C37.54 31.2067 37.5422 31.2062 37.5445 31.2062L39.9764 31.2062C39.9786 31.2061 39.9807 31.2065 39.9827 31.2074C39.9847 31.2083 39.9864 31.2096 39.9878 31.2113C39.9893 31.2128 39.9905 31.2146 39.9913 31.2167C39.9921 31.2187 39.9925 31.2209 39.9924 31.223C39.9924 31.2277 39.9896 31.699 40.3632 31.8314C40.3672 31.8329 40.3705 31.836 40.3724 31.8399C40.3743 31.8439 40.3746 31.8484 40.3733 31.8526C40.3718 31.8566 40.3688 31.8599 40.3651 31.8618C40.3613 31.8637 40.3569 31.8641 40.3529 31.8628C39.9985 31.737 39.9641 31.3272 39.9608 31.2391L37.5624 31.2391C37.6004 31.6716 37.1731 31.9357 37.1687 31.938C37.1663 31.9395 37.1634 31.9403 37.1606 31.9404Z" fill="#002B34"/>
<path d="M40.2204 32.5714L37.3209 32.5714C37.3167 32.5714 37.3126 32.5696 37.3096 32.5665C37.3066 32.5635 37.3049 32.5593 37.3049 32.5549C37.3049 32.5505 37.3066 32.5464 37.3096 32.5433C37.3126 32.5402 37.3167 32.5385 37.3209 32.5385L40.2204 32.5385C40.2246 32.5385 40.2287 32.5402 40.2317 32.5433C40.2347 32.5464 40.2363 32.5505 40.2363 32.5549C40.2363 32.5593 40.2347 32.5635 40.2317 32.5665C40.2287 32.5696 40.2246 32.5714 40.2204 32.5714Z" fill="#002B34"/>
<path d="M40.2204 45.5664L37.3209 45.5664C37.319 45.5665 37.317 45.5661 37.3152 45.5653C37.3134 45.5646 37.3117 45.5635 37.3103 45.562C37.3089 45.5606 37.3078 45.5589 37.3071 45.5571C37.3063 45.5552 37.3059 45.5532 37.3059 45.5512C37.3059 45.5491 37.3063 45.5471 37.3071 45.5453C37.3078 45.5434 37.3089 45.5417 37.3103 45.5403C37.3117 45.5389 37.3134 45.5378 37.3152 45.537C37.317 45.5362 37.319 45.5359 37.3209 45.5359L40.2204 45.5359C40.2223 45.5359 40.2243 45.5362 40.2261 45.537C40.2279 45.5378 40.2296 45.5389 40.231 45.5403C40.2324 45.5417 40.2335 45.5434 40.2343 45.5453C40.235 45.5471 40.2354 45.5491 40.2354 45.5512C40.2354 45.5532 40.235 45.5552 40.2343 45.5571C40.2335 45.5589 40.2324 45.5606 40.231 45.562C40.2296 45.5635 40.2279 45.5646 40.2261 45.5653C40.2243 45.5661 40.2223 45.5665 40.2204 45.5664Z" fill="#002B34"/>
<path d="M16.0796 30.4467L16.0796 29.6282L35.0163 20.0226L52.624 29.4469L52.6492 30.4451L16.0796 30.4467Z" fill="#94C358"/>
<path d="M51.1045 29.4336L51.1045 29.7601L17.7776 29.7601L17.7776 29.4896L34.7462 21.0244C34.8372 20.979 34.9373 20.9561 35.0385 20.9575C35.1397 20.9588 35.2392 20.9845 35.329 21.0324L51.1045 29.4336Z" fill="#015700"/>
<path d="M22.1265 28.7455L34.6852 22.421C34.7934 22.3666 34.9125 22.339 35.0329 22.3406C35.1533 22.3423 35.2717 22.373 35.3784 22.4304L47.1302 28.7455L22.1265 28.7455Z" fill="#479324"/>
<path d="M36.5 25.5C36.5 26.3284 35.8284 27 35 27C34.1716 27 33.5 26.3284 33.5 25.5C33.5 24.6716 34.1716 24 35 24C35.8284 24 36.5 24.6716 36.5 25.5Z" fill="#EABE00"/>
</g>
<path d="M54.991 21.475L54.4252 20.8166C54.3171 20.6916 54.2299 20.4583 54.2301 20.2916L54.2311 19.5833C54.2317 19.1416 53.8697 18.7791 53.4281 18.7791H52.7197C52.5572 18.7791 52.3199 18.6916 52.195 18.5833L51.5375 18.0167C51.2503 17.7708 50.7795 17.7708 50.4875 18.0167L49.8325 18.5875C49.7074 18.6916 49.4697 18.7791 49.3072 18.7791H48.5864C48.1447 18.7791 47.7817 19.1416 47.7811 19.5833L47.7801 20.2958C47.7799 20.4583 47.6921 20.6916 47.5877 20.8166L47.0243 21.4791C46.7822 21.7666 46.7816 22.2333 47.0229 22.5208L47.5844 23.1833C47.6884 23.3083 47.7756 23.5416 47.7754 23.7041L47.7744 24.4166C47.7738 24.8583 48.1358 25.2208 48.5774 25.2208H49.2983C49.4608 25.2208 49.6981 25.3083 49.823 25.4166L50.4805 25.9833C50.7677 26.2291 51.2385 26.2291 51.5305 25.9833L52.1896 25.4166C52.3148 25.3083 52.5483 25.2208 52.7149 25.2208H53.4233C53.8649 25.2208 54.2279 24.8583 54.2285 24.4166L54.2295 23.7083C54.2298 23.5458 54.3176 23.3083 54.4261 23.1833L54.9937 22.525C55.2358 22.2375 55.2364 21.7625 54.991 21.475ZM52.7413 21.2125L50.726 23.225C50.6676 23.2833 50.5884 23.3166 50.5051 23.3166C50.4217 23.3166 50.3426 23.2833 50.2844 23.225L49.2774 22.2166C49.1568 22.0958 49.1571 21.8958 49.2781 21.775C49.3991 21.6541 49.5991 21.6541 49.7197 21.775L50.5061 22.5625L52.3003 20.7708C52.4213 20.65 52.6213 20.65 52.742 20.7708C52.8626 20.8916 52.8623 21.0916 52.7413 21.2125Z" fill="#94C358"/>
<defs>
<clipPath id="clip0_1315_41005">
<rect width="38" height="29" fill="white" transform="translate(15 20)"/>
</clipPath>
</defs>
</svg>
