<svg width="80" height="80" viewBox="0 0 80 80" fill="none" xmlns="http://www.w3.org/2000/svg">
<path fill-rule="evenodd" clip-rule="evenodd" d="M61.5635 9.72217C62.9593 8.88884 64.9135 9.16661 65.751 10.5555C68.5426 14.4444 70.2176 19.1666 70.2176 24.1666C70.2176 29.1666 68.5426 33.8888 65.751 37.7777C64.9135 39.1666 62.9593 39.4444 61.5635 38.6111C60.1676 37.7777 59.8885 35.8333 60.726 34.4444C62.6801 31.3888 64.076 28.0555 64.076 24.1666C64.076 20.2777 62.9593 16.6666 60.726 13.8888C59.8885 12.4999 60.1676 10.5555 61.5635 9.72217Z" fill="#8B5CF6"/>
<path fill-rule="evenodd" clip-rule="evenodd" d="M45.9306 37.2224C53.189 37.2224 59.0515 31.3891 59.0515 24.1669C59.0515 16.9447 53.189 11.1113 45.9306 11.1113C38.6723 11.1113 32.8098 16.9447 32.8098 24.1669C32.8098 31.3891 38.6723 37.2224 45.9306 37.2224ZM38.9515 18.3336C41.1848 15.8336 44.5348 14.7224 47.8848 15.278C51.2348 15.8336 54.0265 18.0558 55.4223 22.5002C55.4223 23.0558 55.9806 23.3335 56.539 23.3335C57.0973 23.3335 57.3765 22.778 57.3765 22.2224C55.9806 17.2224 52.3515 14.4447 48.4431 13.6113C44.5348 12.778 40.3473 14.1669 37.5556 17.2224C37.2765 17.778 37.2765 18.3335 37.5556 18.6113C38.114 18.8891 38.6723 18.8891 38.9515 18.6113V18.3336ZM50.1181 17.778C49.5598 17.2224 48.4431 16.9447 47.3265 16.9447C46.2098 16.9447 45.0931 16.9447 43.6973 16.9447C42.3015 17.2224 41.1848 18.0558 40.0681 19.1669C38.9515 20.278 38.3931 22.2224 38.114 24.4447C38.114 26.1113 38.6723 28.3335 39.789 29.7224C40.9056 31.1113 42.8598 32.2224 45.0931 31.3891C46.2098 31.1113 47.0473 30.278 47.3265 29.4447C47.6056 28.6113 47.8848 27.778 47.8848 26.9447C47.8848 26.1113 47.8848 25.278 47.6057 24.7224V24.1669C47.6057 23.6113 46.7682 23.3335 46.2098 23.6113C45.6515 23.6113 45.3723 24.4447 45.6515 25.0002C45.6515 25.0002 45.6515 25.278 45.6515 25.5558C45.6515 26.1113 45.6515 26.6669 45.6515 27.2224C45.6515 27.778 45.6515 28.3335 45.6515 28.8891C45.6515 29.1669 45.0931 29.7224 44.5348 29.7224C43.139 30.0002 42.3015 29.7224 41.464 28.6113C40.6265 27.5002 40.3473 26.1113 40.3473 24.7224C40.3473 22.778 41.1848 21.3891 42.0223 20.5558C42.8598 19.7224 43.6973 19.1669 44.5348 18.8891C45.3723 18.8891 46.489 18.8891 47.3265 18.8891C48.164 18.8891 49.0015 19.4447 49.2806 19.4447C49.839 19.7224 50.3973 19.4447 50.6765 19.1669C50.9556 18.6113 50.6765 18.0558 50.3973 17.778H50.1181ZM52.6306 20.0002C52.3515 19.4447 51.514 19.4447 51.2348 20.0002C50.6765 20.278 50.6765 21.1113 51.2348 21.3891C51.2348 21.3891 51.2348 21.3891 51.2348 21.6669C51.2348 21.9447 51.7931 22.2224 52.0723 22.778C52.6306 23.8891 53.189 25.278 53.189 26.9447C53.189 28.6113 53.189 29.7224 52.6306 30.5558C52.6306 30.8335 52.3515 31.3891 52.0723 31.3891C51.7931 31.9447 52.0723 32.5002 52.0723 32.778C52.6306 33.0558 53.189 32.778 53.4681 32.778C53.4681 32.778 53.4681 32.5002 53.4681 32.2224C53.4681 31.9447 53.7473 31.3891 54.0265 31.1113C54.3056 30.0002 54.864 28.6113 54.5848 26.6669C54.5848 24.7224 53.7473 23.0558 53.189 21.9447C52.9098 21.3891 52.6306 20.8335 52.3515 20.5558C52.3515 20.5558 52.3515 20.278 52.0723 20.278L52.6306 20.0002ZM37.5556 19.1669C38.114 19.4447 38.114 20.0002 37.8348 20.5558C36.439 23.0558 36.439 26.9447 38.3931 29.7224C40.3473 32.5002 43.6973 33.6113 47.0473 32.5002C48.4431 31.9447 49.2806 31.1113 49.5598 30.0002C49.839 28.8891 49.839 27.2224 49.5598 25.8335C49.2806 24.4447 48.4432 23.3336 47.6057 22.5002C46.7682 21.6669 46.2098 21.6669 45.6515 21.9447C44.5348 22.5002 43.9765 23.3335 43.9765 24.1669C43.9765 25.0002 44.2557 26.1113 44.814 26.6669C45.0932 27.2224 44.814 27.778 44.814 28.0558C44.2557 28.3336 43.6973 28.0558 43.4182 28.0558C42.8598 27.2224 42.3015 25.8335 42.3015 24.4447C42.3015 22.778 43.139 21.3891 45.0931 20.5558C46.7681 19.7224 48.164 20.5558 49.2806 21.6669C50.3973 22.778 51.2348 24.1669 51.514 25.8335C52.0723 27.5002 52.0723 29.4447 51.514 31.1113C50.9556 32.778 49.839 34.1669 47.6057 35.0002C43.4182 36.3891 39.2306 35.0002 36.7181 31.3891C34.2056 28.0558 34.2056 23.3335 36.1598 20.278C36.439 19.7224 36.9973 19.7224 37.5556 20.0002V19.1669Z" fill="#8B5CF6"/>
<path d="M49.0012 42.2222H45.9304C35.6012 42.2222 27.5054 34.1667 27.5054 24.1667C27.5054 14.1667 35.8804 6.11111 46.2095 6.11111C48.722 6.11111 50.9554 6.66667 53.1887 7.5C54.8637 8.05555 56.5387 7.5 57.097 5.83333C57.6553 4.16666 57.097 2.5 55.422 1.94444C52.6304 0.833333 49.5595 0.277778 46.2095 0H12.9887C9.08035 0 6.00952 3.05556 6.00952 6.94444V41.9444V73.0556C6.00952 76.9444 9.08035 80 12.9887 80H49.2803C59.8887 80 68.5429 71.3889 68.5429 60.8333C68.5429 50.2778 59.8887 41.6667 49.2803 41.6667L49.0012 42.2222Z" fill="#8B5CF6"/>
<path d="M38.9509 18.3334C41.1842 15.8334 44.5342 14.7223 47.8842 15.2779C51.2342 15.8334 54.0259 18.0557 55.4217 22.5001C55.4217 23.0557 55.9801 23.3334 56.5384 23.3334C57.0967 23.3334 57.3759 22.7779 57.3759 22.2223C55.9801 17.2223 52.3509 14.4446 48.4426 13.6112C44.5342 12.7779 40.3467 14.1668 37.5551 17.2223C37.2759 17.7779 37.2759 18.3334 37.5551 18.6112C38.1134 18.889 38.6717 18.889 38.9509 18.6112V18.3334Z" fill="white"/>
<path d="M37.5553 19.1665C38.1136 19.4443 38.1136 19.9998 37.8345 20.5554C36.4386 23.0554 36.4386 26.9443 38.3928 29.7221C40.347 32.4998 43.697 33.6109 47.047 32.4998C48.4428 31.9443 49.2803 31.1109 49.5595 29.9998C49.8386 28.8887 49.8386 27.2221 49.5595 25.8332C49.2803 24.4443 48.4428 23.3332 47.6053 22.4998C46.7678 21.6665 46.2095 21.6665 45.6511 21.9443C44.5345 22.4998 43.9761 23.3332 43.9761 24.1665C43.9761 24.9998 44.2553 26.111 44.8136 26.6665C45.0928 27.2221 44.8136 27.7776 44.8136 28.0554C44.2553 28.3332 43.697 28.0554 43.4178 28.0554C42.8595 27.2221 42.3011 25.8332 42.3011 24.4443C42.3011 22.7776 43.1386 21.3887 45.0928 20.5554C46.7678 19.7221 48.1636 20.5554 49.2803 21.6665C50.397 22.7776 51.2345 24.1665 51.5136 25.8332C52.072 27.4998 52.072 29.4443 51.5136 31.1109C50.9553 32.7776 49.8386 34.1665 47.6053 34.9998C43.4178 36.3887 39.2303 34.9998 36.7178 31.3887C34.2053 28.0554 34.2053 23.3332 36.1595 20.2776C36.4386 19.7221 36.997 19.7221 37.5553 19.9998V19.1665Z" fill="white"/>
<path d="M50.1179 17.7777C49.5596 17.2221 48.4429 16.9443 47.3263 16.9443C46.2096 16.9443 45.0929 16.9443 43.6971 16.9443C42.3013 17.2221 41.1846 18.0554 40.0679 19.1666C38.9513 20.2777 38.3929 22.2221 38.1138 24.4443C38.1138 26.111 38.6721 28.3332 39.7888 29.7221C40.9054 31.111 42.8596 32.2221 45.0929 31.3888C46.2096 31.111 47.0471 30.2777 47.3263 29.4443C47.6054 28.611 47.8846 27.7777 47.8846 26.9443C47.8846 26.111 47.8846 25.2777 47.6054 24.7221V24.1666C47.6054 23.611 46.7679 23.3332 46.2096 23.611C45.6513 23.611 45.3721 24.4443 45.6513 24.9999C45.6513 24.9999 45.6513 25.2777 45.6513 25.5554C45.6513 26.111 45.6513 26.6666 45.6513 27.2221C45.6513 27.7777 45.6513 28.3332 45.6513 28.8888C45.6513 29.1666 45.0929 29.7221 44.5346 29.7221C43.1388 29.9999 42.3013 29.7221 41.4638 28.611C40.6263 27.4999 40.3471 26.111 40.3471 24.7221C40.3471 22.7777 41.1846 21.3888 42.0221 20.5554C42.8596 19.7221 43.6971 19.1666 44.5346 18.8888C45.3721 18.8888 46.4888 18.8888 47.3263 18.8888C48.1638 18.8888 49.0013 19.4443 49.2804 19.4443C49.8388 19.7221 50.3971 19.4443 50.6763 19.1666C50.9554 18.611 50.6763 18.0554 50.6763 17.7777H50.1179Z" fill="white"/>
<path d="M52.6305 20.0002C52.3513 19.4446 51.5138 19.4446 51.2347 20.0002C50.6763 20.2779 50.6763 21.1113 51.2347 21.3891C51.2347 21.3891 51.2347 21.3891 51.2347 21.6668C51.2347 21.9446 51.793 22.2224 52.0722 22.7779C52.6305 23.8891 53.1888 25.2779 53.1888 26.9446C53.1888 28.6113 53.1888 29.7224 52.6305 30.5557C52.6305 30.8335 52.3513 31.3891 52.0722 31.3891C51.793 31.9446 52.0722 32.5002 52.0722 32.7779C52.6305 33.0557 53.1888 32.7779 53.468 32.7779C53.468 32.7779 53.468 32.5002 53.468 32.2224C53.468 31.9446 53.7472 31.3891 54.0263 31.1113C54.3055 30.0002 54.8638 28.6113 54.5847 26.6668C54.5847 24.7224 53.7472 23.0557 53.1888 21.9446C52.9097 21.3891 52.6305 20.8335 52.3513 20.5557C52.3513 20.5557 52.3513 20.2779 52.0722 20.2779L52.6305 20.0002Z" fill="white"/>
</svg>
