<svg width="68" height="68" viewBox="0 0 68 68" fill="none" xmlns="http://www.w3.org/2000/svg">
<path d="M57.2158 9L10.0339 9C8.97954 9 8.12484 9.85015 8.12484 10.8989L6 61.0625C6 62.1112 6.8547 62.9614 7.90903 62.9614H54.125C55.1793 62.9614 56.034 62.1112 56.034 61.0625L59.1248 10.8989C59.1248 9.85015 58.2702 9 57.2158 9Z" fill="black" fill-opacity="0.7"/>
<g clip-path="url(#clip0_686_12477)">
<path d="M57.591 8.5H10.409C9.3547 8.5 8.5 9.35015 8.5 10.3989V57.6011C8.5 58.6499 9.3547 59.5 10.409 59.5H57.591C58.6453 59.5 59.5 58.6499 59.5 57.6011V10.3989C59.5 9.35015 58.6453 8.5 57.591 8.5Z" fill="#FFF3FE"/>
<path d="M12.6042 8V60H12.0625V8H12.6042Z" fill="#F6E3F4"/>
<path d="M16.9374 8V60H16.3958V8H16.9374Z" fill="#F6E3F4"/>
<path d="M21.2709 8V60H20.7292V8H21.2709Z" fill="#F6E3F4"/>
<path d="M25.6042 8V60H25.0625V8H25.6042Z" fill="#F6E3F4"/>
<path d="M29.9374 8V60H29.3958V8H29.9374Z" fill="#F6E3F4"/>
<path d="M34.2709 8V60H33.7292V8H34.2709Z" fill="#F6E3F4"/>
<path d="M38.6042 8V60H38.0625V8H38.6042Z" fill="#F6E3F4"/>
<path d="M42.9374 8V60H42.3958V8H42.9374Z" fill="#F6E3F4"/>
<path d="M47.2709 8V60H46.7292V8H47.2709Z" fill="#F6E3F4"/>
<path d="M51.6042 8V60H51.0625V8H51.6042Z" fill="#F6E3F4"/>
<path d="M55.9374 8V60H55.3958V8H55.9374Z" fill="#F6E3F4"/>
<path d="M60 12.6042L8 12.6042L8 12.0625L60 12.0625L60 12.6042Z" fill="#F6E3F4"/>
<path d="M60 16.9375L8 16.9375L8 16.3959L60 16.3959L60 16.9375Z" fill="#F6E3F4"/>
<path d="M60 21.2708L8 21.2708L8 20.7291L60 20.7291L60 21.2708Z" fill="#F6E3F4"/>
<path d="M60 25.6042L8 25.6042L8 25.0625L60 25.0625L60 25.6042Z" fill="#F6E3F4"/>
<path d="M60 29.9375L8 29.9375L8 29.3959L60 29.3959L60 29.9375Z" fill="#F6E3F4"/>
<path d="M60 34.2708L8 34.2708L8 33.7291L60 33.7291L60 34.2708Z" fill="#F6E3F4"/>
<path d="M60 38.6042L8 38.6042L8 38.0625L60 38.0625L60 38.6042Z" fill="#F6E3F4"/>
<path d="M60 42.9375L8 42.9375L8 42.3959L60 42.3959L60 42.9375Z" fill="#F6E3F4"/>
<path d="M60 47.2708L8 47.2708L8 46.7291L60 46.7291L60 47.2708Z" fill="#F6E3F4"/>
<path d="M60 51.6042L8 51.6042L8 51.0625L60 51.0625L60 51.6042Z" fill="#F6E3F4"/>
<path d="M60 55.9375L8 55.9375L8 55.3959L60 55.3959L60 55.9375Z" fill="#F6E3F4"/>
<path d="M47.1647 26.0403H35.0189C34.6859 26.0403 34.3659 26.169 34.1257 26.3996C33.7473 26.7626 33.6264 27.3186 33.8198 27.806L35.5 32.0403L35 34.5V32.0403L33 28.5L32.0846 26.999C31.7215 26.4036 31.0745 26.0403 30.3771 26.0403H20.392C19.2246 26.0403 18.2783 26.9805 18.2783 28.1403L18.2784 65.9403C18.2784 67.1001 19.2247 68.0403 20.392 68.0403H47.1647C48.332 68.0403 49.2783 67.1001 49.2783 65.9403V28.1403C49.2783 26.9805 48.332 26.0403 47.1647 26.0403Z" fill="#EDA4FF"/>
<path d="M47.1647 26.0403H35.6657C34.9832 26.0403 34.5012 26.709 34.7171 27.3565L36.2783 32.0403L34.2783 39.0403L34.2783 32.0403L30.8721 26.9309C30.5011 26.3745 29.8767 26.0403 29.208 26.0403H20.392C19.2246 26.0403 18.2783 26.9805 18.2783 28.1403V65.9403C18.2783 67.1001 19.2246 68.0403 20.392 68.0403H47.1647C48.332 68.0403 49.2783 67.1001 49.2783 65.9403V28.1403C49.2783 26.9805 48.332 26.0403 47.1647 26.0403Z" fill="#8C2582"/>
<path d="M28.267 50.7629C28.2435 52.0772 28.2201 53.3915 28.1967 54.7058C28.6522 54.7533 29.3477 54.8155 30.2012 54.8491C31.2225 54.8893 31.1484 54.8366 32.026 54.8747C33.7427 54.9491 34.0929 55.1538 34.9983 54.9992C35.274 54.9242 35.5599 54.8914 35.8462 54.9021C36.3173 54.9438 36.6422 55.1391 37.0434 54.9912C37.111 54.9593 37.1829 54.9369 37.2569 54.9248C37.5488 54.8882 37.6371 55.0876 37.9103 55.1153C38.2424 55.149 38.3017 54.8736 38.668 54.9167C38.8663 54.9401 38.9165 55.0288 39.0993 55.0014C39.3009 54.9713 39.315 54.8521 39.4862 54.8425C39.6811 54.8316 39.729 54.9822 39.9859 55.0227C40.1156 55.0321 40.2458 55.02 40.3712 54.987C40.6221 54.966 40.8751 54.9969 41.1139 55.0779C42.2663 55.3707 44.4084 55.4297 44.6844 55.1625C44.731 55.111 44.7954 55.0787 44.8652 55.072C44.9676 55.0692 45.0306 55.1473 45.098 55.1961C45.2891 55.3345 45.4294 55.1749 45.9077 55.2123C46.1928 55.2346 46.3053 55.3039 46.5267 55.2392C46.6236 55.2108 46.6348 55.188 46.7144 55.1813C46.9078 55.1652 46.9954 55.2871 47.2188 55.2856C47.3122 55.285 47.3598 55.2846 47.3988 55.2566C47.5856 55.122 47.2776 54.5625 47.0662 53.5765C46.9819 53.2395 46.9325 52.8951 46.919 52.5486C46.9099 52.1772 46.9547 52.0292 46.9191 51.73C46.8786 51.4057 46.7705 51.0928 46.6018 50.8109C46.3576 50.9045 46.1035 50.9711 45.8441 51.0095C45.4389 51.0544 44.8602 50.9535 44.4545 50.9068C43.9322 50.8788 43.8158 50.9102 43.1057 50.9161C41.7503 50.9274 41.5801 50.818 40.2852 50.8091C38.8519 50.7992 38.591 50.93 37.1255 50.8583C36.7547 50.8401 36.7673 50.8316 36.1113 50.7873C34.677 50.6906 33.4894 50.6555 32.9248 50.644C31.9183 50.6235 30.3398 50.626 28.267 50.7629Z" fill="#F3C5FE"/>
<path d="M24.238 51.6511C24.213 51.63 24.1868 51.6105 24.1594 51.5926C24.1214 51.5428 24.0988 51.483 24.0943 51.4205C24.0899 51.3581 24.1037 51.2957 24.1342 51.241C26.8868 51.3731 29.6449 51.1846 32.3971 51.3856C32.8086 51.4156 33.3534 51.6852 33.6019 51.3794C33.8067 51.1272 33.6762 50.5873 33.663 50.1759C33.6265 49.0325 33.5717 47.8897 33.5296 46.7464C33.5229 46.5651 33.3927 46.2917 33.7747 46.3331L33.7653 46.3179C33.9294 47.9237 33.9887 49.536 34.0748 51.1467C34.0995 51.6081 33.9357 51.8009 33.4551 51.7535C30.3862 51.4512 27.3101 51.714 24.238 51.6511Z" fill="#EDA4FF"/>
<path d="M40.6792 46.2797C38.6368 46.2963 36.5959 46.4528 34.5521 46.3459C34.2906 46.3322 34.0287 46.3266 33.767 46.3174L33.7764 46.3325C33.7817 46.0399 34.0083 46.0867 34.1804 46.0862C37.653 46.077 41.1089 45.7909 44.563 45.4708C44.675 45.4604 44.7876 45.4524 44.9 45.4513C45.0544 45.4497 45.2252 45.4541 45.2318 45.6611C45.2371 45.8291 45.0885 45.8626 44.9559 45.8814C44.5101 45.9445 44.065 46.0164 43.6172 46.0606C42.8709 46.1342 42.1228 46.1889 41.3754 46.2517C41.1504 46.4368 40.9115 46.275 40.6792 46.2797Z" fill="#EDA4FF"/>
<path d="M36.1341 54.3131C35.7841 54.4551 35.3981 54.4826 35.0315 54.3916C34.422 54.3209 33.8097 54.1219 33.2458 54.5645C33.0961 54.682 32.9721 54.5742 32.8743 54.4371C32.5819 54.0274 32.2025 54.0784 31.8248 54.276C31.3049 54.5473 30.8863 54.9789 30.6311 55.5068C30.566 55.6378 30.5485 55.8393 30.3514 55.7883C30.1218 55.7289 30.2052 55.524 30.2252 55.362C30.239 55.2502 30.2551 55.1388 30.269 55.0271C30.2813 54.9814 30.2843 54.9338 30.2777 54.8869C30.2711 54.8401 30.255 54.7951 30.2305 54.7547C30.206 54.7143 30.1735 54.6792 30.1351 54.6517C30.0966 54.6242 30.053 54.6048 30.0068 54.5947C29.823 54.5451 29.6488 54.5172 29.5063 54.7156C29.3808 54.8793 29.2379 55.0289 29.0803 55.1619C28.9608 55.2688 28.8193 55.4393 28.6495 55.2818C28.5169 55.159 28.6303 55.0005 28.7009 54.8718C28.9025 54.493 29.2195 54.1881 29.6059 54.0015C29.4727 53.7509 29.2058 53.9641 29.0831 53.731C29.314 53.5921 29.6202 53.6648 29.8341 53.4809C29.9022 53.4224 30.0752 53.4561 30.042 53.5563C29.8398 54.1653 30.6446 54.1506 30.6355 54.6532C30.9494 54.358 31.3001 54.1044 31.6789 53.8989C32.1451 53.6897 32.6185 53.574 33.0386 53.9812C33.1926 54.1305 33.3266 54.0807 33.4964 54.0581C34.3935 53.939 35.2521 54.2472 36.1341 54.3131Z" fill="#EDA4FF"/>
<path d="M40.3859 50.8921C40.5752 50.8776 40.7094 51.0143 40.8186 50.8936C41.2358 50.4326 41.7614 50.5777 42.2849 50.5698C42.8212 50.5618 42.9928 50.802 43.0002 51.3167C43.2294 51.0947 43.47 50.8847 43.7211 50.6876C43.9561 50.5208 44.2079 50.2989 44.5134 50.6149C44.7021 50.8101 44.7918 50.541 44.9192 50.4805C45.1024 50.3935 45.3184 50.1891 45.4534 50.4381C45.6368 50.7765 45.2332 50.6049 45.135 50.7175C45.0241 50.8444 44.9038 50.9627 44.7751 51.0715C44.6269 51.1968 44.5782 51.4879 44.3185 51.4229C44.0857 51.3647 44.256 51.0723 44.0652 50.9034C43.7165 51.1579 43.4165 51.4732 43.1797 51.8342C42.9897 52.0897 42.8208 52.3612 42.6444 52.6268C42.5606 52.753 42.4776 52.9173 42.2993 52.7936C42.1613 52.6979 42.2622 52.5533 42.3085 52.4382C42.3503 52.3345 42.4296 52.2453 42.4669 52.1407C42.6041 51.7559 42.8228 51.3635 42.5485 50.9623C42.4134 50.7647 41.4063 50.8157 41.1038 51.0062C40.8568 51.1617 40.5923 51.4909 40.3859 50.8921Z" fill="#EDA4FF"/>
<path d="M37.405 50.7429C38.0706 50.4106 38.7863 50.7194 39.447 50.4541C39.6862 50.358 39.9303 50.5473 40.0316 50.9059C39.5293 50.5942 39.1449 50.8949 38.7063 51.0012C38.2193 51.1192 37.6825 51.0061 37.1914 51.2547C37.0214 51.3407 37.0009 51.1195 37.0121 50.9967C37.0323 50.7749 37.0793 50.5555 37.1224 50.2903C36.6968 50.4396 36.5904 50.9334 36.0478 51.1258C36.3587 50.5911 36.7748 50.125 37.2711 49.7558C37.4216 49.643 37.5152 49.7413 37.4969 49.9213C37.4703 50.1821 37.4388 50.4424 37.405 50.7429Z" fill="#EDA4FF"/>
<path d="M20.9478 51.416C21.1691 52.4547 21.291 53.5121 21.3119 54.5739C21.0735 55.1672 20.9739 54.6477 20.8262 54.5133C20.7051 53.3861 20.5527 52.2615 20.5431 51.125C20.5954 51.0261 20.6814 51.0331 20.7714 51.0519C20.9524 51.1139 20.9477 51.2662 20.9478 51.416Z" fill="#EDA4FF"/>
<path d="M37.8926 53.972C38.3612 53.6275 38.327 52.9567 38.786 52.534C38.9799 52.927 38.7368 53.2659 38.8044 53.6757C39.0702 53.493 39.2956 53.2576 39.4664 52.984C39.6546 52.7417 39.8121 52.6745 39.9061 53.0444C39.9799 53.3344 40.0424 53.6272 40.1076 53.9193C40.1327 54.0319 40.1494 54.1643 40.0176 54.2078C39.8294 54.27 39.8093 54.1003 39.7777 53.9809C39.7265 53.7874 39.6904 53.5899 39.6331 53.3257C39.3812 53.5743 39.1806 53.7873 38.9639 53.9824C38.7031 54.2173 38.4046 54.5251 38.4401 53.75C38.1611 54.0736 38.0132 54.4556 37.5771 54.3681C37.3975 54.3321 37.1313 54.3265 37.2106 54.0045C37.4334 53.8987 37.666 53.9989 37.8926 53.972Z" fill="#EDA4FF"/>
<path d="M20.9487 51.4144L20.7845 51.1256C21.01 50.7991 21.3342 51.0902 21.5968 50.9956C22.4485 51.0091 23.2978 51.0904 24.1365 51.2389C24.1563 51.3553 24.2271 51.468 24.1616 51.5905C23.2723 51.5964 22.3845 51.5184 21.5098 51.3576C21.3236 51.3305 21.1136 51.1865 20.9487 51.4144Z" fill="#EDA4FF"/>
<path d="M36.82 48.5566C37.1754 48.5765 37.5311 48.5246 37.866 48.4041C38.2382 48.2426 38.5675 48.03 38.9784 48.4269C39.1697 48.6116 39.5398 48.3534 39.8323 48.3216C39.989 48.3045 40.225 48.1583 40.2863 48.3514C40.3648 48.5992 40.0666 48.5966 39.9157 48.6562C39.4567 48.8374 38.9943 49.1244 38.5195 48.6606C38.4069 48.5507 38.2344 48.6215 38.0939 48.6838C37.7831 48.8194 37.435 48.8435 37.1084 48.752C36.9939 48.714 36.7686 48.8397 36.82 48.5566Z" fill="#EDA4FF"/>
<path d="M24.639 54.0823C24.6159 54.0662 24.5918 54.0516 24.5669 54.0384C24.5366 54.0013 24.5174 53.9563 24.5115 53.9087C24.5056 53.8612 24.5134 53.8129 24.5338 53.7695C24.5516 53.7523 24.5643 53.7304 24.5704 53.7064C25.1769 53.8666 25.7573 53.9624 26.3351 53.5476C26.6328 53.3339 27.4132 53.6599 27.5458 53.9779C27.5607 54.0122 27.5634 54.0506 27.5535 54.0867C27.5437 54.1228 27.5219 54.1544 27.4916 54.1765C27.4614 54.1985 27.4246 54.2096 27.3872 54.2079C27.3498 54.2062 27.3141 54.1919 27.286 54.1672C26.7508 53.7922 26.2561 53.9118 25.7265 54.2133C25.3691 54.4169 25.0137 54.0516 24.639 54.0823Z" fill="#EDA4FF"/>
<path d="M41.9253 48.3227C41.984 48.3174 42.0459 48.2914 42.0782 48.3119C42.8295 48.7904 43.558 48.3746 44.2926 48.2574C44.6463 48.201 44.9284 48.4551 45.2654 48.4696C45.2838 48.4704 45.3256 48.5712 45.3101 48.602C45.2512 48.7192 45.0883 48.7624 45.0241 48.712C44.548 48.3384 44.1028 48.7409 43.6452 48.7454C43.4374 48.7423 43.2342 48.8063 43.0656 48.9276C42.8055 49.1198 42.5775 49.1347 42.4483 48.7884C42.3557 48.5404 41.9698 48.6437 41.9253 48.3227Z" fill="#EDA4FF"/>
<path d="M46.2205 49.6875C46.6814 50.0077 46.7636 51.7129 46.2971 52.8922C46.2715 51.8218 46.2459 50.7536 46.2205 49.6875Z" fill="#EDA4FF"/>
<path d="M45.0301 52.7669C45.3818 52.9549 44.6745 53.6274 45.4921 53.5596C45.5133 53.7646 45.3568 53.8331 45.2327 53.9383C45.0206 54.1178 44.8304 53.5878 44.6155 53.9383C44.5312 54.1473 44.3835 54.3246 44.1931 54.4453C44.165 54.0444 44.5979 53.1841 45.0301 52.7669Z" fill="#EDA4FF"/>
<path d="M41.5192 54.0181C42.1739 54.1316 42.4909 54.4384 42.3839 54.8579C42.3569 54.9637 42.3353 55.0855 42.1909 55.0892C42.1435 55.0915 42.097 55.0755 42.061 55.0447C42.025 55.0138 42.0021 54.9704 41.997 54.9232C41.9279 54.3474 41.5562 54.3169 41.1054 54.4106C40.9827 54.4361 40.8138 54.4867 40.7773 54.3228C40.7362 54.1382 40.9632 54.1923 41.0468 54.1083C41.185 53.9773 41.3556 54.0158 41.5192 54.0181Z" fill="#EDA4FF"/>
<path d="M21.5959 50.9966C21.3252 51.04 21.0544 51.0834 20.7836 51.1267C20.7034 51.1257 20.6232 51.1249 20.5431 51.1241C20.5166 51.1077 20.4909 51.0901 20.4658 51.0716C20.5313 50.7242 20.7657 50.7571 21.0159 50.8282C21.2095 50.8833 21.4026 50.9404 21.5959 50.9966Z" fill="#EDA4FF"/>
<path d="M24.5339 53.7705C24.6198 53.8508 24.6013 53.9441 24.5671 54.0393C24.2307 54.1443 23.8931 54.2453 23.5586 54.3559C23.3522 54.4241 23.2383 54.3975 23.2452 54.1423C23.262 53.5221 23.2568 53.5219 22.6213 53.8331C22.7896 53.4644 22.9466 53.148 23.3418 53.1712C23.7665 53.1961 23.6827 53.5812 23.7032 53.8683C24.0012 53.8905 24.2506 53.6796 24.5339 53.7705Z" fill="#EDA4FF"/>
<path d="M33.0796 32.0403C33.1894 32.0403 33.2783 32.1745 33.2783 32.3403C33.2783 32.5061 33.1894 32.6403 33.0796 32.6403H22.477C22.3672 32.6403 22.2783 32.5061 22.2783 32.3403C22.2783 32.1745 22.3672 32.0403 22.477 32.0403H33.0796Z" fill="#EDA4FF"/>
<path d="M33.0796 37.0403C33.1894 37.0403 33.2783 37.1745 33.2783 37.3403C33.2783 37.5061 33.1894 37.6403 33.0796 37.6403H22.477C22.3672 37.6403 22.2783 37.5061 22.2783 37.3403C22.2783 37.1745 22.3672 37.0403 22.477 37.0403H33.0796Z" fill="#EDA4FF"/>
<path d="M45.0977 37.0403C45.1975 37.0403 45.2783 37.1745 45.2783 37.3403C45.2783 37.5061 45.1975 37.6403 45.0977 37.6403H35.4589C35.3591 37.6403 35.2783 37.5061 35.2783 37.3403C35.2783 37.1745 35.3591 37.0403 35.4589 37.0403H45.0977Z" fill="#EDA4FF"/>
<path d="M45.0668 42.0403C45.1837 42.0403 45.2783 42.1745 45.2783 42.3403C45.2783 42.5061 45.1837 42.6403 45.0668 42.6403H22.4898C22.3729 42.6403 22.2783 42.5061 22.2783 42.3403C22.2783 42.1745 22.3729 42.0403 22.4898 42.0403H45.0668Z" fill="#EDA4FF"/>
<g clip-path="url(#clip1_686_12477)">
<g opacity="0.2">
<path d="M35.9848 39.5444L34.6797 39.9255L35.3803 42.3594L36.6854 41.9783L35.9848 39.5444Z" fill="#0E1832"/>
<path d="M37.8565 43.126C37.6167 43.128 37.3803 43.1837 37.1645 43.2891L34.4721 46.1949L33.1387 47.9365C33.1387 47.9365 32.6016 48.5588 33.2131 49.1786C33.8245 49.7985 34.2647 49.4539 34.4042 49.2963C34.5436 49.1388 35.1194 48.4882 35.1194 48.4882L33.6978 50.3763C33.6978 50.3763 33.1517 50.9581 33.7896 51.6171C34.0349 51.8697 34.2674 51.9433 34.4609 51.9382C34.501 52.4922 34.5846 53.4474 34.5846 53.4474C34.5846 53.4474 34.6676 54.1623 35.3749 54.1562C35.523 54.1622 35.6698 54.1248 35.7972 54.0484C35.9246 53.972 36.027 53.86 36.0918 53.7263L36.1079 53.6256C36.1083 53.8969 36.1698 54.1644 36.288 54.4081L37.8658 53.9486L37.8666 53.9513L40.7316 53.1146L37.8565 43.126Z" fill="black"/>
<path d="M36.2889 54.4081C36.2889 54.4081 36.0765 53.8269 36.0926 53.7262C36.1088 53.6256 36.3249 51.5951 37.5436 51.6395L38.7624 51.6838L39.2047 53.5566L37.4027 56.5931L36.2889 54.4081Z" fill="#0E1832"/>
<path d="M37.8702 53.9499L40.7352 53.1133L37.4778 41.7968C37.2162 40.8878 36.7236 41.1913 35.972 41.4108L35.8288 41.4526C35.0772 41.6721 34.3511 41.7245 34.6128 42.6334L37.8702 53.9499Z" fill="#0E1832"/>
<path d="M42.2424 46.2548C41.8726 45.8541 40.1307 43.8197 40.1307 43.8197C39.9129 43.641 39.6621 43.5069 39.3924 43.4249L38.5223 43.1813L38.5192 43.1807L38.5182 43.1804L38.5093 43.1786L38.5078 43.1783C38.5034 43.1774 38.4982 43.1763 38.4921 43.1751L38.4916 43.175C38.2817 43.1357 38.0682 43.1192 37.8546 43.1258L39.0727 47.3579C38.5219 46.7411 37.6468 45.4708 36.9081 45.7776C36.1375 46.0975 36.3148 46.8416 37.421 48.4712L38.6635 51.2765L39.202 53.5564L36.2861 54.4079L37.3999 56.593C37.3999 56.593 37.6629 57.2093 38.2725 56.9855L38.9138 59.4097L45.0291 57.6239L44.0114 54.7317C44.0114 54.7317 44.489 54.3839 44.3299 53.6674C44.1699 52.951 42.7256 46.9692 42.7256 46.9692C42.6088 46.7039 42.4451 46.4619 42.2424 46.2548Z" fill="black"/>
<path d="M37.2508 46.9506C37.2887 46.9394 37.3241 46.9206 37.3546 46.8954C37.3867 46.8747 37.6861 46.6801 37.8983 46.553C37.9342 46.536 37.9654 46.5106 37.9894 46.479C38.0134 46.4474 38.0294 46.4105 38.0361 46.3714C38.0372 46.3373 38.0311 46.3035 38.0182 46.272C38.0053 46.2406 37.9858 46.2123 37.9611 46.189L37.7459 45.9074C37.7383 45.8976 37.7271 45.8912 37.7148 45.8897C37.7024 45.8881 37.6899 45.8915 37.68 45.8991C37.6701 45.9066 37.6636 45.9178 37.6619 45.9302C37.6602 45.9425 37.6634 45.955 37.6709 45.9649L37.8888 46.2492C37.8904 46.2515 37.8923 46.2536 37.8944 46.2553C37.9246 46.2834 37.9423 46.3223 37.9438 46.3636C37.9373 46.3877 37.9255 46.41 37.9092 46.429C37.893 46.448 37.8728 46.4631 37.8501 46.4734C37.6266 46.607 37.3058 46.8162 37.3016 46.8185C37.2997 46.8202 37.2978 46.8216 37.2954 46.8237C37.2584 46.8541 37.2114 46.8696 37.1637 46.8671C37.1292 46.8607 37.0964 46.8472 37.0674 46.8275C37.0383 46.8078 37.0137 46.7823 36.9951 46.7526C36.8118 46.5106 36.5504 46.0826 36.5479 46.0781C36.5447 46.0729 36.5405 46.0683 36.5356 46.0647C36.5306 46.0611 36.525 46.0585 36.519 46.0571C36.5131 46.0556 36.5069 46.0554 36.5008 46.0564C36.4947 46.0574 36.4889 46.0595 36.4837 46.0628C36.4785 46.066 36.4739 46.0702 36.4703 46.0752C36.4667 46.0802 36.4642 46.0859 36.4628 46.0919C36.4614 46.0979 36.4611 46.1041 36.4622 46.1101C36.4632 46.1162 36.4654 46.122 36.4686 46.1272C36.4714 46.1311 36.7341 46.5638 36.9203 46.8091C36.9465 46.8499 36.9813 46.8845 37.0221 46.9105C37.063 46.9366 37.109 46.9535 37.1571 46.96C37.1886 46.9629 37.2204 46.9597 37.2508 46.9506Z" fill="#0E1832"/>
<path d="M38.3878 48.3916C38.3914 48.3904 38.3949 48.3889 38.3983 48.3871L39.1408 47.9387C39.1513 47.9323 39.1589 47.922 39.1619 47.9101C39.165 47.8982 39.1633 47.8856 39.1572 47.8749C39.1541 47.8696 39.1499 47.865 39.1451 47.8614C39.1402 47.8577 39.1346 47.855 39.1287 47.8536C39.1227 47.8521 39.1166 47.8518 39.1105 47.8527C39.1044 47.8536 39.0986 47.8557 39.0934 47.8588L38.3506 48.307C38.3401 48.3135 38.3325 48.3239 38.3295 48.3359C38.3266 48.3479 38.3285 48.3606 38.3349 48.3712C38.3401 48.38 38.3482 48.3868 38.3578 48.3905C38.3673 48.3942 38.3779 48.3946 38.3878 48.3916Z" fill="#0E1832"/>
<path d="M38.6376 48.5762C38.6417 48.575 38.6457 48.5733 38.6495 48.5713L39.2312 48.2203C39.2365 48.2173 39.2412 48.2132 39.2449 48.2083C39.2487 48.2034 39.2514 48.1978 39.2529 48.1918C39.2544 48.1859 39.2546 48.1797 39.2537 48.1736C39.2527 48.1676 39.2505 48.1618 39.2472 48.1566C39.2442 48.1513 39.2401 48.1466 39.2351 48.1429C39.2302 48.1392 39.2246 48.1365 39.2186 48.135C39.2127 48.1335 39.2064 48.1332 39.2003 48.1342C39.1942 48.1351 39.1884 48.1373 39.1831 48.1406L38.6015 48.4916C38.5917 48.4973 38.5844 48.5064 38.5808 48.5171C38.5772 48.5279 38.5777 48.5396 38.5821 48.55C38.5866 48.5603 38.5946 48.5687 38.6049 48.5736C38.6151 48.5784 38.6267 48.5793 38.6376 48.5762Z" fill="#0E1832"/>
<path d="M42.422 51.1295C42.4289 51.1277 42.4354 51.1243 42.4408 51.1196C42.4453 51.1154 42.449 51.1104 42.4516 51.1049C42.4542 51.0993 42.4557 51.0933 42.456 51.0872C42.4563 51.081 42.4554 51.0749 42.4533 51.0692C42.4512 51.0634 42.448 51.0581 42.4438 51.0536C42.4177 51.0232 39.7193 47.9764 39.1803 47.4032C39.1761 47.3988 39.1711 47.3952 39.1656 47.3926C39.16 47.3901 39.1541 47.3887 39.148 47.3885C39.1419 47.3883 39.1358 47.3893 39.1301 47.3914C39.1244 47.3936 39.1191 47.3968 39.1147 47.401C39.1102 47.4052 39.1066 47.4102 39.104 47.4157C39.1015 47.4213 39.1001 47.4273 39.0998 47.4334C39.0996 47.4395 39.1006 47.4455 39.1027 47.4513C39.1048 47.457 39.108 47.4622 39.1122 47.4667C39.6504 48.0398 42.3471 51.0852 42.3748 51.116C42.3805 51.1225 42.388 51.1273 42.3964 51.1296C42.4047 51.132 42.4136 51.132 42.422 51.1295Z" fill="#0E1832"/>
<path d="M37.2508 46.9506C37.2887 46.9394 37.3241 46.9206 37.3546 46.8954C37.3867 46.8747 37.6861 46.6801 37.8983 46.553C37.9342 46.536 37.9654 46.5106 37.9894 46.479C38.0134 46.4474 38.0294 46.4105 38.0361 46.3714C38.0372 46.3373 38.0311 46.3035 38.0182 46.272C38.0053 46.2406 37.9858 46.2123 37.9611 46.189L37.7459 45.9074C37.7383 45.8976 37.7271 45.8912 37.7148 45.8897C37.7024 45.8881 37.6899 45.8915 37.68 45.8991C37.6701 45.9066 37.6636 45.9178 37.6619 45.9302C37.6602 45.9425 37.6634 45.955 37.6709 45.9649L37.8888 46.2492C37.8904 46.2515 37.8923 46.2536 37.8944 46.2553C37.9246 46.2834 37.9423 46.3223 37.9438 46.3636C37.9373 46.3877 37.9255 46.41 37.9092 46.429C37.893 46.448 37.8728 46.4631 37.8501 46.4734C37.6266 46.607 37.3058 46.8162 37.3016 46.8185C37.2997 46.8202 37.2978 46.8216 37.2954 46.8237C37.2584 46.8541 37.2114 46.8696 37.1637 46.8671C37.1292 46.8607 37.0964 46.8472 37.0674 46.8275C37.0383 46.8078 37.0137 46.7823 36.9951 46.7526C36.8118 46.5106 36.5504 46.0826 36.5479 46.0781C36.5447 46.0729 36.5405 46.0683 36.5356 46.0647C36.5306 46.0611 36.525 46.0585 36.519 46.0571C36.5131 46.0556 36.5069 46.0554 36.5008 46.0564C36.4947 46.0574 36.4889 46.0595 36.4837 46.0628C36.4785 46.066 36.4739 46.0702 36.4703 46.0752C36.4667 46.0802 36.4642 46.0859 36.4628 46.0919C36.4614 46.0979 36.4611 46.1041 36.4622 46.1101C36.4632 46.1162 36.4654 46.122 36.4686 46.1272C36.4714 46.1311 36.7341 46.5638 36.9203 46.8091C36.9465 46.8499 36.9813 46.8845 37.0221 46.9105C37.063 46.9366 37.109 46.9535 37.1571 46.96C37.1886 46.9629 37.2204 46.9597 37.2508 46.9506Z" fill="#0E1832"/>
<path d="M38.3878 48.3916C38.3914 48.3904 38.3949 48.3889 38.3983 48.3871L39.1408 47.9387C39.1513 47.9323 39.1589 47.922 39.1619 47.9101C39.165 47.8982 39.1633 47.8856 39.1572 47.8749C39.1541 47.8696 39.1499 47.865 39.1451 47.8614C39.1402 47.8577 39.1346 47.855 39.1287 47.8536C39.1227 47.8521 39.1166 47.8518 39.1105 47.8527C39.1044 47.8536 39.0986 47.8557 39.0934 47.8588L38.3506 48.307C38.3401 48.3135 38.3325 48.3239 38.3295 48.3359C38.3266 48.3479 38.3285 48.3606 38.3349 48.3712C38.3401 48.38 38.3482 48.3868 38.3578 48.3905C38.3673 48.3942 38.3779 48.3946 38.3878 48.3916Z" fill="#0E1832"/>
<path d="M38.6376 48.5762C38.6417 48.575 38.6457 48.5733 38.6495 48.5713L39.2312 48.2203C39.2365 48.2173 39.2412 48.2132 39.2449 48.2083C39.2487 48.2034 39.2514 48.1978 39.2529 48.1918C39.2544 48.1859 39.2546 48.1797 39.2537 48.1736C39.2527 48.1676 39.2505 48.1618 39.2472 48.1566C39.2442 48.1513 39.2401 48.1466 39.2351 48.1429C39.2302 48.1392 39.2246 48.1365 39.2186 48.135C39.2127 48.1335 39.2064 48.1332 39.2003 48.1342C39.1942 48.1351 39.1884 48.1373 39.1831 48.1406L38.6015 48.4916C38.5917 48.4973 38.5844 48.5064 38.5808 48.5171C38.5772 48.5279 38.5777 48.5396 38.5821 48.55C38.5866 48.5603 38.5946 48.5687 38.6049 48.5736C38.6151 48.5784 38.6267 48.5793 38.6376 48.5762Z" fill="#0E1832"/>
<path d="M42.422 51.1295C42.4289 51.1277 42.4354 51.1243 42.4408 51.1196C42.4453 51.1154 42.449 51.1104 42.4516 51.1049C42.4542 51.0993 42.4557 51.0933 42.456 51.0872C42.4563 51.081 42.4554 51.0749 42.4533 51.0692C42.4512 51.0634 42.448 51.0581 42.4438 51.0536C42.4177 51.0232 39.7193 47.9764 39.1803 47.4032C39.1761 47.3988 39.1711 47.3952 39.1656 47.3926C39.16 47.3901 39.1541 47.3887 39.148 47.3885C39.1419 47.3883 39.1358 47.3893 39.1301 47.3914C39.1244 47.3936 39.1191 47.3968 39.1147 47.401C39.1102 47.4052 39.1066 47.4102 39.104 47.4157C39.1015 47.4213 39.1001 47.4273 39.0998 47.4334C39.0996 47.4395 39.1006 47.4455 39.1027 47.4513C39.1048 47.457 39.108 47.4622 39.1122 47.4667C39.6504 48.0398 42.3471 51.0852 42.3748 51.116C42.3805 51.1225 42.388 51.1273 42.3964 51.1296C42.4047 51.132 42.4136 51.132 42.422 51.1295Z" fill="#0E1832"/>
<path d="M42.0638 56.1434C43.3032 55.7814 43.5428 55.2414 43.5526 55.2192L43.4248 55.1645C43.4222 55.1688 43.1912 55.6678 42.0249 56.0083C41.7668 56.0844 41.496 56.1064 41.2294 56.0732C40.9628 56.04 40.7061 55.9521 40.4753 55.8152C40.2288 55.672 40.0141 55.4802 39.8441 55.2513C39.6742 55.0225 39.5525 54.7613 39.4864 54.4836L39.3499 54.5158C39.4204 54.812 39.5502 55.0905 39.7315 55.3346C39.9128 55.5788 40.1417 55.7834 40.4046 55.9361C40.6517 56.0827 40.9266 56.1768 41.212 56.2124C41.4974 56.2481 41.7873 56.2246 42.0638 56.1434Z" fill="#0E1832"/>
<path d="M38.913 61.2841L45.9672 59.224L47.1324 63.2545L41.4384 70.0403L38.913 61.2841Z" fill="black"/>
<path d="M45.5214 57.4806L38.3667 59.5699L38.9553 61.6147L46.11 59.5254L45.5214 57.4806Z" fill="black"/>
<path d="M35.501 40.3563C33.8562 40.8366 32.1079 40.8186 30.4774 40.3046C28.8469 39.7906 27.4072 38.8036 26.3405 37.4685C25.2739 36.1334 24.6281 34.5101 24.4848 32.804C24.3416 31.0978 24.7073 29.3853 25.5357 27.8831C26.3642 26.3809 27.6181 25.1565 29.139 24.3647C30.66 23.5728 32.3795 23.2491 34.0802 23.4345C35.781 23.6199 37.3865 24.306 38.6938 25.4062C40.0011 26.5063 40.9515 27.971 41.4247 29.6151C42.0566 31.8197 41.7878 34.1887 40.6772 36.2023C39.5667 38.216 37.7052 39.7099 35.501 40.3563ZM30.9967 24.708C29.5452 25.1319 28.2501 25.9765 27.2752 27.135C26.3003 28.2935 25.6894 29.7138 25.5197 31.2165C25.3501 32.7191 25.6293 34.2365 26.3221 35.5768C27.0149 36.9171 28.0901 38.0201 29.4118 38.7463C30.7335 39.4725 32.2423 39.7893 33.7474 39.6566C35.2526 39.5239 36.6864 38.9477 37.8676 38.0009C39.0489 37.054 39.9244 35.7791 40.3836 34.3372C40.8428 32.8953 40.865 31.3514 40.4474 29.9005C39.8854 27.9563 38.5747 26.3177 36.803 25.3442C35.0313 24.3708 32.9432 24.142 30.9967 24.708Z" fill="#0E1832"/>
<path d="M35.299 39.6525C33.6966 40.1204 31.9936 40.1029 30.4052 39.6022C28.8168 39.1015 27.4144 38.14 26.3753 36.8395C25.3362 35.5389 24.7071 33.9576 24.5676 32.2955C24.428 30.6334 24.7843 28.9652 25.5913 27.5019C26.3983 26.0385 27.6199 24.8457 29.1014 24.0744C30.583 23.303 32.2581 22.9877 33.9149 23.1683C35.5716 23.3489 37.1357 24.0173 38.4092 25.089C39.6827 26.1606 40.6085 27.5875 41.0695 29.1891C41.685 31.3367 41.4232 33.6444 40.3414 35.606C39.2595 37.5676 37.4461 39.0229 35.299 39.6525ZM30.7947 24.0042C29.3006 24.4405 27.9676 25.3099 26.9641 26.5023C25.9606 27.6948 25.3318 29.1568 25.1572 30.7034C24.9826 32.2501 25.27 33.8119 25.9831 35.1915C26.6961 36.5711 27.8029 37.7064 29.1633 38.4538C30.5237 39.2013 32.0767 39.5274 33.626 39.3908C35.1752 39.2542 36.651 38.6611 37.8669 37.6865C39.0827 36.712 39.9839 35.3997 40.4566 33.9156C40.9292 32.4315 40.9521 30.8423 40.5222 29.3489C39.9437 27.3477 38.5947 25.6611 36.771 24.6592C34.9474 23.6572 32.7981 23.4217 30.7947 24.0042Z" fill="#0E1832"/>
<path opacity="0.1" d="M31.211 39.4541C35.2966 40.4854 39.4577 38.0036 40.5051 33.9107C41.5524 29.8179 39.0894 25.664 35.0038 24.6326C30.9182 23.6013 26.7572 26.0832 25.7098 30.176C24.6624 34.2688 27.1254 38.4228 31.211 39.4541Z" fill="#0E1832"/>
<g opacity="0.5">
<path d="M39.4179 27.0322L39.7222 26.4803C39.0262 25.5548 38.1472 24.7829 37.1396 24.2124C36.1321 23.6419 35.0174 23.2848 33.8645 23.1633L33.5638 23.7087C34.7259 23.7951 35.8535 24.1379 36.8656 24.7125C37.8777 25.2871 38.7493 26.0793 39.4179 27.0322Z" fill="#0E1832"/>
<path d="M26.6446 36.2552L26.3438 36.8006C27.0633 37.7078 27.9618 38.4569 28.9837 39.0014C30.0056 39.5459 31.1292 39.8743 32.2849 39.9663L32.5893 39.4144C31.425 39.3603 30.2883 39.049 29.2605 38.5028C28.2327 37.9566 27.3394 37.189 26.6446 36.2552Z" fill="#0E1832"/>
</g>
<path d="M34.7227 43.4423C34.7052 43.4276 34.6915 43.4089 34.6827 43.3878C34.6739 43.3667 34.6703 43.3437 34.6722 43.3209C34.6741 43.298 34.6815 43.276 34.6936 43.2565C34.7058 43.237 34.7224 43.2207 34.7421 43.209C35.2104 42.9368 35.7105 42.724 36.2308 42.5753C36.6971 42.4372 37.1768 42.3504 37.6615 42.3164C37.6994 42.3141 37.7367 42.3269 37.7651 42.3521C37.7935 42.3772 37.8107 42.4127 37.8129 42.4507C37.8151 42.4886 37.8021 42.526 37.7769 42.5545C37.7516 42.583 37.7161 42.6004 37.6781 42.6027C37.2147 42.6354 36.7559 42.7186 36.3101 42.8507C35.8131 42.9925 35.3353 43.1957 34.888 43.4555C34.8624 43.4707 34.8327 43.4776 34.8031 43.4752C34.7735 43.4729 34.7454 43.4614 34.7227 43.4423Z" fill="#0E1832"/>
<path d="M34.8557 43.9153C34.8382 43.9006 34.8245 43.8819 34.8157 43.8607C34.8069 43.8396 34.8034 43.8167 34.8053 43.7938C34.8072 43.771 34.8145 43.7489 34.8267 43.7294C34.8388 43.71 34.8554 43.6937 34.8751 43.6819C35.3434 43.4097 35.8435 43.1969 36.3638 43.0482C36.8301 42.9101 37.3098 42.8232 37.7945 42.7893C37.8133 42.7881 37.8321 42.7907 37.8499 42.7968C37.8676 42.8029 37.884 42.8124 37.8981 42.8249C37.9121 42.8374 37.9236 42.8525 37.9318 42.8694C37.94 42.8863 37.9448 42.9047 37.9459 42.9235C37.947 42.9423 37.9443 42.9612 37.9382 42.979C37.932 42.9968 37.9224 43.0132 37.9098 43.0274C37.8973 43.0415 37.8822 43.053 37.8652 43.0613C37.8483 43.0696 37.8299 43.0744 37.8111 43.0756C37.3477 43.1083 36.889 43.1914 36.4431 43.3236C35.9461 43.4654 35.4684 43.6686 35.021 43.9284C34.9954 43.9436 34.9658 43.9505 34.9362 43.9482C34.9065 43.9458 34.8784 43.9343 34.8557 43.9153Z" fill="#0E1832"/>
</g>
<path d="M36.165 39.3247L34.8599 39.7058L35.5604 42.1397L36.8655 41.7586L36.165 39.3247Z" fill="#C2FE26"/>
<path d="M38.0366 42.9065C37.7969 42.9085 37.5605 42.9642 37.3447 43.0696L34.6523 45.9754L33.3189 47.717C33.3189 47.717 32.7818 48.3393 33.3932 48.9591C34.0047 49.579 34.4449 49.2344 34.5843 49.0768C34.7238 48.9193 35.2996 48.2687 35.2996 48.2687L33.878 50.1568C33.878 50.1568 33.3319 50.7386 33.9698 51.3977C34.2151 51.6502 34.4476 51.7238 34.6411 51.7187C34.6812 52.2728 34.7648 53.2279 34.7648 53.2279C34.7648 53.2279 34.8478 53.9428 35.5551 53.9367C35.7032 53.9427 35.85 53.9053 35.9774 53.8289C36.1048 53.7525 36.2072 53.6405 36.2719 53.5068L36.2881 53.4061C36.2885 53.6774 36.35 53.9449 36.4682 54.1886L38.046 53.7292L38.0468 53.7318L40.9118 52.8951L38.0366 42.9065Z" fill="#CE8959"/>
<path d="M36.4691 54.1883C36.4691 54.1883 36.2567 53.6072 36.2728 53.5065C36.289 53.4058 36.5051 51.3754 37.7238 51.4197L38.9426 51.4641L39.3849 53.3369L37.5828 56.3734L36.4691 54.1883Z" fill="#E89D62"/>
<path d="M37.7383 52.6446C37.9106 53.2431 38.5364 53.5876 39.1343 53.413L39.8403 53.2068C40.4348 53.0332 40.7771 52.4115 40.6057 51.8163L37.6582 41.5763C37.3966 40.6674 36.9041 40.9708 36.1524 41.1903L36.0092 41.2321C35.2576 41.4516 34.5316 41.504 34.7932 42.413L37.7383 52.6446Z" fill="#C2FE26"/>
<path d="M42.4258 46.0358C42.056 45.6351 40.3141 43.6007 40.3141 43.6007C40.0963 43.422 39.8454 43.2879 39.5757 43.2059L38.7057 42.9624L38.7025 42.9617L38.7015 42.9615L38.6927 42.9596L38.6911 42.9593C38.6868 42.9584 38.6816 42.9573 38.6754 42.9561L38.6749 42.956C38.4651 42.9167 38.2515 42.9002 38.038 42.9068L39.2561 47.1389C38.7052 46.5221 37.8302 45.2518 37.0914 45.5586C36.3208 45.8785 36.4981 46.6227 37.6043 48.2522L38.8468 51.0575L39.3853 53.3374L36.4695 54.1889L37.5832 56.374C37.5832 56.374 37.8463 56.9903 38.4559 56.7665L39.0971 59.1907L45.2125 57.4049L44.1947 54.5127C44.1947 54.5127 44.6723 54.1649 44.5133 53.4484C44.3533 52.732 42.9089 46.7502 42.9089 46.7502C42.7921 46.4849 42.6285 46.2429 42.4258 46.0358Z" fill="#E89D62"/>
<path d="M37.4364 46.7305C37.4743 46.7193 37.5096 46.7005 37.5402 46.6753C37.5723 46.6546 37.8717 46.46 38.0839 46.3329C38.1197 46.3159 38.151 46.2906 38.175 46.2589C38.199 46.2273 38.215 46.1904 38.2217 46.1513C38.2228 46.1172 38.2167 46.0834 38.2037 46.052C38.1908 46.0205 38.1714 45.9922 38.1467 45.9689L37.9315 45.6874C37.9238 45.6775 37.9126 45.6711 37.9003 45.6696C37.888 45.668 37.8755 45.6714 37.8656 45.679C37.8557 45.6865 37.8492 45.6977 37.8475 45.7101C37.8457 45.7224 37.849 45.7349 37.8564 45.7448L38.0744 46.0291C38.0759 46.0314 38.0778 46.0335 38.08 46.0352C38.1101 46.0633 38.1279 46.1022 38.1294 46.1435C38.1228 46.1676 38.111 46.1899 38.0948 46.2089C38.0786 46.2279 38.0584 46.2431 38.0356 46.2533C37.8121 46.3869 37.4913 46.5961 37.4871 46.5985C37.4853 46.6001 37.4833 46.6015 37.4809 46.6036C37.4439 46.634 37.397 46.6495 37.3493 46.647C37.3147 46.6406 37.2819 46.6271 37.2529 46.6074C37.2239 46.5877 37.1993 46.5622 37.1806 46.5325C36.9973 46.2905 36.7359 45.8625 36.7334 45.858C36.7302 45.8528 36.7261 45.8482 36.7211 45.8446C36.7162 45.841 36.7105 45.8384 36.7046 45.837C36.6986 45.8355 36.6924 45.8353 36.6863 45.8363C36.6803 45.8373 36.6745 45.8394 36.6692 45.8427C36.664 45.8459 36.6595 45.8502 36.6559 45.8552C36.6523 45.8602 36.6497 45.8658 36.6483 45.8718C36.6469 45.8778 36.6467 45.884 36.6477 45.89C36.6487 45.8961 36.6509 45.9019 36.6542 45.9071C36.6569 45.911 36.9197 46.3437 37.1059 46.589C37.1321 46.6298 37.1668 46.6644 37.2077 46.6905C37.2485 46.7165 37.2946 46.7334 37.3427 46.7399C37.3742 46.7428 37.406 46.7396 37.4364 46.7305Z" fill="#FB8B68"/>
<path d="M38.5694 48.1736C38.573 48.1724 38.5766 48.1709 38.58 48.1691L39.3224 47.7207C39.3329 47.7143 39.3405 47.704 39.3436 47.6921C39.3466 47.6802 39.3449 47.6675 39.3388 47.6569C39.3357 47.6516 39.3316 47.647 39.3267 47.6434C39.3218 47.6397 39.3162 47.637 39.3103 47.6355C39.3044 47.634 39.2982 47.6337 39.2921 47.6346C39.2861 47.6355 39.2802 47.6376 39.275 47.6408L38.5322 48.089C38.5217 48.0955 38.5141 48.1059 38.5112 48.1179C38.5082 48.1299 38.5101 48.1426 38.5165 48.1532C38.5217 48.162 38.5298 48.1688 38.5394 48.1725C38.549 48.1762 38.5596 48.1766 38.5694 48.1736Z" fill="#FB8B68"/>
<path d="M38.818 48.3561C38.8221 48.3549 38.8261 48.3532 38.83 48.3512L39.4116 48.0002C39.417 47.9972 39.4216 47.9931 39.4254 47.9882C39.4291 47.9833 39.4318 47.9777 39.4333 47.9717C39.4348 47.9658 39.435 47.9596 39.4341 47.9535C39.4331 47.9475 39.4309 47.9417 39.4276 47.9365C39.4246 47.9312 39.4205 47.9265 39.4156 47.9228C39.4107 47.9191 39.405 47.9164 39.3991 47.9149C39.3931 47.9134 39.3869 47.9131 39.3808 47.9141C39.3747 47.915 39.3688 47.9172 39.3636 47.9205L38.7819 48.2715C38.7721 48.2772 38.7648 48.2863 38.7612 48.297C38.7577 48.3078 38.7581 48.3195 38.7626 48.3299C38.767 48.3403 38.7751 48.3487 38.7853 48.3535C38.7955 48.3583 38.8071 48.3592 38.818 48.3561Z" fill="#FB8B68"/>
<path d="M42.6024 50.9097C42.6094 50.908 42.6158 50.9046 42.6212 50.8999C42.6257 50.8957 42.6294 50.8907 42.632 50.8852C42.6346 50.8796 42.6361 50.8736 42.6364 50.8674C42.6367 50.8613 42.6358 50.8552 42.6337 50.8494C42.6316 50.8437 42.6284 50.8384 42.6243 50.8339C42.5981 50.8035 39.8997 47.7567 39.3607 47.1835C39.3565 47.179 39.3515 47.1754 39.346 47.1729C39.3405 47.1704 39.3345 47.169 39.3284 47.1688C39.3223 47.1686 39.3162 47.1696 39.3105 47.1717C39.3048 47.1739 39.2995 47.1771 39.2951 47.1813C39.2906 47.1854 39.287 47.1904 39.2845 47.196C39.2819 47.2016 39.2805 47.2075 39.2802 47.2136C39.28 47.2197 39.281 47.2258 39.2831 47.2315C39.2852 47.2372 39.2884 47.2425 39.2926 47.2469C39.8308 47.8201 42.5276 50.8654 42.5552 50.8962C42.5609 50.9028 42.5684 50.9075 42.5768 50.9099C42.5852 50.9123 42.594 50.9123 42.6024 50.9097Z" fill="#FB8B68"/>
<path d="M37.4364 46.7305C37.4743 46.7193 37.5096 46.7005 37.5402 46.6753C37.5723 46.6546 37.8717 46.46 38.0839 46.3329C38.1197 46.3159 38.151 46.2906 38.175 46.2589C38.199 46.2273 38.215 46.1904 38.2217 46.1513C38.2228 46.1172 38.2167 46.0834 38.2037 46.052C38.1908 46.0205 38.1714 45.9922 38.1467 45.9689L37.9315 45.6874C37.9238 45.6775 37.9126 45.6711 37.9003 45.6696C37.888 45.668 37.8755 45.6714 37.8656 45.679C37.8557 45.6865 37.8492 45.6977 37.8475 45.7101C37.8457 45.7224 37.849 45.7349 37.8564 45.7448L38.0744 46.0291C38.0759 46.0314 38.0778 46.0335 38.08 46.0352C38.1101 46.0633 38.1279 46.1022 38.1294 46.1435C38.1228 46.1676 38.111 46.1899 38.0948 46.2089C38.0786 46.2279 38.0584 46.2431 38.0356 46.2533C37.8121 46.3869 37.4913 46.5961 37.4871 46.5985C37.4853 46.6001 37.4833 46.6015 37.4809 46.6036C37.4439 46.634 37.397 46.6495 37.3493 46.647C37.3147 46.6406 37.2819 46.6271 37.2529 46.6074C37.2239 46.5877 37.1993 46.5622 37.1806 46.5325C36.9973 46.2905 36.7359 45.8625 36.7334 45.858C36.7302 45.8528 36.7261 45.8482 36.7211 45.8446C36.7162 45.841 36.7105 45.8384 36.7046 45.837C36.6986 45.8355 36.6924 45.8353 36.6863 45.8363C36.6803 45.8373 36.6745 45.8394 36.6692 45.8427C36.664 45.8459 36.6595 45.8502 36.6559 45.8552C36.6523 45.8602 36.6497 45.8658 36.6483 45.8718C36.6469 45.8778 36.6467 45.884 36.6477 45.89C36.6487 45.8961 36.6509 45.9019 36.6542 45.9071C36.6569 45.911 36.9197 46.3437 37.1059 46.589C37.1321 46.6298 37.1668 46.6644 37.2077 46.6905C37.2485 46.7165 37.2946 46.7334 37.3427 46.7399C37.3742 46.7428 37.406 46.7396 37.4364 46.7305Z" fill="#AD4F2F"/>
<path d="M38.5694 48.1736C38.573 48.1724 38.5766 48.1709 38.58 48.1691L39.3224 47.7207C39.3329 47.7143 39.3405 47.704 39.3436 47.6921C39.3466 47.6802 39.3449 47.6675 39.3388 47.6569C39.3357 47.6516 39.3316 47.647 39.3267 47.6434C39.3218 47.6397 39.3162 47.637 39.3103 47.6355C39.3044 47.634 39.2982 47.6337 39.2921 47.6346C39.2861 47.6355 39.2802 47.6376 39.275 47.6408L38.5322 48.089C38.5217 48.0955 38.5141 48.1059 38.5112 48.1179C38.5082 48.1299 38.5101 48.1426 38.5165 48.1532C38.5217 48.162 38.5298 48.1688 38.5394 48.1725C38.549 48.1762 38.5596 48.1766 38.5694 48.1736Z" fill="#AD4F2F"/>
<path d="M38.818 48.3561C38.8221 48.3549 38.8261 48.3532 38.83 48.3512L39.4116 48.0002C39.417 47.9972 39.4216 47.9931 39.4254 47.9882C39.4291 47.9833 39.4318 47.9777 39.4333 47.9717C39.4348 47.9658 39.435 47.9596 39.4341 47.9535C39.4331 47.9475 39.4309 47.9417 39.4276 47.9365C39.4246 47.9312 39.4205 47.9265 39.4156 47.9228C39.4107 47.9191 39.405 47.9164 39.3991 47.9149C39.3931 47.9134 39.3869 47.9131 39.3808 47.9141C39.3747 47.915 39.3688 47.9172 39.3636 47.9205L38.7819 48.2715C38.7721 48.2772 38.7648 48.2863 38.7612 48.297C38.7577 48.3078 38.7581 48.3195 38.7626 48.3299C38.767 48.3403 38.7751 48.3487 38.7853 48.3535C38.7955 48.3583 38.8071 48.3592 38.818 48.3561Z" fill="#AD4F2F"/>
<path d="M42.6024 50.9097C42.6094 50.908 42.6158 50.9046 42.6212 50.8999C42.6257 50.8957 42.6294 50.8907 42.632 50.8852C42.6346 50.8796 42.6361 50.8736 42.6364 50.8674C42.6367 50.8613 42.6358 50.8552 42.6337 50.8494C42.6316 50.8437 42.6284 50.8384 42.6243 50.8339C42.5981 50.8035 39.8997 47.7567 39.3607 47.1835C39.3565 47.179 39.3515 47.1754 39.346 47.1729C39.3405 47.1704 39.3345 47.169 39.3284 47.1688C39.3223 47.1686 39.3162 47.1696 39.3105 47.1717C39.3048 47.1739 39.2995 47.1771 39.2951 47.1813C39.2906 47.1854 39.287 47.1904 39.2845 47.196C39.2819 47.2016 39.2805 47.2075 39.2802 47.2136C39.28 47.2197 39.281 47.2258 39.2831 47.2315C39.2852 47.2372 39.2884 47.2425 39.2926 47.2469C39.8308 47.8201 42.5276 50.8654 42.5552 50.8962C42.5609 50.9028 42.5684 50.9075 42.5768 50.9099C42.5852 50.9123 42.594 50.9123 42.6024 50.9097Z" fill="#AD4F2F"/>
<path d="M42.2474 55.9241C43.4868 55.5622 43.7264 55.0222 43.7362 55L43.6084 54.9453C43.6058 54.9496 43.3748 55.4485 42.2085 55.7891C41.9504 55.8651 41.6796 55.8872 41.413 55.854C41.1464 55.8207 40.8897 55.7329 40.6589 55.5959C40.4124 55.4528 40.1977 55.261 40.0277 55.0321C39.8577 54.8032 39.7361 54.5421 39.67 54.2644L39.5335 54.2965C39.604 54.5927 39.7338 54.8713 39.9151 55.1154C40.0963 55.3595 40.3253 55.5641 40.5882 55.7169C40.8353 55.8635 41.1101 55.9575 41.3956 55.9932C41.681 56.0288 41.9709 56.0053 42.2474 55.9241Z" fill="#AD4F2F"/>
<path d="M39.0952 61.0643L46.1494 59.0043L48.4795 65.3475L41.6205 69.8206L39.0952 61.0643Z" fill="#0E1832"/>
<path d="M45.7019 57.2609L38.5471 59.3502L39.1357 61.395L46.2904 59.3057L45.7019 57.2609Z" fill="#FFFFFD"/>
<path d="M39.3506 60.2237C39.3795 60.3242 39.4376 60.4137 39.5175 60.481C39.5975 60.5482 39.6956 60.5901 39.7996 60.6014C39.9035 60.6127 40.0087 60.5929 40.1016 60.5445C40.1946 60.496 40.2712 60.4212 40.3218 60.3293C40.3724 60.2375 40.3947 60.1328 40.3859 60.0285C40.3771 59.9242 40.3376 59.825 40.2723 59.7434C40.2071 59.6618 40.1191 59.6015 40.0194 59.5702C39.9197 59.5388 39.8128 59.5378 39.7123 59.5672C39.5775 59.6066 39.4637 59.6979 39.3959 59.8211C39.3281 59.9442 39.3117 60.089 39.3506 60.2237Z" fill="#101C34"/>
<path d="M35.6831 40.137C34.0383 40.6174 32.2901 40.5994 30.6595 40.0854C29.029 39.5714 27.5893 38.5844 26.5227 37.2493C25.456 35.9142 24.8102 34.2909 24.667 32.5847C24.5237 30.8785 24.8894 29.1661 25.7179 27.6639C26.5463 26.1617 27.8003 24.9373 29.3212 24.1454C30.8421 23.3536 32.5616 23.0299 34.2624 23.2153C35.9631 23.4007 37.5686 24.0868 38.8759 25.1869C40.1832 26.2871 41.1336 27.7518 41.6068 29.3959C42.2387 31.6005 41.9699 33.9694 40.8594 35.9831C39.7489 37.9968 37.8873 39.4906 35.6831 40.137ZM31.1789 24.4887C29.7273 24.9126 28.4322 25.7572 27.4573 26.9157C26.4824 28.0742 25.8715 29.4946 25.7019 30.9972C25.5322 32.4999 25.8114 34.0173 26.5042 35.3576C27.197 36.6979 28.2722 37.8009 29.5939 38.5271C30.9156 39.2532 32.4244 39.57 33.9296 39.4373C35.4347 39.3047 36.8685 38.7285 38.0498 37.7816C39.231 36.8348 40.1066 35.5598 40.5658 34.118C41.025 32.6761 41.0472 31.1321 40.6295 29.6813C40.0675 27.737 38.7569 26.0985 36.9851 25.125C35.2134 24.1516 33.1253 23.9227 31.1789 24.4887Z" fill="#2B2B2B"/>
<path d="M35.4791 39.4332C33.8768 39.9011 32.1738 39.8836 30.5854 39.3829C28.997 38.8821 27.5946 37.9207 26.5555 36.6201C25.5164 35.3195 24.8873 33.7382 24.7477 32.0761C24.6082 30.414 24.9644 28.7458 25.7715 27.2825C26.5785 25.8192 27.8 24.6264 29.2816 23.855C30.7632 23.0836 32.4383 22.7683 34.0951 22.9489C35.7518 23.1295 37.3158 23.7979 38.5894 24.8696C39.8629 25.9413 40.7887 27.3681 41.2497 28.9697C41.8652 31.1173 41.6033 33.425 40.5215 35.3866C39.4397 37.3482 37.6263 38.8035 35.4791 39.4332ZM30.9749 23.7849C29.4808 24.2212 28.1477 25.0905 27.1443 26.283C26.1408 27.4754 25.512 28.9374 25.3374 30.4841C25.1628 32.0307 25.4502 33.5926 26.1632 34.9722C26.8763 36.3517 27.983 37.487 29.3435 38.2345C30.7039 38.9819 32.2569 39.308 33.8061 39.1714C35.3554 39.0348 36.8312 38.4418 38.047 37.4672C39.2629 36.4926 40.1641 35.1803 40.6368 33.6962C41.1094 32.2121 41.1322 30.6229 40.7024 29.1295C40.1239 27.1283 38.7748 25.4418 36.9512 24.4398C35.1276 23.4378 32.9783 23.2023 30.9749 23.7849Z" fill="#C2FE26"/>
<path opacity="0.1" d="M29.2454 38.3226C32.8224 40.5441 37.5338 39.4357 39.7684 35.8469C42.003 32.2581 40.9148 27.5479 37.3377 25.3263C33.7606 23.1048 29.0493 24.2131 26.8147 27.802C24.58 31.3908 25.6683 36.101 29.2454 38.3226Z" fill="#FFFFFD"/>
<path d="M37.8377 42.0616C37.936 42.0549 38.0215 42.1291 38.0285 42.2273C38.0353 42.3258 37.9606 42.4119 37.8621 42.4187C37.4012 42.4508 36.9447 42.5331 36.5013 42.6648L36.4995 42.6656C36.005 42.8065 35.5299 43.0088 35.085 43.2676C34.9997 43.3172 34.8905 43.2877 34.8409 43.2024C34.7913 43.1172 34.8197 43.008 34.9048 42.9583C35.3753 42.6846 35.8783 42.4702 36.4015 42.3211C36.8693 42.1822 37.3513 42.0954 37.8377 42.0616Z" fill="#D3FD60"/>
<path d="M37.9757 42.5352C38.0739 42.5285 38.1594 42.6027 38.1664 42.701C38.1733 42.7995 38.0986 42.8855 38.0001 42.8924C37.5391 42.9244 37.0826 43.0067 36.6392 43.1384L36.6374 43.1392C36.143 43.2801 35.6678 43.4825 35.223 43.7412C35.1377 43.7908 35.0284 43.7613 34.9788 43.676C34.9293 43.5908 34.9577 43.4817 35.0427 43.4319C35.5133 43.1582 36.0163 42.9438 36.5394 42.7947C37.0073 42.6559 37.4892 42.569 37.9757 42.5352Z" fill="#D3FD60"/>
</g>
</g>
<defs>
<clipPath id="clip0_686_12477">
<rect width="51" height="51" fill="white" transform="translate(8.5 8.5)"/>
</clipPath>
<clipPath id="clip1_686_12477">
<rect width="39.6409" height="32.7698" fill="white" transform="translate(32.1343 19.4565) rotate(40)"/>
</clipPath>
</defs>
</svg>
