<svg width="80" height="80" viewBox="0 0 80 80" fill="none" xmlns="http://www.w3.org/2000/svg">
<path fill-rule="evenodd" clip-rule="evenodd" d="M61.7331 9.60922C63.1294 8.68302 64.991 9.03035 65.9219 10.3039C68.598 14.2402 70.2269 18.9869 70.2269 24.081C70.2269 29.1751 68.598 33.9218 65.9219 37.8581C64.991 39.2474 63.1294 39.5947 61.7331 38.5528C60.3369 37.6266 59.9878 35.7742 61.035 34.3849C63.1294 31.4905 64.2929 27.9015 64.2929 24.081C64.2929 20.2604 63.1294 16.6714 61.035 13.7771C60.1042 12.3878 60.4533 10.5354 61.7331 9.60922Z" fill="#8C2582"/>
<path d="M49.1671 42.1418H46.0255C35.7864 42.1418 27.6417 34.0376 27.6417 24.081C27.6417 14.1245 35.9028 6.13604 46.2582 6.02026C48.7017 6.02026 51.0287 6.48336 53.1231 7.40955C54.6357 7.98842 56.381 7.40955 57.0791 5.78871C57.6609 4.28365 57.0791 2.54703 55.4502 1.85239C52.6577 0.694646 49.6325 0.115774 46.3746 0H46.2582H12.9812C9.14154 0 6 3.1259 6 6.94645V42.026V73.0535C6 76.8741 9.14154 80 12.9812 80H49.1671C59.7552 80 68.249 71.4327 68.249 61.013C68.249 50.5933 59.6389 42.026 49.1671 42.026V42.1418Z" fill="#8C2582"/>
<path fill-rule="evenodd" clip-rule="evenodd" d="M46.1422 11.3457C38.9283 11.3457 33.1106 17.1344 33.1106 24.3124C33.1106 31.4904 38.9283 37.2791 46.1422 37.2791C53.3561 37.2791 59.1737 31.4904 59.1737 24.3124C59.1737 17.1344 53.3561 11.3457 46.1422 11.3457Z" fill="#8C2582"/>
<mask id="mask0_3717_24130" style="mask-type:luminance" maskUnits="userSpaceOnUse" x="40" y="24" width="13" height="9">
<path d="M52.0763 24.8911H40.3246V32.9953H52.0763V24.8911Z" fill="white"/>
</mask>
<g mask="url(#mask0_3717_24130)">
<path d="M40.5572 25.8176C40.6857 25.8176 40.7899 25.7139 40.7899 25.586C40.7899 25.4582 40.6857 25.3545 40.5572 25.3545C40.4286 25.3545 40.3245 25.4582 40.3245 25.586C40.3245 25.7139 40.4286 25.8176 40.5572 25.8176Z" fill="white"/>
<path d="M41.604 25.8176C41.7326 25.8176 41.8367 25.7139 41.8367 25.586C41.8367 25.4582 41.7326 25.3545 41.604 25.3545C41.4755 25.3545 41.3713 25.4582 41.3713 25.586C41.3713 25.7139 41.4755 25.8176 41.604 25.8176Z" fill="white"/>
<path d="M42.5352 25.8176C42.6637 25.8176 42.7679 25.7139 42.7679 25.586C42.7679 25.4582 42.6637 25.3545 42.5352 25.3545C42.4067 25.3545 42.3025 25.4582 42.3025 25.586C42.3025 25.7139 42.4067 25.8176 42.5352 25.8176Z" fill="white"/>
<path d="M43.5823 25.8176C43.7108 25.8176 43.815 25.7139 43.815 25.586C43.815 25.4582 43.7108 25.3545 43.5823 25.3545C43.4538 25.3545 43.3496 25.4582 43.3496 25.586C43.3496 25.7139 43.4538 25.8176 43.5823 25.8176Z" fill="white"/>
<path d="M44.6294 25.8176C44.758 25.8176 44.8621 25.7139 44.8621 25.586C44.8621 25.4582 44.758 25.3545 44.6294 25.3545C44.5009 25.3545 44.3967 25.4582 44.3967 25.586C44.3967 25.7139 44.5009 25.8176 44.6294 25.8176Z" fill="white"/>
<path d="M45.6766 25.8176C45.8051 25.8176 45.9093 25.7139 45.9093 25.586C45.9093 25.4582 45.8051 25.3545 45.6766 25.3545C45.548 25.3545 45.4438 25.4582 45.4438 25.586C45.4438 25.7139 45.548 25.8176 45.6766 25.8176Z" fill="white"/>
<path d="M46.7236 25.8176C46.8521 25.8176 46.9563 25.7139 46.9563 25.586C46.9563 25.4582 46.8521 25.3545 46.7236 25.3545C46.595 25.3545 46.4908 25.4582 46.4908 25.586C46.4908 25.7139 46.595 25.8176 46.7236 25.8176Z" fill="white"/>
<path d="M47.7707 25.8176C47.8992 25.8176 48.0034 25.7139 48.0034 25.586C48.0034 25.4582 47.8992 25.3545 47.7707 25.3545C47.6421 25.3545 47.538 25.4582 47.538 25.586C47.538 25.7139 47.6421 25.8176 47.7707 25.8176Z" fill="white"/>
<path d="M48.7018 25.8176C48.8303 25.8176 48.9345 25.7139 48.9345 25.586C48.9345 25.4582 48.8303 25.3545 48.7018 25.3545C48.5733 25.3545 48.4691 25.4582 48.4691 25.586C48.4691 25.7139 48.5733 25.8176 48.7018 25.8176Z" fill="white"/>
<path d="M49.749 25.8176C49.8775 25.8176 49.9816 25.7139 49.9816 25.586C49.9816 25.4582 49.8775 25.3545 49.749 25.3545C49.6204 25.3545 49.5162 25.4582 49.5162 25.586C49.5162 25.7139 49.6204 25.8176 49.749 25.8176Z" fill="white"/>
<path d="M50.796 25.8176C50.9245 25.8176 51.0286 25.7139 51.0286 25.586C51.0286 25.4582 50.9245 25.3545 50.796 25.3545C50.6674 25.3545 50.5632 25.4582 50.5632 25.586C50.5632 25.7139 50.6674 25.8176 50.796 25.8176Z" fill="white"/>
<path d="M51.8431 25.8176C51.9716 25.8176 52.0758 25.7139 52.0758 25.586C52.0758 25.4582 51.9716 25.3545 51.8431 25.3545C51.7146 25.3545 51.6104 25.4582 51.6104 25.586C51.6104 25.7139 51.7146 25.8176 51.8431 25.8176Z" fill="white"/>
<path d="M41.0226 26.8591C41.1511 26.8591 41.2553 26.7554 41.2553 26.6275C41.2553 26.4997 41.1511 26.396 41.0226 26.396C40.8941 26.396 40.7899 26.4997 40.7899 26.6275C40.7899 26.7554 40.8941 26.8591 41.0226 26.8591Z" fill="white"/>
<path d="M42.0696 26.8591C42.1982 26.8591 42.3023 26.7554 42.3023 26.6275C42.3023 26.4997 42.1982 26.396 42.0696 26.396C41.9411 26.396 41.8369 26.4997 41.8369 26.6275C41.8369 26.7554 41.9411 26.8591 42.0696 26.8591Z" fill="white"/>
<path d="M43.1167 26.8591C43.2453 26.8591 43.3494 26.7554 43.3494 26.6275C43.3494 26.4997 43.2453 26.396 43.1167 26.396C42.9882 26.396 42.884 26.4997 42.884 26.6275C42.884 26.7554 42.9882 26.8591 43.1167 26.8591Z" fill="white"/>
<path d="M44.1639 26.8591C44.2924 26.8591 44.3966 26.7554 44.3966 26.6275C44.3966 26.4997 44.2924 26.396 44.1639 26.396C44.0353 26.396 43.9312 26.4997 43.9312 26.6275C43.9312 26.7554 44.0353 26.8591 44.1639 26.8591Z" fill="white"/>
<path d="M45.211 26.8591C45.3395 26.8591 45.4437 26.7554 45.4437 26.6275C45.4437 26.4997 45.3395 26.396 45.211 26.396C45.0825 26.396 44.9783 26.4997 44.9783 26.6275C44.9783 26.7554 45.0825 26.8591 45.211 26.8591Z" fill="white"/>
<path d="M46.142 26.8591C46.2705 26.8591 46.3747 26.7554 46.3747 26.6275C46.3747 26.4997 46.2705 26.396 46.142 26.396C46.0135 26.396 45.9093 26.4997 45.9093 26.6275C45.9093 26.7554 46.0135 26.8591 46.142 26.8591Z" fill="white"/>
<path d="M47.1891 26.8591C47.3176 26.8591 47.4218 26.7554 47.4218 26.6275C47.4218 26.4997 47.3176 26.396 47.1891 26.396C47.0606 26.396 46.9564 26.4997 46.9564 26.6275C46.9564 26.7554 47.0606 26.8591 47.1891 26.8591Z" fill="white"/>
<path d="M48.2362 26.8591C48.3647 26.8591 48.4689 26.7554 48.4689 26.6275C48.4689 26.4997 48.3647 26.396 48.2362 26.396C48.1077 26.396 48.0035 26.4997 48.0035 26.6275C48.0035 26.7554 48.1077 26.8591 48.2362 26.8591Z" fill="white"/>
<path d="M49.2833 26.8591C49.4119 26.8591 49.5161 26.7554 49.5161 26.6275C49.5161 26.4997 49.4119 26.396 49.2833 26.396C49.1548 26.396 49.0507 26.4997 49.0507 26.6275C49.0507 26.7554 49.1548 26.8591 49.2833 26.8591Z" fill="white"/>
<path d="M50.3304 26.8591C50.4589 26.8591 50.5631 26.7554 50.5631 26.6275C50.5631 26.4997 50.4589 26.396 50.3304 26.396C50.2019 26.396 50.0977 26.4997 50.0977 26.6275C50.0977 26.7554 50.2019 26.8591 50.3304 26.8591Z" fill="white"/>
<path d="M51.2615 26.8591C51.39 26.8591 51.4943 26.7554 51.4943 26.6275C51.4943 26.4997 51.39 26.396 51.2615 26.396C51.133 26.396 51.0288 26.4997 51.0288 26.6275C51.0288 26.7554 51.133 26.8591 51.2615 26.8591Z" fill="white"/>
<path d="M40.557 27.7854C40.6856 27.7854 40.7897 27.6817 40.7897 27.5538C40.7897 27.4259 40.6856 27.3223 40.557 27.3223C40.4285 27.3223 40.3243 27.4259 40.3243 27.5538C40.3243 27.6817 40.4285 27.7854 40.557 27.7854Z" fill="white"/>
<path d="M41.604 27.7854C41.7326 27.7854 41.8367 27.6817 41.8367 27.5538C41.8367 27.4259 41.7326 27.3223 41.604 27.3223C41.4755 27.3223 41.3713 27.4259 41.3713 27.5538C41.3713 27.6817 41.4755 27.7854 41.604 27.7854Z" fill="white"/>
<path d="M42.5352 27.7854C42.6637 27.7854 42.7679 27.6817 42.7679 27.5538C42.7679 27.4259 42.6637 27.3223 42.5352 27.3223C42.4067 27.3223 42.3025 27.4259 42.3025 27.5538C42.3025 27.6817 42.4067 27.7854 42.5352 27.7854Z" fill="white"/>
<path d="M43.5823 27.7854C43.7108 27.7854 43.815 27.6817 43.815 27.5538C43.815 27.4259 43.7108 27.3223 43.5823 27.3223C43.4538 27.3223 43.3496 27.4259 43.3496 27.5538C43.3496 27.6817 43.4538 27.7854 43.5823 27.7854Z" fill="white"/>
<path d="M44.6294 27.7854C44.758 27.7854 44.8621 27.6817 44.8621 27.5538C44.8621 27.4259 44.758 27.3223 44.6294 27.3223C44.5009 27.3223 44.3967 27.4259 44.3967 27.5538C44.3967 27.6817 44.5009 27.7854 44.6294 27.7854Z" fill="white"/>
<path d="M45.6766 27.7854C45.8051 27.7854 45.9093 27.6817 45.9093 27.5538C45.9093 27.4259 45.8051 27.3223 45.6766 27.3223C45.548 27.3223 45.4438 27.4259 45.4438 27.5538C45.4438 27.6817 45.548 27.7854 45.6766 27.7854Z" fill="white"/>
<path d="M46.7236 27.7854C46.8521 27.7854 46.9563 27.6817 46.9563 27.5538C46.9563 27.4259 46.8521 27.3223 46.7236 27.3223C46.595 27.3223 46.4908 27.4259 46.4908 27.5538C46.4908 27.6817 46.595 27.7854 46.7236 27.7854Z" fill="white"/>
<path d="M47.7707 27.7854C47.8992 27.7854 48.0034 27.6817 48.0034 27.5538C48.0034 27.4259 47.8992 27.3223 47.7707 27.3223C47.6421 27.3223 47.538 27.4259 47.538 27.5538C47.538 27.6817 47.6421 27.7854 47.7707 27.7854Z" fill="white"/>
<path d="M48.7018 27.7854C48.8303 27.7854 48.9345 27.6817 48.9345 27.5538C48.9345 27.4259 48.8303 27.3223 48.7018 27.3223C48.5733 27.3223 48.4691 27.4259 48.4691 27.5538C48.4691 27.6817 48.5733 27.7854 48.7018 27.7854Z" fill="white"/>
<path d="M49.749 27.7854C49.8775 27.7854 49.9816 27.6817 49.9816 27.5538C49.9816 27.4259 49.8775 27.3223 49.749 27.3223C49.6204 27.3223 49.5162 27.4259 49.5162 27.5538C49.5162 27.6817 49.6204 27.7854 49.749 27.7854Z" fill="white"/>
<path d="M50.796 27.7854C50.9245 27.7854 51.0286 27.6817 51.0286 27.5538C51.0286 27.4259 50.9245 27.3223 50.796 27.3223C50.6674 27.3223 50.5632 27.4259 50.5632 27.5538C50.5632 27.6817 50.6674 27.7854 50.796 27.7854Z" fill="white"/>
<path d="M51.8431 27.7854C51.9716 27.7854 52.0758 27.6817 52.0758 27.5538C52.0758 27.4259 51.9716 27.3223 51.8431 27.3223C51.7146 27.3223 51.6104 27.4259 51.6104 27.5538C51.6104 27.6817 51.7146 27.7854 51.8431 27.7854Z" fill="white"/>
<path d="M41.0226 28.8274C41.1511 28.8274 41.2553 28.7237 41.2553 28.5958C41.2553 28.4679 41.1511 28.3643 41.0226 28.3643C40.8941 28.3643 40.7899 28.4679 40.7899 28.5958C40.7899 28.7237 40.8941 28.8274 41.0226 28.8274Z" fill="white"/>
<path d="M42.0696 28.8274C42.1982 28.8274 42.3023 28.7237 42.3023 28.5958C42.3023 28.4679 42.1982 28.3643 42.0696 28.3643C41.9411 28.3643 41.8369 28.4679 41.8369 28.5958C41.8369 28.7237 41.9411 28.8274 42.0696 28.8274Z" fill="white"/>
<path d="M43.1167 28.8274C43.2453 28.8274 43.3494 28.7237 43.3494 28.5958C43.3494 28.4679 43.2453 28.3643 43.1167 28.3643C42.9882 28.3643 42.884 28.4679 42.884 28.5958C42.884 28.7237 42.9882 28.8274 43.1167 28.8274Z" fill="white"/>
<path d="M44.1639 28.8274C44.2924 28.8274 44.3966 28.7237 44.3966 28.5958C44.3966 28.4679 44.2924 28.3643 44.1639 28.3643C44.0353 28.3643 43.9312 28.4679 43.9312 28.5958C43.9312 28.7237 44.0353 28.8274 44.1639 28.8274Z" fill="white"/>
<path d="M45.211 28.8274C45.3395 28.8274 45.4437 28.7237 45.4437 28.5958C45.4437 28.4679 45.3395 28.3643 45.211 28.3643C45.0825 28.3643 44.9783 28.4679 44.9783 28.5958C44.9783 28.7237 45.0825 28.8274 45.211 28.8274Z" fill="white"/>
<path d="M46.142 28.8274C46.2705 28.8274 46.3747 28.7237 46.3747 28.5958C46.3747 28.4679 46.2705 28.3643 46.142 28.3643C46.0135 28.3643 45.9093 28.4679 45.9093 28.5958C45.9093 28.7237 46.0135 28.8274 46.142 28.8274Z" fill="white"/>
<path d="M47.1891 28.8274C47.3176 28.8274 47.4218 28.7237 47.4218 28.5958C47.4218 28.4679 47.3176 28.3643 47.1891 28.3643C47.0606 28.3643 46.9564 28.4679 46.9564 28.5958C46.9564 28.7237 47.0606 28.8274 47.1891 28.8274Z" fill="white"/>
<path d="M48.2362 28.8274C48.3647 28.8274 48.4689 28.7237 48.4689 28.5958C48.4689 28.4679 48.3647 28.3643 48.2362 28.3643C48.1077 28.3643 48.0035 28.4679 48.0035 28.5958C48.0035 28.7237 48.1077 28.8274 48.2362 28.8274Z" fill="white"/>
<path d="M49.2833 28.8274C49.4119 28.8274 49.5161 28.7237 49.5161 28.5958C49.5161 28.4679 49.4119 28.3643 49.2833 28.3643C49.1548 28.3643 49.0507 28.4679 49.0507 28.5958C49.0507 28.7237 49.1548 28.8274 49.2833 28.8274Z" fill="white"/>
<path d="M50.3304 28.8274C50.4589 28.8274 50.5631 28.7237 50.5631 28.5958C50.5631 28.4679 50.4589 28.3643 50.3304 28.3643C50.2019 28.3643 50.0977 28.4679 50.0977 28.5958C50.0977 28.7237 50.2019 28.8274 50.3304 28.8274Z" fill="white"/>
<path d="M51.2615 28.8274C51.39 28.8274 51.4943 28.7237 51.4943 28.5958C51.4943 28.4679 51.39 28.3643 51.2615 28.3643C51.133 28.3643 51.0288 28.4679 51.0288 28.5958C51.0288 28.7237 51.133 28.8274 51.2615 28.8274Z" fill="white"/>
<path d="M40.557 29.8693C40.6856 29.8693 40.7897 29.7657 40.7897 29.6378C40.7897 29.5099 40.6856 29.4062 40.557 29.4062C40.4285 29.4062 40.3243 29.5099 40.3243 29.6378C40.3243 29.7657 40.4285 29.8693 40.557 29.8693Z" fill="white"/>
<path d="M41.604 29.8693C41.7326 29.8693 41.8367 29.7657 41.8367 29.6378C41.8367 29.5099 41.7326 29.4062 41.604 29.4062C41.4755 29.4062 41.3713 29.5099 41.3713 29.6378C41.3713 29.7657 41.4755 29.8693 41.604 29.8693Z" fill="white"/>
<path d="M42.5352 29.8693C42.6637 29.8693 42.7679 29.7657 42.7679 29.6378C42.7679 29.5099 42.6637 29.4062 42.5352 29.4062C42.4067 29.4062 42.3025 29.5099 42.3025 29.6378C42.3025 29.7657 42.4067 29.8693 42.5352 29.8693Z" fill="white"/>
<path d="M43.5823 29.8693C43.7108 29.8693 43.815 29.7657 43.815 29.6378C43.815 29.5099 43.7108 29.4062 43.5823 29.4062C43.4538 29.4062 43.3496 29.5099 43.3496 29.6378C43.3496 29.7657 43.4538 29.8693 43.5823 29.8693Z" fill="white"/>
<path d="M44.6294 29.8693C44.758 29.8693 44.8621 29.7657 44.8621 29.6378C44.8621 29.5099 44.758 29.4062 44.6294 29.4062C44.5009 29.4062 44.3967 29.5099 44.3967 29.6378C44.3967 29.7657 44.5009 29.8693 44.6294 29.8693Z" fill="white"/>
<path d="M45.6766 29.8693C45.8051 29.8693 45.9093 29.7657 45.9093 29.6378C45.9093 29.5099 45.8051 29.4062 45.6766 29.4062C45.548 29.4062 45.4438 29.5099 45.4438 29.6378C45.4438 29.7657 45.548 29.8693 45.6766 29.8693Z" fill="white"/>
<path d="M46.7236 29.8693C46.8521 29.8693 46.9563 29.7657 46.9563 29.6378C46.9563 29.5099 46.8521 29.4062 46.7236 29.4062C46.595 29.4062 46.4908 29.5099 46.4908 29.6378C46.4908 29.7657 46.595 29.8693 46.7236 29.8693Z" fill="white"/>
<path d="M47.7707 29.8693C47.8992 29.8693 48.0034 29.7657 48.0034 29.6378C48.0034 29.5099 47.8992 29.4062 47.7707 29.4062C47.6421 29.4062 47.538 29.5099 47.538 29.6378C47.538 29.7657 47.6421 29.8693 47.7707 29.8693Z" fill="white"/>
<path d="M48.7018 29.8693C48.8303 29.8693 48.9345 29.7657 48.9345 29.6378C48.9345 29.5099 48.8303 29.4062 48.7018 29.4062C48.5733 29.4062 48.4691 29.5099 48.4691 29.6378C48.4691 29.7657 48.5733 29.8693 48.7018 29.8693Z" fill="white"/>
<path d="M49.749 29.8693C49.8775 29.8693 49.9816 29.7657 49.9816 29.6378C49.9816 29.5099 49.8775 29.4062 49.749 29.4062C49.6204 29.4062 49.5162 29.5099 49.5162 29.6378C49.5162 29.7657 49.6204 29.8693 49.749 29.8693Z" fill="white"/>
<path d="M50.796 29.8693C50.9245 29.8693 51.0286 29.7657 51.0286 29.6378C51.0286 29.5099 50.9245 29.4062 50.796 29.4062C50.6674 29.4062 50.5632 29.5099 50.5632 29.6378C50.5632 29.7657 50.6674 29.8693 50.796 29.8693Z" fill="white"/>
<path d="M51.8431 29.8693C51.9716 29.8693 52.0758 29.7657 52.0758 29.6378C52.0758 29.5099 51.9716 29.4062 51.8431 29.4062C51.7146 29.4062 51.6104 29.5099 51.6104 29.6378C51.6104 29.7657 51.7146 29.8693 51.8431 29.8693Z" fill="white"/>
<path d="M41.0226 30.9113C41.1511 30.9113 41.2553 30.8077 41.2553 30.6798C41.2553 30.5519 41.1511 30.4482 41.0226 30.4482C40.8941 30.4482 40.7899 30.5519 40.7899 30.6798C40.7899 30.8077 40.8941 30.9113 41.0226 30.9113Z" fill="white"/>
<path d="M42.0696 30.9113C42.1982 30.9113 42.3023 30.8077 42.3023 30.6798C42.3023 30.5519 42.1982 30.4482 42.0696 30.4482C41.9411 30.4482 41.8369 30.5519 41.8369 30.6798C41.8369 30.8077 41.9411 30.9113 42.0696 30.9113Z" fill="white"/>
<path d="M43.1167 30.9113C43.2453 30.9113 43.3494 30.8077 43.3494 30.6798C43.3494 30.5519 43.2453 30.4482 43.1167 30.4482C42.9882 30.4482 42.884 30.5519 42.884 30.6798C42.884 30.8077 42.9882 30.9113 43.1167 30.9113Z" fill="white"/>
<path d="M44.1639 30.9113C44.2924 30.9113 44.3966 30.8077 44.3966 30.6798C44.3966 30.5519 44.2924 30.4482 44.1639 30.4482C44.0353 30.4482 43.9312 30.5519 43.9312 30.6798C43.9312 30.8077 44.0353 30.9113 44.1639 30.9113Z" fill="white"/>
<path d="M45.211 30.9113C45.3395 30.9113 45.4437 30.8077 45.4437 30.6798C45.4437 30.5519 45.3395 30.4482 45.211 30.4482C45.0825 30.4482 44.9783 30.5519 44.9783 30.6798C44.9783 30.8077 45.0825 30.9113 45.211 30.9113Z" fill="white"/>
<path d="M46.142 30.9113C46.2705 30.9113 46.3747 30.8077 46.3747 30.6798C46.3747 30.5519 46.2705 30.4482 46.142 30.4482C46.0135 30.4482 45.9093 30.5519 45.9093 30.6798C45.9093 30.8077 46.0135 30.9113 46.142 30.9113Z" fill="white"/>
<path d="M47.1891 30.9113C47.3176 30.9113 47.4218 30.8077 47.4218 30.6798C47.4218 30.5519 47.3176 30.4482 47.1891 30.4482C47.0606 30.4482 46.9564 30.5519 46.9564 30.6798C46.9564 30.8077 47.0606 30.9113 47.1891 30.9113Z" fill="white"/>
<path d="M48.2362 30.9113C48.3647 30.9113 48.4689 30.8077 48.4689 30.6798C48.4689 30.5519 48.3647 30.4482 48.2362 30.4482C48.1077 30.4482 48.0035 30.5519 48.0035 30.6798C48.0035 30.8077 48.1077 30.9113 48.2362 30.9113Z" fill="white"/>
<path d="M49.2833 30.9113C49.4119 30.9113 49.5161 30.8077 49.5161 30.6798C49.5161 30.5519 49.4119 30.4482 49.2833 30.4482C49.1548 30.4482 49.0507 30.5519 49.0507 30.6798C49.0507 30.8077 49.1548 30.9113 49.2833 30.9113Z" fill="white"/>
<path d="M50.3304 30.9113C50.4589 30.9113 50.5631 30.8077 50.5631 30.6798C50.5631 30.5519 50.4589 30.4482 50.3304 30.4482C50.2019 30.4482 50.0977 30.5519 50.0977 30.6798C50.0977 30.8077 50.2019 30.9113 50.3304 30.9113Z" fill="white"/>
<path d="M51.2615 30.9113C51.39 30.9113 51.4943 30.8077 51.4943 30.6798C51.4943 30.5519 51.39 30.4482 51.2615 30.4482C51.133 30.4482 51.0288 30.5519 51.0288 30.6798C51.0288 30.8077 51.133 30.9113 51.2615 30.9113Z" fill="white"/>
<path d="M40.557 31.9533C40.6856 31.9533 40.7897 31.8497 40.7897 31.7218C40.7897 31.5939 40.6856 31.4902 40.557 31.4902C40.4285 31.4902 40.3243 31.5939 40.3243 31.7218C40.3243 31.8497 40.4285 31.9533 40.557 31.9533Z" fill="white"/>
<path d="M41.604 31.9533C41.7326 31.9533 41.8367 31.8497 41.8367 31.7218C41.8367 31.5939 41.7326 31.4902 41.604 31.4902C41.4755 31.4902 41.3713 31.5939 41.3713 31.7218C41.3713 31.8497 41.4755 31.9533 41.604 31.9533Z" fill="white"/>
<path d="M42.5352 31.9533C42.6637 31.9533 42.7679 31.8497 42.7679 31.7218C42.7679 31.5939 42.6637 31.4902 42.5352 31.4902C42.4067 31.4902 42.3025 31.5939 42.3025 31.7218C42.3025 31.8497 42.4067 31.9533 42.5352 31.9533Z" fill="white"/>
<path d="M43.5823 31.9533C43.7108 31.9533 43.815 31.8497 43.815 31.7218C43.815 31.5939 43.7108 31.4902 43.5823 31.4902C43.4538 31.4902 43.3496 31.5939 43.3496 31.7218C43.3496 31.8497 43.4538 31.9533 43.5823 31.9533Z" fill="white"/>
<path d="M44.6294 31.9533C44.758 31.9533 44.8621 31.8497 44.8621 31.7218C44.8621 31.5939 44.758 31.4902 44.6294 31.4902C44.5009 31.4902 44.3967 31.5939 44.3967 31.7218C44.3967 31.8497 44.5009 31.9533 44.6294 31.9533Z" fill="white"/>
<path d="M45.6766 31.9533C45.8051 31.9533 45.9093 31.8497 45.9093 31.7218C45.9093 31.5939 45.8051 31.4902 45.6766 31.4902C45.548 31.4902 45.4438 31.5939 45.4438 31.7218C45.4438 31.8497 45.548 31.9533 45.6766 31.9533Z" fill="white"/>
<path d="M46.7236 31.9533C46.8521 31.9533 46.9563 31.8497 46.9563 31.7218C46.9563 31.5939 46.8521 31.4902 46.7236 31.4902C46.595 31.4902 46.4908 31.5939 46.4908 31.7218C46.4908 31.8497 46.595 31.9533 46.7236 31.9533Z" fill="white"/>
<path d="M47.7707 31.9533C47.8992 31.9533 48.0034 31.8497 48.0034 31.7218C48.0034 31.5939 47.8992 31.4902 47.7707 31.4902C47.6421 31.4902 47.538 31.5939 47.538 31.7218C47.538 31.8497 47.6421 31.9533 47.7707 31.9533Z" fill="white"/>
<path d="M48.7018 31.9533C48.8303 31.9533 48.9345 31.8497 48.9345 31.7218C48.9345 31.5939 48.8303 31.4902 48.7018 31.4902C48.5733 31.4902 48.4691 31.5939 48.4691 31.7218C48.4691 31.8497 48.5733 31.9533 48.7018 31.9533Z" fill="white"/>
<path d="M49.749 31.9533C49.8775 31.9533 49.9816 31.8497 49.9816 31.7218C49.9816 31.5939 49.8775 31.4902 49.749 31.4902C49.6204 31.4902 49.5162 31.5939 49.5162 31.7218C49.5162 31.8497 49.6204 31.9533 49.749 31.9533Z" fill="white"/>
<path d="M50.796 31.9533C50.9245 31.9533 51.0286 31.8497 51.0286 31.7218C51.0286 31.5939 50.9245 31.4902 50.796 31.4902C50.6674 31.4902 50.5632 31.5939 50.5632 31.7218C50.5632 31.8497 50.6674 31.9533 50.796 31.9533Z" fill="white"/>
<path d="M51.8431 31.9533C51.9716 31.9533 52.0758 31.8497 52.0758 31.7218C52.0758 31.5939 51.9716 31.4902 51.8431 31.4902C51.7146 31.4902 51.6104 31.5939 51.6104 31.7218C51.6104 31.8497 51.7146 31.9533 51.8431 31.9533Z" fill="white"/>
<path d="M41.0226 32.8796C41.1511 32.8796 41.2553 32.7759 41.2553 32.6481C41.2553 32.5202 41.1511 32.4165 41.0226 32.4165C40.8941 32.4165 40.7899 32.5202 40.7899 32.6481C40.7899 32.7759 40.8941 32.8796 41.0226 32.8796Z" fill="white"/>
<path d="M42.0696 32.8796C42.1982 32.8796 42.3023 32.7759 42.3023 32.6481C42.3023 32.5202 42.1982 32.4165 42.0696 32.4165C41.9411 32.4165 41.8369 32.5202 41.8369 32.6481C41.8369 32.7759 41.9411 32.8796 42.0696 32.8796Z" fill="white"/>
<path d="M43.1167 32.8796C43.2453 32.8796 43.3494 32.7759 43.3494 32.6481C43.3494 32.5202 43.2453 32.4165 43.1167 32.4165C42.9882 32.4165 42.884 32.5202 42.884 32.6481C42.884 32.7759 42.9882 32.8796 43.1167 32.8796Z" fill="white"/>
<path d="M44.1639 32.8796C44.2924 32.8796 44.3966 32.7759 44.3966 32.6481C44.3966 32.5202 44.2924 32.4165 44.1639 32.4165C44.0353 32.4165 43.9312 32.5202 43.9312 32.6481C43.9312 32.7759 44.0353 32.8796 44.1639 32.8796Z" fill="white"/>
<path d="M45.211 32.8796C45.3395 32.8796 45.4437 32.7759 45.4437 32.6481C45.4437 32.5202 45.3395 32.4165 45.211 32.4165C45.0825 32.4165 44.9783 32.5202 44.9783 32.6481C44.9783 32.7759 45.0825 32.8796 45.211 32.8796Z" fill="white"/>
<path d="M46.142 32.8796C46.2705 32.8796 46.3747 32.7759 46.3747 32.6481C46.3747 32.5202 46.2705 32.4165 46.142 32.4165C46.0135 32.4165 45.9093 32.5202 45.9093 32.6481C45.9093 32.7759 46.0135 32.8796 46.142 32.8796Z" fill="white"/>
<path d="M47.1891 32.8796C47.3176 32.8796 47.4218 32.7759 47.4218 32.6481C47.4218 32.5202 47.3176 32.4165 47.1891 32.4165C47.0606 32.4165 46.9564 32.5202 46.9564 32.6481C46.9564 32.7759 47.0606 32.8796 47.1891 32.8796Z" fill="white"/>
<path d="M48.2362 32.8796C48.3647 32.8796 48.4689 32.7759 48.4689 32.6481C48.4689 32.5202 48.3647 32.4165 48.2362 32.4165C48.1077 32.4165 48.0035 32.5202 48.0035 32.6481C48.0035 32.7759 48.1077 32.8796 48.2362 32.8796Z" fill="white"/>
<path d="M49.2833 32.8796C49.4119 32.8796 49.5161 32.7759 49.5161 32.6481C49.5161 32.5202 49.4119 32.4165 49.2833 32.4165C49.1548 32.4165 49.0507 32.5202 49.0507 32.6481C49.0507 32.7759 49.1548 32.8796 49.2833 32.8796Z" fill="white"/>
<path d="M50.3304 32.8796C50.4589 32.8796 50.5631 32.7759 50.5631 32.6481C50.5631 32.5202 50.4589 32.4165 50.3304 32.4165C50.2019 32.4165 50.0977 32.5202 50.0977 32.6481C50.0977 32.7759 50.2019 32.8796 50.3304 32.8796Z" fill="white"/>
<path d="M51.2615 32.8796C51.39 32.8796 51.4943 32.7759 51.4943 32.6481C51.4943 32.5202 51.39 32.4165 51.2615 32.4165C51.133 32.4165 51.0288 32.5202 51.0288 32.6481C51.0288 32.7759 51.133 32.8796 51.2615 32.8796Z" fill="white"/>
</g>
<path d="M54.4031 25.8173H38.1137C38.1137 25.8173 37.9973 25.5858 37.9973 25.3542C37.9973 25.1227 37.9973 24.8911 38.1137 24.8911H54.4031C54.4031 24.8911 54.5195 25.1227 54.5195 25.3542C54.5195 25.5858 54.5195 25.8173 54.4031 25.8173Z" fill="white"/>
<path d="M51.7272 20.0288L47.6548 15.9767C47.5385 15.8609 47.3058 15.7451 47.0731 15.7451H41.1391C40.6736 15.7451 40.3246 16.0924 40.3246 16.5555V24.3124H52.0763V20.6076C52.0763 20.3761 52.0763 20.1445 51.8436 20.0288H51.7272ZM48.4693 23.502H42.8844C42.6516 23.502 42.4189 23.2704 42.4189 23.0389C42.4189 22.8073 42.6516 22.5758 42.8844 22.5758H48.4693C48.702 22.5758 48.9347 22.8073 48.9347 23.0389C48.9347 23.2704 48.702 23.502 48.4693 23.502ZM48.4693 21.1865H42.8844C42.6516 21.1865 42.4189 20.955 42.4189 20.7234C42.4189 20.4919 42.6516 20.2603 42.8844 20.2603H48.4693C48.702 20.2603 48.9347 20.4919 48.9347 20.7234C48.9347 20.955 48.702 21.1865 48.4693 21.1865Z" fill="white"/>
</svg>
