<svg width="68" height="68" viewBox="0 0 68 68" fill="none" xmlns="http://www.w3.org/2000/svg">
<path d="M58.5 11.5H13.409C12.3547 11.5 11.5 12.3502 11.5 13.3989V59.5C11.5 60.5487 12.3547 61.3989 13.409 61.3989L60.591 62.5C61.6453 62.5 62.5 61.6499 62.5 60.6011L60.409 13.3989C60.409 12.3502 59.5543 11.5 58.5 11.5Z" fill="black" fill-opacity="0.7"/>
<path d="M57.591 8.5H10.409C9.3547 8.5 8.5 9.35015 8.5 10.3989V57.6011C8.5 58.6499 9.3547 59.5 10.409 59.5H57.591C58.6453 59.5 59.5 58.6499 59.5 57.6011V10.3989C59.5 9.35015 58.6453 8.5 57.591 8.5Z" fill="#FFFDFA"/>
<path d="M33.6318 32.003C32.9982 31.759 32.5579 31.1561 32.3664 30.5346C32.0183 29.4044 32.9004 28.2033 34.1147 28.1265C35.5057 28.0385 38.9197 27.6929 39.1122 28.2235C39.3047 28.7541 35.7873 31.4335 35.4929 31.6723C34.9854 32.0845 34.2556 32.2435 33.6318 32.003Z" fill="#162E4C"/>
<path d="M34.787 30.8165C34.5438 30.9934 34.2138 31.0124 33.9367 30.9341C33.4327 30.7919 33.1981 30.1751 33.4614 29.705C33.7632 29.1665 34.5116 29.2086 34.9032 29.5968C35.0256 29.7182 35.0935 29.8778 35.1116 30.0448C35.1427 30.3325 35.0263 30.6421 34.787 30.8165Z" fill="#7DB6F9"/>
<path d="M15.1859 24.7852C14.6297 26.6835 14.3911 28.6008 14.4298 30.4814H25.0823C25.0646 29.6258 25.1712 28.7537 25.4242 27.89C26.0468 25.7654 27.3941 24.2394 29.0817 23.2837L23.1771 14.6799C19.4886 16.7822 16.5486 20.1337 15.1859 24.7852Z" fill="#E8615B"/>
<path d="M52.4483 23.9432C51.2304 20.4337 48.9772 17.3298 45.7368 15.3176C45.4831 15.1602 45.225 15.0099 44.9646 14.8635L39.0781 23.4411C39.1596 23.4883 39.2422 23.5335 39.3219 23.5832C40.7962 24.4987 41.8211 25.9107 42.3752 27.5072C42.7043 28.4555 42.8631 29.4688 42.8552 30.4817H53.5124C53.5296 28.2552 53.1716 26.0278 52.4483 23.9432Z" fill="#26BC96"/>
<path d="M23.1772 14.6802L29.0819 23.2839C32.0485 21.6039 36.0685 21.6961 39.0788 23.4408L44.9653 14.8633C38.3597 11.1511 29.6248 11.0047 23.1772 14.6802Z" fill="#FFD106"/>
<path d="M23.265 14.6176L23.0806 14.7441L28.9847 23.3479L29.1691 23.2213L23.265 14.6176Z" fill="#162E4C"/>
<path d="M44.8706 14.8025L38.9856 23.3809L39.17 23.5074L45.055 14.929L44.8706 14.8025Z" fill="#162E4C"/>
<path d="M27.123 30.3696H12.6941V30.5935H27.123V30.3696Z" fill="#162E4C"/>
<path d="M55.3059 30.3696H40.8772V30.5935H55.3059V30.3696Z" fill="#162E4C"/>
<path d="M16.427 52.9451L13.4217 54.0311C12.5697 54.339 12.002 55.1484 12.002 56.0551Cnan nan nan nan 12.002 56.0551L-nan -nanL12.002 56.0551H24.362Lnan nanL24.362 56.0551Cnan nan nan nan 22.8858 54.0157L19.6232 52.9451H16.427Z" fill="#FFD106"/>
<path d="M16.6584 51.4009L16.4287 53.3361C16.4287 53.3361 17.9736 54.4846 19.7099 53.3361L19.3843 51.4009H16.6584Z" fill="#FDEBEC"/>
<path d="M21.8454 45.7007C21.8581 45.5117 21.8686 45.3179 21.8764 45.1197C21.8908 44.9884 21.8988 44.8552 21.8988 44.7201C21.8988 44.6442 21.8957 44.569 21.8911 44.4942C21.8911 44.492 21.8912 44.4899 21.8912 44.4878H21.8906C21.7691 42.5694 20.1546 41.0503 18.1798 41.0503C16.1259 41.0503 14.4608 42.6933 14.4608 44.7201C14.4608 44.892 14.4737 45.0608 14.4969 45.2264C14.5074 45.3611 14.5205 45.5194 14.5363 45.6957C14.3775 45.7526 13.6501 46.0595 14.1579 46.7631C14.1579 46.7631 14.32 46.9226 14.2862 47.107C14.2525 47.2913 14.1415 47.6426 14.3907 47.8258C14.5284 47.927 14.668 47.8376 14.7654 47.7374C14.8303 48.2073 14.9069 48.6925 14.9967 49.1612C14.9967 49.1612 16.8206 51.8 18.1798 51.8549C18.1798 51.8549 19.3133 52.0749 21.3445 49.0787C21.3445 49.0787 21.4764 48.5713 21.6106 47.7452C21.7076 47.8422 21.8435 47.9244 21.9776 47.8258C22.2268 47.6426 22.1158 47.2912 22.0821 47.107C22.0484 46.9227 22.2104 46.7631 22.2104 46.7631C22.705 46.078 22.0279 45.7689 21.8454 45.7007Z" fill="#FDEBEC"/>
<path d="M21.6533 44.9481C21.6533 44.9481 21.1362 49.2328 19.7962 48.991V48.9263C19.7962 48.61 19.5386 48.3536 19.2207 48.3536H17.1397C16.8219 48.3536 16.5643 48.61 16.5643 48.9263V49.0299C16.5643 49.0313 16.5645 49.0327 16.5645 49.0341C15.8938 49 14.8341 48.393 14.7242 44.9481L14.4666 44.9943L14.8052 49.2399C14.8052 49.2399 16.473 52.0009 18.1804 52.0815C18.1804 52.0815 19.9922 51.9442 21.5716 49.022L21.9018 44.948L21.6533 44.9481ZM19.3847 49.7713C19.3847 50.0989 19.1154 50.3669 18.7862 50.3669H18.7686C18.6568 50.3669 18.5614 50.2863 18.5433 50.1765L18.4715 49.7412C18.4534 49.6314 18.358 49.5507 18.2462 49.5507H18.0773C17.9618 49.5507 17.8644 49.6366 17.8506 49.7509L17.8002 50.1668C17.7864 50.281 17.6891 50.3669 17.5735 50.3669C17.2443 50.3669 16.975 50.0989 16.975 49.7713V49.3301C16.975 49.0026 17.2443 48.7345 17.5735 48.7345H18.6734C19.0646 48.7345 19.3846 49.053 19.3846 49.4423L19.3847 49.7713Z" fill="#303072"/>
<path d="M14.4662 45.0485C14.4662 45.0485 14.377 44.2421 14.4711 42.9926C14.5652 41.7431 15.2941 41.5819 15.2941 41.5819C15.2941 41.5819 15.1344 41.4857 14.9116 41.6873C14.6888 41.8888 14.9094 41.4662 15.3953 41.3729C15.8813 41.2796 16.1243 40.1309 17.4607 40.3526C17.4607 40.3526 16.8532 40.3727 16.6507 40.6146C16.6507 40.6146 17.1569 40.413 17.1772 40.5139C17.1772 40.5139 16.7114 40.7557 16.8329 40.8363C16.8329 40.8363 17.7239 40.2116 18.4325 40.2116C18.4325 40.2116 19.1007 39.8488 19.6273 39.9697C19.6273 39.9697 20.1537 40.1915 20.2145 40.8565C20.2145 40.8565 20.4575 40.796 20.5385 40.6348C20.6195 40.4735 20.7815 40.9572 20.7207 41.058C20.6599 41.1587 20.9333 41.4409 21.07 41.2595C21.07 41.2595 21.1662 41.6626 20.9029 41.6626C20.9029 41.6626 21.6594 41.5618 21.8886 42.2067C22.1178 42.8516 21.8759 45.2681 21.8759 45.2681L21.6496 45.234C21.6496 45.234 21.6925 43.436 21.4698 43.3554C21.2471 43.2748 20.7055 42.5089 19.9436 42.9926C19.1817 43.4763 19.4652 42.8717 19.3842 42.7507C19.3033 42.6298 19.1109 43.2546 18.8122 43.2546C18.5136 43.2546 18.2503 43.0493 17.9871 42.6078C17.7239 42.1663 17.8049 43.0732 17.9061 43.0732C18.0073 43.0732 18.0276 43.6173 17.0961 42.9322C16.1647 42.2469 14.8485 43.3755 14.8485 43.3755C14.8485 43.3755 14.6758 44.7607 14.7262 45.0193L14.4662 45.0485Z" fill="#303072"/>
<path d="M48.693 42C48.8626 42 49 42.2237 49 42.5C49 42.7763 48.8626 43 48.693 43H32.307C32.1374 43 32 42.7763 32 42.5C32 42.2237 32.1374 42 32.307 42H48.693Z" fill="#FFEDA3"/>
<path d="M53.6027 47C53.8222 47 54 47.2237 54 47.5C54 47.7763 53.8222 48 53.6027 48H32.3973C32.1778 48 32 47.7763 32 47.5C32 47.2237 32.1778 47 32.3973 47H53.6027Z" fill="#FFEDA3"/>
<path d="M53.7977 52C53.9095 52 54 52.2237 54 52.5C54 52.7763 53.9095 53 53.7977 53H32.2023C32.0905 53 32 52.7763 32 52.5C32 52.2237 32.0905 52 32.2023 52H53.7977Z" fill="#FFEDA3"/>
<path d="M29.8232 41.8232C29.9208 41.7256 30.0791 41.7256 30.1767 41.8232C30.2743 41.9208 30.2743 42.0791 30.1767 42.1767L28.1757 44.1767C28.1289 44.2235 28.0652 44.2499 27.999 44.25C27.9327 44.2499 27.869 44.2235 27.8222 44.1767L26.8232 43.1767C26.7256 43.0791 26.7256 42.9208 26.8232 42.8232C26.9208 42.7257 27.0791 42.7256 27.1767 42.8232L27.999 43.6455L29.8232 41.8232Z" fill="#479324"/>
<path d="M29.8232 46.8232C29.9208 46.7256 30.0791 46.7256 30.1767 46.8232C30.2743 46.9208 30.2743 47.0791 30.1767 47.1767L28.1757 49.1767C28.1289 49.2235 28.0652 49.2499 27.999 49.25C27.9327 49.2499 27.869 49.2235 27.8222 49.1767L26.8232 48.1767C26.7256 48.0791 26.7256 47.9208 26.8232 47.8232C26.9208 47.7257 27.0791 47.7256 27.1767 47.8232L27.999 48.6455L29.8232 46.8232Z" fill="#479324"/>
<path d="M29.8232 51.8232C29.9208 51.7256 30.0791 51.7256 30.1767 51.8232C30.2743 51.9208 30.2743 52.0791 30.1767 52.1767L28.1757 54.1767C28.1289 54.2235 28.0652 54.2499 27.999 54.25C27.9327 54.2499 27.869 54.2235 27.8222 54.1767L26.8232 53.1767C26.7256 53.0791 26.7256 52.9208 26.8232 52.8232C26.9208 52.7257 27.0791 52.7256 27.1767 52.8232L27.999 53.6455L29.8232 51.8232Z" fill="#479324"/>
<path d="M60.7587 21.7036C60.2221 21.7071 59.6905 21.6005 59.1977 21.3908C58.7049 21.1811 58.2617 20.8728 57.8965 20.4856L48.9512 11.0108C48.2522 10.2704 47.8804 9.28813 47.9176 8.28006C47.9548 7.27199 48.3979 6.32069 49.1494 5.63544C49.901 4.95019 50.8994 4.58712 51.9251 4.6261C52.9508 4.66508 53.9197 5.10292 54.6186 5.8433L63.5639 15.3181C64.2618 16.059 64.6328 17.041 64.5957 18.0487C64.5585 19.0564 64.1162 20.0075 63.3658 20.6933C62.6573 21.3401 61.7267 21.7007 60.7587 21.7036ZM51.7657 5.86695C51.26 5.86909 50.7662 6.01588 50.3447 6.28941C49.9231 6.56295 49.5919 6.9514 49.3917 7.40734C49.1914 7.86329 49.1306 8.367 49.2167 8.85701C49.3029 9.34702 49.5323 9.80213 49.8768 10.1668L58.8221 19.6416C59.2931 20.1395 59.9454 20.434 60.6359 20.4602C61.3263 20.4864 61.9985 20.2423 62.5049 19.7815C63.0102 19.3197 63.3081 18.6793 63.3331 18.0007C63.3582 17.3222 63.1083 16.6609 62.6383 16.1621L53.693 6.6873C53.4471 6.42653 53.1487 6.21889 52.8169 6.07764C52.485 5.93639 52.127 5.86464 51.7657 5.86695Z" fill="black" fill-opacity="0.7"/>
<path d="M60.4609 21.5637C59.9251 21.5336 59.4014 21.394 58.9231 21.154C58.4448 20.9139 58.0224 20.5786 57.6829 20.1694L49.3673 10.1561C48.7176 9.37361 48.41 8.37024 48.5123 7.36669C48.6147 6.36314 49.1185 5.44161 49.913 4.80483C50.7074 4.16806 51.7275 3.86818 52.7487 3.97119C53.77 4.0742 54.7087 4.57165 55.3585 5.35411L63.674 15.3674C64.3226 16.1503 64.6295 17.1534 64.5272 18.1566C64.4249 19.1597 63.9219 20.0811 63.1285 20.7186C62.3795 21.3196 61.4273 21.6213 60.4609 21.5637ZM52.5094 5.19938C52.0045 5.1699 51.5021 5.2855 51.0636 5.53209C50.6252 5.77868 50.2695 6.14558 50.0401 6.58802C49.8107 7.03045 49.7174 7.52927 49.7717 8.0236C49.826 8.51792 50.0255 8.98637 50.3458 9.37176L58.6614 19.3851C59.0993 19.9114 59.7313 20.2459 60.4188 20.3153C61.1062 20.3846 61.793 20.1831 62.3282 19.7549C62.8625 19.3257 63.2012 18.7053 63.2701 18.0298C63.339 17.3543 63.1324 16.6789 62.6955 16.1517L54.38 6.13841C54.1514 5.86284 53.867 5.637 53.5449 5.47531C53.2228 5.31362 52.8701 5.21965 52.5094 5.19938Z" fill="#E0523C"/>
</svg>
