<svg width="445" height="130" viewBox="0 0 445 130" fill="none" xmlns="http://www.w3.org/2000/svg">
<path d="M108.373 17.2156H136.173C139.092 17.2156 141.722 17.5406 144.063 18.1906C146.417 18.8276 148.417 19.7506 150.063 20.9596C151.722 22.1556 152.995 23.6246 153.883 25.3666C154.77 27.0956 155.214 29.0586 155.214 31.2556C155.214 33.2056 154.873 34.9801 154.191 36.5791C153.522 38.1651 152.596 39.5236 151.413 40.6546C150.23 41.7856 148.828 42.6631 147.208 43.2871C145.587 43.9111 143.832 44.2231 141.941 44.2231V44.0281C144.166 44.0281 146.23 44.3726 148.134 45.0616C150.037 45.7376 151.683 46.6867 153.072 47.9087C154.474 49.1307 155.568 50.5997 156.352 52.3157C157.149 54.0187 157.548 55.9037 157.548 57.9707C157.548 60.2847 157.04 62.3712 156.024 64.2302C155.008 66.0762 153.581 67.6492 151.741 68.9492C149.915 70.2492 147.722 71.2502 145.162 71.9522C142.603 72.6412 139.774 72.9857 136.674 72.9857H108.373V17.2156ZM121.549 62.8067L121.318 62.5727H135.883C137.285 62.5727 138.513 62.4427 139.568 62.1827C140.635 61.9227 141.523 61.5262 142.23 60.9932C142.937 60.4602 143.471 59.7907 143.832 58.9847C144.192 58.1657 144.372 57.2037 144.372 56.0987C144.372 54.9807 144.192 54.0187 143.832 53.2127C143.471 52.4067 142.937 51.7372 142.23 51.2042C141.523 50.6712 140.635 50.2747 139.568 50.0147C138.513 49.7547 137.292 49.6247 135.902 49.6247H121.318L121.549 49.3907V62.8067ZM134.726 40.1866C135.845 40.1866 136.861 40.0436 137.774 39.7576C138.687 39.4586 139.472 39.0361 140.127 38.4901C140.783 37.9311 141.285 37.2486 141.632 36.4426C141.992 35.6366 142.172 34.7266 142.172 33.7126C142.172 32.7116 141.999 31.8341 141.651 31.0801C141.317 30.3261 140.828 29.6956 140.185 29.1886C139.555 28.6686 138.777 28.2786 137.851 28.0186C136.925 27.7586 135.87 27.6286 134.687 27.6286H121.318L121.549 27.3946V40.4206L121.318 40.1866H134.726ZM179.041 52.3937C179.041 54.2527 179.272 55.9167 179.735 57.3857C180.198 58.8547 180.867 60.1027 181.741 61.1297C182.629 62.1437 183.696 62.9237 184.944 63.4697C186.204 64.0157 187.632 64.2887 189.227 64.2887C190.281 64.2887 191.252 64.1652 192.14 63.9182C193.027 63.6712 193.831 63.3007 194.551 62.8067C195.271 62.2997 195.908 61.6757 196.461 60.9347C197.027 60.1937 197.509 59.3292 197.908 58.3412H209.503C208.911 60.7982 207.991 63.0082 206.744 64.9712C205.496 66.9212 203.985 68.5787 202.21 69.9437C200.435 71.3087 198.416 72.3487 196.153 73.0637C193.902 73.7917 191.471 74.1557 188.86 74.1557C185.645 74.1557 182.706 73.6097 180.044 72.5177C177.394 71.4257 175.118 69.8852 173.215 67.8962C171.311 65.8942 169.839 63.5022 168.796 60.7202C167.755 57.9252 167.234 54.8312 167.234 51.4382C167.234 48.0712 167.748 44.9966 168.777 42.2146C169.819 39.4326 171.279 37.0536 173.156 35.0776C175.034 33.0886 177.285 31.5481 179.909 30.4561C182.545 29.3641 185.452 28.8181 188.629 28.8181C191.805 28.8181 194.686 29.3576 197.271 30.4366C199.856 31.5156 202.069 33.0431 203.908 35.0191C205.747 36.9821 207.168 39.3546 208.171 42.1366C209.188 44.9056 209.695 47.9932 209.695 51.3992C209.695 51.9192 209.682 52.4522 209.657 52.9982C209.631 53.5312 209.586 54.0642 209.522 54.5972H174.623V47.3042H202.866L198.043 54.4607C198.081 53.9407 198.107 53.4272 198.12 52.9202C198.146 52.4132 198.159 51.9257 198.159 51.4577C198.159 49.3127 197.953 47.4342 197.541 45.8221C197.143 44.2101 196.544 42.8646 195.747 41.7856C194.963 40.6936 193.979 39.8746 192.796 39.3286C191.625 38.7696 190.262 38.4901 188.706 38.4901C187.175 38.4901 185.805 38.7631 184.597 39.3091C183.401 39.8421 182.391 40.6221 181.568 41.6491C180.744 42.6631 180.115 43.9176 179.677 45.4126C179.253 46.9077 179.041 48.6042 179.041 50.5022V52.3937ZM258.94 17.2156V28.4086H232.857L233.783 27.4336V41.6491L232.857 40.6741H256.721V51.4577H232.857L233.783 50.4827V72.9857H220.607V17.2156H258.94ZM281.948 29.9881V72.9857H269.485V29.9881H281.948ZM282.044 15.2656V25.6006H269.388V15.2656H282.044ZM316.937 16.0456C320.538 16.0456 323.779 16.4811 326.66 17.3521C329.54 18.2101 331.984 19.4581 333.99 21.0961C335.997 22.7211 337.534 24.7101 338.601 27.0631C339.682 29.4031 340.222 32.0486 340.222 34.9996H327.624C327.624 33.7126 327.367 32.5621 326.852 31.5481C326.338 30.5211 325.605 29.6501 324.653 28.9351C323.702 28.2201 322.557 27.6741 321.219 27.2971C319.882 26.9071 318.396 26.7121 316.763 26.7121C315.85 26.7121 314.962 26.7706 314.101 26.8876C313.239 27.0046 312.416 27.1866 311.631 27.4336C310.86 27.6806 310.146 27.9861 309.49 28.3501C308.847 28.7011 308.294 29.1171 307.831 29.5981C307.368 30.0791 307.001 30.6186 306.731 31.2166C306.474 31.8146 306.345 32.4711 306.345 33.1861C306.345 33.8751 306.454 34.4796 306.673 34.9996C306.905 35.5196 307.239 35.9681 307.676 36.3451C308.127 36.7221 308.686 37.0471 309.355 37.3201C310.024 37.5931 310.802 37.8401 311.689 38.0611C312.577 38.2691 313.567 38.4641 314.66 38.6461C315.766 38.8281 316.982 39.0166 318.306 39.2116L320.409 39.5236C321.939 39.7446 323.535 40.0046 325.193 40.3036C326.865 40.5896 328.499 40.9796 330.094 41.4736C331.701 41.9546 333.225 42.5721 334.666 43.3261C336.119 44.0801 337.386 45.0356 338.466 46.1926C339.56 47.3367 340.428 48.7212 341.071 50.3462C341.714 51.9582 342.036 53.8822 342.036 56.1182C342.036 59.0562 341.456 61.6497 340.299 63.8987C339.154 66.1347 337.508 68.0132 335.361 69.5342C333.225 71.0552 330.64 72.2057 327.605 72.9857C324.57 73.7657 321.168 74.1557 317.4 74.1557C313.361 74.1557 309.786 73.7202 306.673 72.8492C303.561 71.9652 300.943 70.6912 298.822 69.0272C296.712 67.3502 295.111 65.3092 294.018 62.9042C292.925 60.4862 292.378 57.7497 292.378 54.6947H304.976C304.976 56.0857 305.259 57.3272 305.825 58.4192C306.403 59.4982 307.22 60.4147 308.275 61.1687C309.342 61.9227 310.635 62.5012 312.152 62.9042C313.683 63.2942 315.406 63.4892 317.323 63.4892C318.956 63.4892 320.48 63.3462 321.895 63.0602C323.309 62.7612 324.538 62.3192 325.579 61.7342C326.634 61.1362 327.463 60.4017 328.068 59.5307C328.673 58.6467 328.975 57.6262 328.975 56.4692C328.975 55.7022 328.859 55.0457 328.627 54.4997C328.396 53.9407 328.055 53.4597 327.605 53.0567C327.155 52.6537 326.595 52.3157 325.927 52.0427C325.271 51.7567 324.512 51.5097 323.65 51.3017C322.788 51.0937 321.824 50.9117 320.756 50.7557C319.689 50.5867 318.538 50.4112 317.303 50.2292L314.544 49.8392C313.04 49.6312 311.471 49.3972 309.837 49.1372C308.204 48.8642 306.596 48.5002 305.014 48.0452C303.445 47.5902 301.947 47.0052 300.519 46.2901C299.104 45.5751 297.857 44.6716 296.776 43.5796C295.696 42.4746 294.835 41.1421 294.191 39.5821C293.561 38.0221 293.246 36.1696 293.246 34.0246C293.246 32.0746 293.516 30.2806 294.056 28.6426C294.61 26.9916 295.388 25.5031 296.391 24.1771C297.394 22.8381 298.603 21.6616 300.017 20.6476C301.445 19.6336 303.034 18.7886 304.783 18.1126C306.532 17.4236 308.429 16.9101 310.474 16.5721C312.531 16.2211 314.686 16.0456 316.937 16.0456ZM364.547 51.4772C364.547 53.3622 364.752 55.0392 365.164 56.5082C365.575 57.9642 366.173 59.1927 366.958 60.1937C367.742 61.1947 368.707 61.9552 369.851 62.4752C370.996 62.9952 372.296 63.2552 373.749 63.2552C374.971 63.2552 376.045 63.0797 376.971 62.7287C377.897 62.3647 378.694 61.8577 379.362 61.2077C380.032 60.5447 380.578 59.7582 381.002 58.8482C381.427 57.9382 381.742 56.9242 381.948 55.8062H394.352C394.005 58.5232 393.272 61.0062 392.153 63.2552C391.034 65.5042 389.581 67.4347 387.793 69.0467C386.018 70.6587 383.941 71.9132 381.562 72.8102C379.196 73.7072 376.591 74.1557 373.749 74.1557C371.613 74.1557 369.595 73.9152 367.691 73.4342C365.787 72.9532 364.032 72.2512 362.424 71.3282C360.817 70.4052 359.37 69.2872 358.084 67.9742C356.798 66.6482 355.698 65.1467 354.785 63.4697C353.885 61.7927 353.19 59.9467 352.701 57.9317C352.225 55.9167 351.987 53.7652 351.987 51.4772C351.987 49.1892 352.225 47.0442 352.701 45.0421C353.19 43.0271 353.885 41.1811 354.785 39.5041C355.698 37.8141 356.798 36.3126 358.084 34.9996C359.37 33.6736 360.817 32.5556 362.424 31.6456C364.032 30.7226 365.787 30.0206 367.691 29.5396C369.595 29.0586 371.613 28.8181 373.749 28.8181C376.591 28.8181 379.202 29.2666 381.581 30.1636C383.961 31.0606 386.038 32.3151 387.812 33.9271C389.587 35.5261 391.034 37.4566 392.153 39.7186C393.272 41.9676 394.005 44.4506 394.352 47.1677H381.948C381.742 46.0496 381.427 45.0356 381.002 44.1256C380.578 43.2026 380.032 42.4161 379.362 41.7661C378.694 41.1161 377.897 40.6156 376.971 40.2646C376.045 39.9006 374.971 39.7186 373.749 39.7186C372.296 39.7186 370.996 39.9786 369.851 40.4986C368.707 41.0056 367.742 41.7596 366.958 42.7606C366.173 43.7616 365.575 44.9966 365.164 46.4657C364.752 47.9217 364.547 49.5922 364.547 51.4772Z" fill="#6D2FEC"/>
<mask id="mask0_1037_63111" style="mask-type:luminance" maskUnits="userSpaceOnUse" x="1" y="10" width="79" height="100">
<path d="M79.8149 10.6228H1.88226V109.051H79.8149V10.6228Z" fill="white"/>
</mask>
<g mask="url(#mask0_1037_63111)">
<path fill-rule="evenodd" clip-rule="evenodd" d="M69.4891 22.3601C69.8829 22.0827 70.3265 21.8864 70.795 21.7823C71.2635 21.6783 71.7477 21.6685 72.2199 21.7535C72.6922 21.8386 73.1431 22.0168 73.5476 22.278C73.9515 22.5391 74.3006 22.8782 74.5754 23.2758C77.9865 28.2283 79.8154 34.1176 79.8154 40.1516C79.8154 46.1856 77.9865 52.0748 74.5754 57.0273C74.0212 57.8305 73.1736 58.3779 72.2199 58.5497C71.2663 58.7215 70.2841 58.5033 69.4895 57.9433C68.6945 57.3829 68.1527 56.5273 67.983 55.5634C67.8128 54.5995 68.0286 53.6069 68.5829 52.8042C71.139 49.0903 72.5095 44.6752 72.5095 40.1516C72.5095 35.6279 71.139 31.2127 68.5829 27.499C68.0286 26.6961 67.8128 25.7036 67.983 24.7399C68.1532 23.7762 68.695 22.9202 69.4891 22.3601Z" fill="#6D2FEC"/>
<path fill-rule="evenodd" clip-rule="evenodd" d="M50.5851 56.1465C53.7158 56.1465 56.7764 55.2087 59.3795 53.4509C61.9822 51.6936 64.0112 49.1952 65.2092 46.2728C66.4073 43.3502 66.7208 40.1342 66.1098 37.0316C65.4993 33.929 63.9918 31.079 61.7779 28.8422C59.5644 26.6053 56.7436 25.082 53.6734 24.4648C50.6026 23.8477 47.4198 24.1644 44.5276 25.375C41.6353 26.5856 39.1631 28.6356 37.4237 31.2659C35.6847 33.8962 34.756 36.9886 34.756 40.152C34.756 42.2524 35.1655 44.3323 35.961 46.2728C36.7564 48.2133 37.9227 49.9766 39.3923 51.4619C40.8624 52.9471 42.6074 54.125 44.5276 54.9292C46.4482 55.7328 48.5063 56.1465 50.5851 56.1465ZM42.3731 32.9605C44.9693 29.9334 49.2404 28.5568 53.2284 29.2778C57.1545 29.9876 60.7938 32.7305 62.1938 38.0098C62.2353 38.1658 62.3068 38.3121 62.4041 38.4402C62.5014 38.5684 62.6227 38.6759 62.7615 38.7567C62.8998 38.8374 63.0525 38.8899 63.2111 38.9109C63.3697 38.932 63.5307 38.9214 63.6852 38.8796C63.8396 38.8377 63.9844 38.7656 64.1113 38.6672C64.2381 38.5689 64.3446 38.4462 64.4244 38.3063C64.5041 38.1664 64.5563 38.0119 64.577 37.8518C64.5978 37.6916 64.5872 37.5289 64.5461 37.3728C62.892 31.1353 58.4752 27.7265 53.6572 26.8555C48.9006 25.9957 43.7404 27.6092 40.5332 31.349C40.3215 31.5956 40.2155 31.9169 40.2385 32.2424C40.2616 32.5679 40.4114 32.8708 40.6558 33.0845C40.8998 33.2982 41.218 33.4052 41.5398 33.3819C41.8622 33.3586 42.1619 33.207 42.3731 32.9605ZM55.8624 32.1456C55.0766 31.6162 53.9062 31.1742 52.6077 30.9571C51.1528 30.7044 49.661 30.7757 48.2361 31.166C46.5552 31.6365 45.0648 32.6324 43.9779 34.0111C42.7702 35.5295 41.9097 37.616 41.5495 40.3812L41.544 40.4229L41.5412 40.4649C41.4057 42.6532 42.0895 45.138 43.4619 46.9272C44.8767 48.7718 47.1215 49.9585 49.8754 49.0885C51.2796 48.6451 52.1996 47.7652 52.7243 46.6867C53.2274 45.653 53.334 44.5117 53.2961 43.5313C53.2542 42.6605 53.1191 41.7968 52.8931 40.9554C52.805 40.6209 52.7193 40.3446 52.6538 40.149C52.6215 40.0511 52.5938 39.9729 52.5735 39.9173L52.5376 39.8204C52.4795 39.67 52.3923 39.5326 52.2816 39.4161C52.171 39.2996 52.0386 39.2063 51.892 39.1415C51.7453 39.0768 51.5876 39.0418 51.4281 39.0386C51.2681 39.0355 51.109 39.0641 50.96 39.123C50.8115 39.1818 50.6755 39.2698 50.5602 39.3817C50.4449 39.4937 50.3522 39.6275 50.2881 39.7755C50.224 39.9235 50.1894 40.0829 50.1867 40.2444C50.1834 40.406 50.2116 40.5666 50.2701 40.717L50.272 40.7225L50.2863 40.7619C50.2997 40.799 50.3204 40.857 50.3458 40.9335C50.397 41.0867 50.467 41.3117 50.5394 41.5873C50.7193 42.2537 50.8277 42.9378 50.8627 43.6277C50.8922 44.388 50.7958 45.0728 50.539 45.6007C50.3038 46.0837 49.9063 46.5005 49.1491 46.7401C47.5799 47.2355 46.3283 46.6472 45.3867 45.4198C44.4109 44.1478 43.8792 42.2843 43.9696 40.6594C44.2878 38.2602 45.0118 36.6393 45.8759 35.5529C46.6456 34.5729 47.7034 33.8659 48.8973 33.5343C49.9778 33.2422 51.108 33.1912 52.2102 33.3848C53.2593 33.5602 54.0815 33.9033 54.5117 34.193C54.6445 34.2826 54.7939 34.3449 54.9507 34.3762C55.1075 34.4076 55.2689 34.4074 55.4257 34.3757C55.5825 34.3441 55.7314 34.2815 55.8647 34.1916C55.9975 34.1017 56.1114 33.9863 56.1999 33.8518C56.2889 33.7174 56.3503 33.5666 56.3816 33.4081C56.4125 33.2497 56.4125 33.0865 56.3812 32.9281C56.3498 32.7697 56.2876 32.619 56.1986 32.4848C56.11 32.3505 55.9957 32.2353 55.8624 32.1456ZM58.8257 34.8391C58.7233 34.715 58.5979 34.6125 58.4563 34.5374C58.3147 34.4624 58.1598 34.4162 58.0007 34.4016C57.8411 34.387 57.6807 34.4043 57.528 34.4524C57.3754 34.5005 57.2338 34.5785 57.1107 34.6819C56.988 34.7854 56.8866 34.9123 56.8123 35.0554C56.7381 35.1984 56.6924 35.3549 56.6781 35.5158C56.6634 35.6767 56.6804 35.8389 56.7279 35.9932C56.7759 36.1474 56.8529 36.2907 56.9553 36.4148L56.9705 36.4336C56.9848 36.4521 57.0088 36.4826 57.0406 36.5245C57.1042 36.6083 57.1992 36.7376 57.3164 36.9079C57.6392 37.3812 57.9334 37.8738 58.1971 38.3831C58.8575 39.6533 59.5266 41.3931 59.6479 43.349C59.7618 44.8891 59.5464 46.436 59.0161 47.8846C58.8695 48.2787 58.6906 48.6599 58.4821 49.0244C58.4106 49.1479 58.353 49.237 58.317 49.2904C58.2986 49.3173 58.2861 49.335 58.2797 49.3438L58.2755 49.3498C58.0795 49.608 57.9929 49.9344 58.0344 50.2571C58.0759 50.5802 58.2423 50.8732 58.4973 51.0723C58.7524 51.2711 59.0751 51.3602 59.3947 51.3193C59.7143 51.2785 60.0048 51.1109 60.2026 50.8541L60.3276 50.6786C60.394 50.5807 60.4821 50.4437 60.5835 50.2682C60.8598 49.7867 61.0963 49.2835 61.2909 48.763C61.9453 46.9857 62.2141 45.087 62.0781 43.1956C61.9291 40.7826 61.112 38.6996 60.3534 37.2393C60.0431 36.6409 59.6972 36.0621 59.3177 35.5061C59.1771 35.301 59.059 35.1401 58.9737 35.0277C58.9308 34.9715 58.8962 34.9274 58.8713 34.8958L58.8257 34.8391ZM40.4008 34.0187C40.6794 34.1834 40.8818 34.4533 40.9639 34.769C41.0455 35.0847 40.9998 35.4203 40.8366 35.7019C39.1009 38.7002 39.1562 43.4809 41.5002 46.7926C43.9751 50.2896 47.8694 51.6193 51.8343 50.2956C53.4995 49.7398 54.437 48.6121 54.8898 47.2053C55.3584 45.7484 55.309 43.9596 54.8516 42.2373C54.3932 40.5118 53.5645 38.9986 52.639 38.0776C51.7117 37.1544 50.9213 37.0087 50.2789 37.2972C48.7936 37.9642 48.3126 39.0272 48.2577 40.1005C48.1969 41.2773 48.6631 42.4641 49.1242 43.0631C49.322 43.3207 49.411 43.6472 49.3709 43.9709C49.3308 44.2946 49.1648 44.5889 48.9102 44.7892C48.6552 44.9894 48.332 45.0793 48.0119 45.0389C47.6914 44.9985 47.4 44.8312 47.2017 44.5738C46.4021 43.5344 45.733 41.7722 45.8257 39.9727C45.9234 38.0697 46.884 36.129 49.2898 35.0486C51.215 34.1841 53.0457 35.0283 54.348 36.3246C55.6526 37.6231 56.6615 39.5592 57.2034 41.5995C57.7461 43.6431 57.8587 45.9368 57.2057 47.9663C56.5366 50.0453 55.0683 51.8078 52.598 52.6323C47.5868 54.3052 42.5931 52.5669 39.5191 48.224C36.6167 44.1229 36.5143 38.295 38.7347 34.4595C38.898 34.1778 39.165 33.9731 39.4772 33.8904C39.7898 33.8078 40.1218 33.8539 40.4008 34.0187Z" fill="#6D2FEC"/>
<path d="M54.2447 62.2974H50.4223C38.0785 62.211 28.0966 52.3278 28.0966 40.1502C28.0966 27.9293 38.1541 18.0192 50.5684 18.0036H50.6104C53.4672 18.0023 56.2963 18.5684 58.9372 19.6698C59.3808 19.8548 59.8563 19.9497 60.3359 19.949C60.8159 19.9483 61.2909 19.8522 61.734 19.666C62.1772 19.4798 62.5798 19.2072 62.9187 18.8639C63.2576 18.5205 63.526 18.1131 63.7091 17.6649C63.8922 17.2166 63.9858 16.7363 63.9853 16.2514C63.9849 15.7665 63.8894 15.2864 63.7054 14.8387C63.5209 14.3909 63.2512 13.9842 62.9113 13.6418C62.5715 13.2994 62.1684 13.028 61.7248 12.843C58.2358 11.3917 54.5015 10.6388 50.7285 10.6262V10.6228H10.3541C9.24137 10.6226 8.13952 10.8438 7.1115 11.274C6.08344 11.7042 5.14935 12.3348 4.36256 13.1298C3.5758 13.9248 2.9517 14.8686 2.52602 15.9074C2.10029 16.9462 1.8813 18.0596 1.88153 19.184V62.2974H1.88762V100.49C1.88739 101.614 2.10638 102.728 2.53211 103.767C2.95779 104.806 3.58189 105.749 4.36869 106.544C5.15544 107.34 6.08957 107.97 7.11759 108.4C8.14561 108.83 9.24745 109.051 10.3601 109.051H54.2447C60.3801 109.051 66.2647 106.588 70.6036 102.205C74.942 97.8203 77.3796 91.8742 77.3796 85.6742C77.3796 79.4741 74.942 73.5285 70.6036 69.1442C66.2647 64.76 60.3801 62.2974 54.2447 62.2974Z" fill="#6D2FEC"/>
<path d="M42.3768 32.9599C44.973 29.9328 49.2436 28.5563 53.2316 29.2772C57.1577 29.987 60.798 32.73 62.1975 38.0092C62.239 38.1653 62.3105 38.3115 62.4078 38.4397C62.5051 38.5679 62.6264 38.6755 62.7647 38.7562C62.9035 38.837 63.0562 38.8894 63.2148 38.9105C63.3734 38.9316 63.5344 38.9209 63.6888 38.8791C63.8433 38.8373 63.9881 38.7651 64.1149 38.6668C64.2418 38.5684 64.3483 38.4458 64.4281 38.3058C64.5078 38.1659 64.5599 38.0115 64.5807 37.8513C64.6014 37.6911 64.5908 37.5283 64.5498 37.3723C62.8957 31.1348 58.4784 27.726 53.6604 26.855C48.9042 25.9951 43.7436 27.6086 40.5364 31.3484C40.4317 31.4705 40.3519 31.6123 40.3012 31.7656C40.251 31.9189 40.2307 32.0807 40.2422 32.2419C40.2652 32.5674 40.4151 32.8703 40.6591 33.084C40.9035 33.2977 41.2212 33.4047 41.5435 33.3814C41.8654 33.3581 42.1656 33.2065 42.3768 32.9599Z" fill="#FBBF00"/>
<path d="M40.4041 34.018C40.6826 34.1827 40.8855 34.4526 40.9671 34.7683C41.0487 35.084 41.0031 35.4196 40.8403 35.7012C39.1046 38.6995 39.1594 43.4802 41.5034 46.792C43.9784 50.2886 47.8731 51.6183 51.838 50.2951C53.5032 49.7393 54.4402 48.6116 54.8931 47.2048C55.3616 45.7477 55.3122 43.9589 54.8548 42.2366C54.3964 40.5111 53.5678 38.9979 52.6427 38.0769C51.7149 37.1538 50.9245 37.0081 50.2821 37.2965C48.7968 37.9636 48.3163 39.0265 48.261 40.0999C48.2006 41.2767 48.6663 42.4634 49.1274 43.0624C49.3248 43.32 49.4129 43.6463 49.3728 43.9695C49.3322 44.2928 49.1666 44.5866 48.9121 44.7867C48.6575 44.9867 48.3352 45.0766 48.0152 45.0365C47.6951 44.9965 47.4037 44.8298 47.2054 44.5731C46.4053 43.5338 45.7362 41.7716 45.8289 39.9721C45.9271 38.069 46.8872 36.1283 49.2935 35.0479C51.2182 34.1835 53.049 35.0276 54.3517 36.3239C55.6558 37.6225 56.6652 39.5585 57.2066 41.5989C57.7494 43.6424 57.8619 45.9361 57.2094 47.9653C56.5398 50.0448 55.072 51.8068 52.6017 52.6314C47.59 54.3042 42.5963 52.5664 39.5228 48.2234C36.6199 44.1222 36.5176 38.2943 38.7384 34.4587C38.9012 34.1771 39.1682 33.9724 39.4809 33.8897C39.793 33.8071 40.1251 33.8532 40.4041 34.018Z" fill="#26BC96"/>
<path d="M55.8651 32.1459C55.0794 31.6165 53.9085 31.1744 52.6104 30.9574C51.1555 30.7046 49.6633 30.7759 48.2388 31.1662C46.5575 31.6367 45.0671 32.6326 43.9807 34.0114C42.7725 35.5297 41.912 37.6163 41.5518 40.3814L41.5463 40.4231L41.544 40.4651C41.4079 42.6534 42.0918 45.1382 43.4642 46.9276C44.8794 48.7722 47.1238 49.9585 49.8782 49.0889C51.2823 48.6455 52.2018 47.7657 52.7266 46.6867C53.2297 45.6532 53.3367 44.5119 53.2984 43.5315C53.2565 42.6607 53.1214 41.797 52.8954 40.9557C52.8078 40.6211 52.7216 40.3448 52.6565 40.1492C52.6243 40.0513 52.5961 39.9732 52.5763 39.9175L52.5403 39.8207C52.4822 39.6702 52.3951 39.5328 52.2844 39.4163C52.1733 39.2998 52.0409 39.2065 51.8943 39.1417C51.7481 39.077 51.5904 39.042 51.4304 39.0388C51.2703 39.0356 51.1117 39.0643 50.9628 39.1231C50.8138 39.182 50.6778 39.2699 50.5625 39.3819C50.4472 39.4939 50.355 39.6277 50.2909 39.7757C50.2268 39.9237 50.1922 40.0831 50.189 40.2446C50.1857 40.4061 50.2143 40.5667 50.2724 40.7172L50.2743 40.7227L50.289 40.7621C50.3024 40.7992 50.3227 40.8573 50.3481 40.9337C50.3993 41.0869 50.4693 41.3119 50.5417 41.5876C50.7221 42.254 50.8304 42.938 50.865 43.6279C50.8945 44.3883 50.7986 45.0731 50.5417 45.6009C50.3066 46.0838 49.9091 46.5009 49.1514 46.7401C47.5826 47.2359 46.3306 46.6472 45.389 45.42C44.4137 44.148 43.882 42.2846 43.9719 40.6598C44.2905 38.2603 45.0141 36.6395 45.8787 35.5531C46.6479 34.5731 47.7062 33.8661 48.8996 33.5346C49.9801 33.2424 51.1108 33.1914 52.2125 33.385C53.2616 33.5604 54.0838 33.9035 54.514 34.1932C54.7824 34.3742 55.1112 34.44 55.428 34.376C55.7448 34.3121 56.0233 34.1236 56.2027 33.8522C56.3816 33.5807 56.4466 33.2484 56.3835 32.9284C56.3203 32.6084 56.1335 32.327 55.8651 32.1459Z" fill="#E0523C"/>
<path d="M58.8294 34.8386C58.727 34.7143 58.6016 34.6115 58.46 34.5363C58.3184 34.461 58.1635 34.4147 58.0039 34.4C57.8444 34.3853 57.6839 34.4025 57.5313 34.4505C57.3782 34.4986 57.2366 34.5767 57.1135 34.6802C56.9904 34.7837 56.8889 34.9107 56.8147 35.0539C56.7404 35.1971 56.6948 35.3537 56.6805 35.5148C56.6662 35.6758 56.6832 35.8382 56.7307 35.9925C56.7787 36.1468 56.8562 36.2902 56.9585 36.4143L56.9738 36.433C56.988 36.4515 57.012 36.482 57.0443 36.5239C57.1075 36.6078 57.2025 36.737 57.3196 36.9074C57.6424 37.3807 57.9366 37.8733 58.2008 38.3826C58.8607 39.6528 59.5303 41.3926 59.6511 43.3485C59.765 44.8885 59.5497 46.4351 59.0198 47.8836C58.8727 48.2778 58.6943 48.6595 58.4854 49.0239C58.4144 49.1474 58.3567 49.2366 58.3203 49.29L58.2829 49.3434L58.2792 49.3489C58.0828 49.6075 57.9961 49.9339 58.0376 50.2566C58.0791 50.5798 58.2456 50.8727 58.5006 51.0719C58.7556 51.2711 59.0784 51.3598 59.3984 51.3189C59.718 51.278 60.0085 51.1104 60.2063 50.8532L60.3309 50.6782C60.3973 50.5802 60.4853 50.4428 60.5872 50.2678C60.8635 49.7863 61.1 49.283 61.2946 48.7625C61.949 46.9853 62.2178 45.0864 62.0818 43.195C61.9324 40.7821 61.1157 38.6991 60.3567 37.2388C60.0468 36.6403 59.7009 36.0615 59.321 35.5056C59.1808 35.3005 59.0623 35.1396 58.9769 35.0272C58.9341 34.9709 58.8999 34.9268 58.8746 34.8952L58.8294 34.8386Z" fill="#00C7EB"/>
</g>
<path d="M109.314 91.8357H117.011C119.939 91.8357 122.091 93.5907 122.091 95.9697C122.091 97.8528 120.746 99.3181 118.887 99.5466C121.161 99.7583 122.761 101.346 122.761 103.486C122.761 106.004 120.553 107.77 117.404 107.77H109.314V91.8357ZM116.901 98.7164C118.622 98.7164 119.784 97.7303 119.784 96.2706C119.784 94.861 118.693 94.0086 116.884 94.0086H111.638V98.7164H116.901ZM111.638 105.597H117.072C119.335 105.597 120.453 104.8 120.453 103.179C120.453 101.563 119.346 100.778 117.078 100.778H111.638V105.597ZM135.403 103.697H137.638C137.008 106.45 134.899 108.104 132.038 108.104C128.453 108.104 126.045 105.497 126.045 101.608C126.045 97.7414 128.425 95.1507 131.972 95.1507C135.464 95.1507 137.699 97.6578 137.699 101.575C137.699 101.859 137.683 102.121 137.661 102.449H128.331C128.591 104.7 129.985 106.065 132.094 106.065C133.715 106.065 134.805 105.263 135.403 103.697ZM128.375 100.499H135.381C135.082 98.3654 133.887 97.1898 131.983 97.1898C130.03 97.1898 128.713 98.4323 128.375 100.499ZM149.922 95.485H152.191L147.138 108.544C146.126 111.157 144.455 112.327 141.821 112.327C141.461 112.327 141.118 112.305 140.802 112.261V110.294C141.19 110.344 141.522 110.366 141.832 110.366C143.309 110.366 144.211 109.815 144.681 108.544L144.836 108.132L139.994 95.485H142.319L146.098 105.714L149.922 95.485ZM154.488 101.625C154.488 97.7414 156.878 95.1507 160.453 95.1507C164.028 95.1507 166.418 97.7414 166.418 101.625C166.418 105.508 164.028 108.104 160.453 108.104C156.878 108.104 154.488 105.508 154.488 101.625ZM156.729 101.625C156.729 104.371 158.151 106.065 160.458 106.065C162.76 106.065 164.177 104.371 164.177 101.625C164.177 98.878 162.76 97.1898 160.458 97.1898C158.151 97.1898 156.729 98.8836 156.729 101.625ZM172.361 101.123V107.77H170.12V95.485H172.361V99.034C172.953 96.616 174.614 95.1507 176.888 95.1507C179.671 95.1507 181.331 97.3347 181.331 100.9V107.77H179.09V100.9C179.09 98.4378 178.05 97.1898 175.958 97.1898C173.706 97.1898 172.361 98.6384 172.361 101.123ZM194.673 91.2786H196.914V107.77H194.673V103.987C194.036 106.505 192.36 108.104 190.146 108.104C187.136 108.104 184.983 105.402 184.983 101.625C184.983 97.8528 187.136 95.1507 190.146 95.1507C192.36 95.1507 194.036 96.7497 194.673 99.268V91.2786ZM194.673 101.625C194.673 98.8223 193.256 97.1341 190.91 97.1341C188.519 97.1341 187.224 98.7164 187.224 101.625C187.224 104.539 188.525 106.121 190.91 106.121C193.256 106.121 194.673 104.433 194.673 101.625ZM218.829 91.8357V94.0086H210.462V98.956H218.165V101.129H210.462V107.77H208.138V91.8357H218.829ZM224.697 91.2786V94.0643H222.345V91.2786H224.697ZM224.642 95.485V107.77H222.401V95.485H224.642ZM230.876 101.123V107.77H228.635V95.485H230.876V99.034C231.468 96.616 233.128 95.1507 235.402 95.1507C238.186 95.1507 239.846 97.3347 239.846 100.9V107.77H237.605V100.9C237.605 98.4378 236.565 97.1898 234.473 97.1898C232.221 97.1898 230.876 98.6384 230.876 101.123ZM243.802 99.7638C243.802 96.9391 245.944 95.1507 249.358 95.1507C252.971 95.1507 255.152 97.1453 255.152 100.483V107.77H252.911V104.466C252.318 106.728 250.459 108.104 247.886 108.104C245.219 108.104 243.442 106.622 243.442 104.399C243.442 102.154 245.257 100.767 248.201 100.767H252.911V100.483C252.911 98.4601 251.527 97.1954 249.319 97.1954C247.067 97.1954 246.043 98.215 246.043 99.7638H243.802ZM252.911 102.661H248.179C246.53 102.661 245.656 103.24 245.656 104.321C245.656 105.491 246.663 106.138 248.489 106.138C251.079 106.138 252.911 104.834 252.911 103.001V102.661ZM261.328 101.123V107.77H259.087V95.485H261.328V99.034C261.92 96.616 263.58 95.1507 265.855 95.1507C268.638 95.1507 270.298 97.3347 270.298 100.9V107.77H268.057V100.9C268.057 98.4378 267.017 97.1898 264.925 97.1898C262.673 97.1898 261.328 98.6384 261.328 101.123ZM276.192 101.625C276.192 104.371 277.614 106.065 279.921 106.065C281.941 106.065 283.015 104.761 283.313 103.14H285.555C285.189 105.931 283.192 108.104 279.916 108.104C276.341 108.104 273.951 105.508 273.951 101.625C273.951 97.7414 276.341 95.1507 279.916 95.1507C283.192 95.1507 285.195 97.3236 285.555 100.115H283.313C283.02 98.4936 281.947 97.1898 279.921 97.1898C277.614 97.1898 276.192 98.878 276.192 101.625ZM291.555 91.2786V94.0643H289.203V91.2786H291.555ZM291.5 95.485V107.77H289.259V95.485H291.5ZM295.52 99.7638C295.52 96.9391 297.662 95.1507 301.076 95.1507C304.69 95.1507 306.87 97.1453 306.87 100.483V107.77H304.629V104.466C304.037 106.728 302.177 108.104 299.604 108.104C296.937 108.104 295.161 106.622 295.161 104.399C295.161 102.154 296.976 100.767 299.92 100.767H304.629V100.483C304.629 98.4601 303.245 97.1954 301.037 97.1954C298.785 97.1954 297.761 98.215 297.761 99.7638H295.52ZM304.629 102.661H299.897C298.248 102.661 297.374 103.24 297.374 104.321C297.374 105.491 298.381 106.138 300.207 106.138C302.797 106.138 304.629 104.834 304.629 103.001V102.661ZM313.046 91.2786V107.77H310.805V91.2786H313.046ZM330.444 91.5014C334.224 91.5014 336.681 93.457 336.681 96.6383H334.412C334.412 94.7886 332.785 93.6186 330.428 93.6186C328.452 93.6186 326.383 94.4431 326.383 96.2761C326.383 97.8807 327.971 98.1537 330.477 98.5326L331.296 98.6551C333.98 99.0618 337.257 99.5744 337.257 103.19C337.257 106.5 334.517 108.104 330.643 108.104C326.388 108.104 323.837 106.171 323.837 102.823H326.106C326.106 104.806 327.849 105.987 330.605 105.987C332.979 105.987 334.982 105.118 334.982 103.146C334.982 101.38 333.366 101.112 331.114 100.772L330.085 100.616C327.373 100.204 324.114 99.7248 324.114 96.3263C324.114 93.1338 326.991 91.5014 330.444 91.5014ZM342.928 101.625C342.928 104.371 344.35 106.065 346.658 106.065C348.678 106.065 349.751 104.761 350.05 103.14H352.291C351.926 105.931 349.928 108.104 346.652 108.104C343.078 108.104 340.687 105.508 340.687 101.625C340.687 97.7414 343.078 95.1507 346.652 95.1507C349.928 95.1507 351.932 97.3236 352.291 100.115H350.05C349.757 98.4936 348.683 97.1898 346.658 97.1898C344.35 97.1898 342.928 98.878 342.928 101.625ZM355.719 101.625C355.719 97.7414 358.109 95.1507 361.684 95.1507C365.259 95.1507 367.65 97.7414 367.65 101.625C367.65 105.508 365.259 108.104 361.684 108.104C358.109 108.104 355.719 105.508 355.719 101.625ZM357.96 101.625C357.96 104.371 359.382 106.065 361.69 106.065C363.992 106.065 365.408 104.371 365.408 101.625C365.408 98.878 363.992 97.1898 361.69 97.1898C359.382 97.1898 357.96 98.8836 357.96 101.625ZM373.593 101.68V107.77H371.352V95.485H373.593V99.4017C374.157 96.9558 375.74 95.485 378.318 95.485H378.872V97.6356H378.324C374.755 97.6356 373.593 98.9504 373.593 101.68ZM391.141 103.697H393.376C392.746 106.45 390.637 108.104 387.776 108.104C384.191 108.104 381.783 105.497 381.783 101.608C381.783 97.7414 384.163 95.1507 387.71 95.1507C391.202 95.1507 393.437 97.6578 393.437 101.575C393.437 101.859 393.421 102.121 393.399 102.449H384.069C384.329 104.7 385.723 106.065 387.832 106.065C389.453 106.065 390.543 105.263 391.141 103.697ZM384.113 100.499H391.119C390.82 98.3654 389.625 97.1898 387.721 97.1898C385.768 97.1898 384.451 98.4323 384.113 100.499Z" fill="#8A58F0"/>
</svg>
